<svg xmlns="http://www.w3.org/2000/svg" viewBox="0 0 127.36 95.96"><title>abstract</title><path d="M126.6,65.49A20.23,20.23,0,0,0,116,41.91,33.19,33.19,0,0,0,93,1.27,33.75,33.75,0,0,0,60.66,9.33a19.81,19.81,0,0,0-9.47-6.14A19.2,19.2,0,0,0,27.44,16.37l-1.58-.45A20.19,20.19,0,0,0,1,29.73c0,.11,0,.21-.07.32s-.1.27-.14.41A20.25,20.25,0,0,0,11.33,54a33.18,33.18,0,0,0,23,40.64A33.74,33.74,0,0,0,66.7,86.63a19.72,19.72,0,0,0,9.47,6.13A19.2,19.2,0,0,0,99.92,79.58l1.58.46a20.18,20.18,0,0,0,24.89-13.81c0-.11,0-.22.07-.33S126.56,65.63,126.6,65.49Z"/></svg>