<svg xmlns="http://www.w3.org/2000/svg" xmlns:xlink="http://www.w3.org/1999/xlink" viewBox="0 0 1531.78 1484.38"><defs><clipPath id="a"><ellipse cx="775.86" cy="712.42" rx="590.64" ry="590.4" transform="translate(-60.46 1352.78) rotate(-80)" style="fill:none"/></clipPath><clipPath id="b"><polygon points="1099.07 565.6 1013.88 501.18 924.44 545.31 887.65 688.37 911.19 788.82 989.19 831.43 1053.94 807.08 1114.28 703.59 1099.07 565.6" style="fill:none"/></clipPath><clipPath id="c"><polygon points="1086.25 816.83 1343.52 1014.39 1387.12 1237.44 1098.24 1298.29 873.06 1124.68 904.52 874.13 1042.13 810.62 1086.25 816.83" style="fill:none"/></clipPath><clipPath id="d"><polygon points="1097.72 571.33 1004.96 501.18 907.57 549.23 867.51 705 893.15 814.38 978.08 860.78 1048.58 834.26 1114.28 721.58 1097.72 571.33" style="fill:none"/></clipPath><clipPath id="e"><polygon points="1086.25 816.83 1343.52 1014.39 1387.12 1237.44 1098.24 1298.29 873.06 1124.68 904.52 874.13 962.78 810.78 1086.25 816.83" style="fill:none"/></clipPath></defs><title>brand-builder</title><circle cx="775.86" cy="712.66" r="590.4" style="fill:#5da87e"/><g style="clip-path:url(#a)"><polygon points="943.18 548.25 805.03 1111.29 952.35 1025.6 1005.95 646.93 943.18 548.25" style="fill:#ddd6cc"/><polygon points="952.37 542.57 755.49 1070.79 911.1 1014.49 1004.4 651.74 952.37 542.57" style="fill:#f2eada"/><polygon points="1046.62 589.7 1419.94 1059.12 1201.85 1041.49 1000.97 709.03 1046.62 589.7" style="fill:#ddd6cc"/><polygon points="1095.65 573.76 1531.79 985.48 1313.4 998.97 1067.39 698.37 1095.65 573.76" style="fill:#f2eada"/><polygon points="1099.07 565.6 1013.88 501.18 924.44 545.31 887.65 688.37 911.19 788.82 989.19 831.43 1053.94 807.08 1114.28 703.59 1099.07 565.6" style="fill:#fcdf90"/><g style="clip-path:url(#b)"><polygon points="1210.63 597.52 813.03 589.82 813.03 666.25 1210.63 654.69 1210.63 597.52" style="fill:#60553c"/><polygon points="1210.63 723.42 813.03 715.71 813.03 792.14 1210.63 780.58 1210.63 723.42" style="fill:#60553c"/></g><polygon points="861.85 483.19 844.23 422.85 832.5 344.28 849 251.31 907.09 214.06 1050.05 205.71 1169.52 277.01 1176.59 336.1 1182.12 372.4 1138.96 497.92 1050.72 549.38 954.83 540.07 861.85 483.19" style="fill:#fcdf90"/><g style="clip-path:url(#c)"><polygon points="1086.25 816.83 1343.52 1014.39 1387.12 1237.44 1098.24 1298.29 873.06 1124.68 904.52 874.13 1042.13 810.62 1086.25 816.83" style="fill:#fcdf90"/><polygon points="1348.35 985.68 1022.99 1325.89 1089.58 1387.15 1398.15 1031.49 1348.35 985.68" style="fill:#60553c"/><polygon points="1258.46 904.46 864.26 1161.78 915.18 1236.57 1296.54 960.4 1258.46 904.46" style="fill:#60553c"/><polygon points="1175.23 790.81 817.29 964.09 851.93 1032.22 1201.13 841.77 1175.23 790.81" style="fill:#60553c"/></g><polygon points="422.76 698.37 140.92 698.37 0 942.45 140.92 1186.53 422.76 1186.53 563.68 942.45 422.76 698.37" style="fill:#f9db87"/><polygon points="1099.51 560.91 936.36 875 899.1 885.92 1072.38 545.42 1099.51 560.91" style="fill:#b59b61"/><polygon points="422.76 210.21 140.92 210.21 0 454.29 140.92 698.37 422.76 698.37 563.68 454.29 422.76 210.21" style="fill:#f9ea95"/><polygon points="662.11 956.28 687.96 912.43 742.73 907.34 773.82 936.24 720.11 969.3 662.11 956.28" style="fill:#fcdf90"/><polygon points="839.51 917.8 844.21 895.82 876.63 860.71 932.77 872.7 936.36 901.05 899.1 917.4 839.51 917.8" style="fill:#fcdf90"/><circle cx="861.79" cy="287.18" r="29.14" style="fill:#fff"/><circle cx="849.35" cy="300.59" r="7.95" style="fill:#324915"/><circle cx="1143.13" cy="366.83" r="29.14" style="fill:#fff"/><circle cx="1125.54" cy="378.31" r="7.95" style="fill:#324915"/><polygon points="832.3 249.39 905.53 287.29 905.53 268.02 857.35 241.68 832.3 249.39" style="fill:#b59b61"/><polygon points="1192.84 356.85 1111.01 346.76 1121.89 330.86 1176.52 336.34 1192.84 356.85" style="fill:#b59b61"/><rect x="980.04" y="324.07" width="8.35" height="201.98" transform="translate(292.52 1244.15) rotate(-73.18)" style="fill:#e2c376"/><polygon points="1020.62 436.9 1023 477.01 1048.05 483.94 1070.71 450.76 1020.62 436.9" style="fill:#e2c376"/><polygon points="963.27 215.01 933.56 69.34 806.5 20.76 790.69 42.88 804.48 51.16 815.59 36.16 820.75 39.98 806.17 59.66 781.42 44.81 804.15 12.98 939.15 64.6 969.57 213.73 963.27 215.01" style="fill:#8c7438"/><polygon points="1146.84 265.49 1140.72 263.53 1198.06 85 1163.83 10.21 1146.48 24.26 1148.95 37.17 1167.2 37.72 1167.01 44.14 1143.62 43.44 1139.44 21.69 1166.22 0 1204.94 84.6 1146.84 265.49" style="fill:#8c7438"/><polyline points="944.72 1019.92 895.96 1472.02 830.35 1474.38" style="fill:none;stroke:#b59b61;stroke-miterlimit:10;stroke-width:20px"/></g><polygon points="943.18 548.25 805.03 1111.29 952.35 1025.6 1005.95 646.93 943.18 548.25" style="fill:#ddd6cc"/><polygon points="952.37 542.57 755.49 1070.79 911.1 1014.49 1004.4 651.74 952.37 542.57" style="fill:#f2eada"/><polygon points="1046.62 589.7 1419.94 1059.12 1201.85 1041.49 1000.97 709.03 1046.62 589.7" style="fill:#ddd6cc"/><polygon points="1095.65 573.76 1531.79 985.48 1313.4 998.97 1067.39 698.37 1095.65 573.76" style="fill:#f2eada"/><polygon points="1099.07 565.6 1013.88 501.18 924.44 545.31 887.65 688.37 911.19 788.82 989.19 831.43 1053.94 807.08 1114.28 703.59 1099.07 565.6" style="fill:#fcdf90"/><g style="clip-path:url(#d)"><polygon points="1219.19 606.08 786.27 597.69 786.27 680.92 1219.19 668.33 1219.19 606.08" style="fill:#bc9e61"/><polygon points="1219.19 743.16 786.27 734.77 786.27 818 1219.19 805.41 1219.19 743.16" style="fill:#bc9e61"/></g><polygon points="861.85 483.19 814.23 422.85 832.5 344.28 849 251.31 907.09 214.06 1050.05 205.71 1169.52 277.01 1176.59 336.1 1182.12 372.4 1138.96 497.92 1050.72 549.38 954.83 540.07 861.85 483.19" style="fill:#fcdf90"/><g style="clip-path:url(#e)"><polygon points="1066.79 802.78 1343.52 1014.39 1387.12 1237.44 1098.24 1298.29 873.06 1124.68 904.52 874.13 953.78 810.78 1066.79 802.78" style="fill:#fcdf90"/><polygon points="1348.35 985.68 1022.99 1325.89 1089.58 1387.15 1398.15 1031.49 1348.35 985.68" style="fill:#b59d6d"/><polygon points="1258.46 904.46 864.26 1161.78 915.18 1236.57 1296.54 960.4 1258.46 904.46" style="fill:#b59d6d"/><polygon points="1175.23 790.81 817.29 964.09 851.93 1032.22 1201.13 841.77 1175.23 790.81" style="fill:#b59d6d"/></g><polygon points="1099.51 560.91 936.36 875 899.1 885.92 1072.38 545.42 1099.51 560.91" style="fill:#847049"/><polygon points="825.52 460.58 551.34 525.85 470.77 795.92 664.38 1000.74 938.56 935.47 1019.13 665.39 825.52 460.58" style="fill:#ffeea9"/><polygon points="597.82 966.39 657.15 915.52 739.27 935.32 770.08 992.76 675.62 1014.11 597.82 966.39" style="fill:#e0bc63"/><polygon points="812.84 969.03 819.98 935.6 869.28 882.21 954.64 900.45 960.1 943.56 903.44 968.41 812.84 969.03" style="fill:#e0bc63"/><circle cx="854.57" cy="294.41" r="36.37" style="fill:#fff"/><circle cx="839.04" cy="311.14" r="9.92" style="fill:#324915"/><circle cx="1143.57" cy="374.41" r="36.37" style="fill:#fff"/><circle cx="1123.04" cy="386.14" r="9.92" style="fill:#324915"/><polygon points="832.3 249.39 905.53 287.29 905.53 268.02 857.35 241.68 832.3 249.39" style="fill:#b59b61"/><polygon points="1192.84 356.85 1111.01 346.76 1121.89 330.86 1176.52 336.34 1192.84 356.85" style="fill:#b59b61"/><rect x="980.04" y="324.07" width="8.35" height="201.98" transform="translate(292.52 1244.15) rotate(-73.18)" style="fill:#e2c376"/><polygon points="1020.62 436.9 1023 477.01 1048.05 483.94 1070.71 450.76 1020.62 436.9" style="fill:#e2c376"/><polygon points="964.42 215.01 940.14 95.95 836.28 56.24 823.36 74.32 834.63 81.08 843.72 68.82 847.93 71.95 836.01 88.04 815.78 75.9 834.37 49.88 944.71 92.07 969.57 213.97 964.42 215.01" style="fill:#8c7438"/><polygon points="1145.46 265.49 1140.48 263.89 1187.18 118.49 1159.3 57.57 1145.17 69.02 1147.19 79.54 1162.05 79.98 1161.89 85.21 1142.84 84.64 1139.44 66.93 1161.25 49.26 1192.79 118.16 1145.46 265.49" style="fill:#8c7438"/><polyline points="1142.4 1015.23 1129.79 1407.29 1191.79 1416.78" style="fill:none;stroke:#b59b61;stroke-miterlimit:10;stroke-width:20px"/></svg>