<svg xmlns="http://www.w3.org/2000/svg" xmlns:xlink="http://www.w3.org/1999/xlink" viewBox="0 0 1202.62 1562"><defs><clipPath id="a"><circle cx="590.4" cy="853.88" r="590.4" style="fill:#bdd6f9"/></clipPath></defs><title>conductor</title><circle cx="590.4" cy="853.88" r="590.4" style="fill:#bdd6f9"/><g style="clip-path:url(#a)"><polygon points="218.32 1346 341.32 1271 414.32 1219 515.32 1224 612.32 1219 749.32 1234 815.32 1255 917.32 1397 669.32 1517 455.32 1562 218.32 1346" style="fill:#898989"/></g><polygon points="443.34 482.51 275.91 538.11 177.68 460.27 90.57 552.94 238.84 677.12 298.15 695.65 427.89 647.47 443.34 482.51" style="fill:#545454"/><polygon points="554.67 221.18 499.72 376.86 443.11 482.51 354.85 632.64 348.19 817.98 403.14 953.28 476.41 1183.11 511.38 1229.44 554.67 1238.71 597.97 1205.35 652.92 1259.1 699.54 1259.1 729.51 1183.11 744.5 1144.18 784.47 966.25 676.23 526.99 656.25 187.81 554.67 221.18" style="fill:#f5f7f7"/><polygon points="554.67 198.94 581.32 45.1 589.64 0 681.23 143.33 720.32 200 687.89 406.52 709.53 438.03 749.5 452.86 781.13 508.46 901.03 588.15 1052.56 541.82 1069.21 547.38 1085.86 632.64 912.68 717.89 772.81 669.71 787.79 717.89 820.54 981.08 831.09 1081.17 909.35 1183.11 834.42 1170.13 744.5 1144.18 719.52 851.34 636.27 617.81 621.28 712.34 579.65 743.84 554.67 647.47 554.67 515.87 606.29 386.13 619.61 273.07 621.28 208.2 579.65 221.18 554.67 221.18 554.67 198.94" style="fill:#545454"/><polygon points="165.17 477.92 113.43 403.43 41.14 403.43 30.02 462.74 80.06 523.9 128.1 532.91 165.17 477.92" style="fill:#d7dbdd"/><polygon points="1069.18 547.38 1104.39 489.92 1121.07 533.17 1202.63 489.92 1202.63 577.65 1167.41 628.93 1082.75 616.71 1069.18 547.38" style="fill:#e2eaed"/><circle cx="677.74" cy="201.52" r="31.52" style="fill:#fff"/><circle cx="689.42" cy="191.76" r="8.6" style="fill:#324915"/><rect x="54.12" y="205.59" width="6.18" height="223.92" transform="translate(-36.41 8.77) rotate(-6.65)" style="fill:#1a1a1a"/><polygon points="511.3 1229.44 414.92 1249.83 479.79 1277.63 566.28 1270.22 554.54 1238.71 511.3 1229.44" style="fill:#baa68e"/><polygon points="689.23 1245.51 785.6 1265.89 720.73 1293.69 634.24 1286.28 645.98 1254.77 689.23 1245.51" style="fill:#baa68e"/></svg>