<svg xmlns="http://www.w3.org/2000/svg" xmlns:xlink="http://www.w3.org/1999/xlink" viewBox="0 0 1273.88 1183.72"><defs><clipPath id="a"><circle cx="683.48" cy="590.4" r="590.4" style="fill:#f2ecc2"/></clipPath></defs><title>data-driver</title><circle cx="683.48" cy="590.4" r="590.4" style="fill:#f2ecc2"/><g style="clip-path:url(#a)"><circle cx="560.4" cy="343.52" r="175" style="fill:#f7af3c;opacity:0.6000000000000001"/></g><polygon points="498.71 1109.33 564.11 1135.8 578.89 1183.72 534.62 1154.93 512.73 1147.63 498.71 1109.33" style="fill:#c18e5f"/><polygon points="464.41 843.32 484.44 1001.12 500.33 1115.55 562.17 1134.77 552.5 837.96 464.41 843.32" style="fill:#c49878"/><polygon points="850.78 586.6 841.49 626.11 855.08 616.7 842.76 665.9 872.48 640.14 845.52 691.43 876.28 672.99 820.78 721.32 881.5 709.6 827.96 756.32 893.91 728.92 850.15 785.67 930.03 711.03 919.86 756.86 957.6 688.65 927.23 651.24 850.78 586.6" style="fill:#f9b66b"/><polygon points="187.97 984.94 251.48 1015.68 263.06 1064.47 220.79 1032.82 199.43 1024.08 187.97 984.94" style="fill:#c18e5f"/><polygon points="110.3 677.61 96.31 812.23 155.61 966.05 221.47 1014.88 192.34 877.22 214.85 688.47 110.3 677.61" style="fill:#c49878"/><polygon points="914.13 478.82 955.87 467.23 990.24 470.8 965.63 498.65 942.12 502 914.13 478.82" style="fill:#dda56c"/><polygon points="63.42 459.93 200.21 397.42 279.48 386.83 429.6 432.83 586.19 472.26 747.6 451.39 879.57 449.17 951.07 485.55 960.63 532.87 983.27 607.61 983.58 674.23 944.8 699.16 888.95 693.35 875.83 659.97 855.75 608.84 839.19 628.83 791.61 668.76 741.02 709.83 681.43 781.82 604.26 841.84 548.68 875.15 527.7 965.62 514.98 1032.34 519.83 1111.02 526.14 1147.86 478.88 1142.95 438.94 1095.38 459.1 957.05 442.72 822.16 380.93 831.67 277.38 783.27 263.79 816.6 235.85 890.42 277.88 987.44 307.5 1036.84 309.56 1058.77 283.34 1060.39 221.47 1014.88 170.06 896.62 162.82 840.86 170.19 714.23 110.3 677.61 59.7 607.21 63.42 459.93" style="fill:#e8b689"/><polygon points="875.66 458.9 863.59 393.95 836.55 347.71 805.84 322.81 761.38 332.66 791.57 306.85 821.65 309.97 863.61 351.97 887.4 387.74 893.33 460.74 875.66 458.9" style="fill:#f9b66b"/><polygon points="929.07 476.03 947.03 421.44 951.79 375.61 925.42 333.78 893.35 317.42 859.48 318.25 899.54 302.14 935.88 321.84 969.39 368.75 964.33 417.44 946.32 482.07 929.07 476.03" style="fill:#f9b66b"/><polygon points="861.88 466.15 809.99 436.15 836.74 485.26 855.8 482.89 861.88 466.15" style="fill:#e59e57"/><polygon points="945.62 635.54 944.28 648.43 958.85 661.53 984.63 664.21 983.42 639.47 945.62 635.54" style="fill:#dda56c"/><polygon points="237.62 1026.69 307.79 1033.98 335.29 1075.92 284.77 1060.54 261.7 1059.59 237.62 1026.69" style="fill:#e59e57"/><polygon points="438.94 1095.38 521.51 1122.77 549 1164.71 498.48 1149.33 475.42 1148.38 438.94 1095.38" style="fill:#e59e57"/><polygon points="108.47 444.34 63.42 459.93 26.15 540.02 10.27 609.31 0 708.13 22.36 743.75 38.28 701.97 45.72 630.36 51.67 573.07 74.06 524.73 108.47 444.34" style="fill:#e8b689"/><ellipse cx="872.6" cy="523.52" rx="22.84" ry="22.34" transform="translate(-0.84 1.4) rotate(-0.09)" style="fill:#fff"/><ellipse cx="879.3" cy="513.06" rx="6.23" ry="6.09" transform="translate(-0.82 1.41) rotate(-0.09)" style="fill:#324915"/><polygon points="253.5 511.52 284.19 578.41 281.36 717.09 263.21 780.35 218.23 850.96 206.89 709.35 157.76 666.61 105.65 583.02 144.59 514.69 182.24 486.75 239.53 492.7 253.5 511.52" style="fill:#ddac85;opacity:0.5"/><polygon points="600.18 654.65 629.15 761.45 588.75 824.36 539.75 851.49 505.29 934.3 479.27 884.14 467.95 820.41 463.48 785.91 503.15 730.3 541.97 677.45 515.88 615.22 545.42 612.24 578.46 622.38 600.18 654.65" style="fill:#ddac85;opacity:0.5"/></svg>