<svg xmlns="http://www.w3.org/2000/svg" viewBox="0 0 1446.53 1357"><title>experimenter</title><g style="isolation:isolate"><circle cx="856.13" cy="706.52" r="590.4" style="fill:#ffa6b0"/><polygon points="502 1258.08 673 1245.62 606 1261.98 885 1261.59 620 1284.56 1001 1284.56 603 1297.42 845 1324.29 555 1305.59 631 1334.8 501 1306.76 393 1357 432 1303.26 87 1328.96 387 1291.57 0 1288.07 384 1273.66 63 1257.69 384 1262.37 276 1239 443 1255.36 450 1239 502 1258.08" style="fill:#565656"/><polygon points="1149.18 988.8 1223.23 870.34 1291.35 846.64 1352.51 811.28 1392.89 762.87 1392.89 679.52 1349.73 595.74 1309.12 540.32 1311.65 462.47 1380.2 366 1408.12 366 1408.12 396.46 1367.5 449.77 1348.16 479.04 1349.73 516.62 1370.04 560.2 1408.12 618.17 1436.05 691.79 1436.05 762.87 1397.97 831.41 1337.89 877.95 1250.73 905.03 1212.65 953.26 1177.11 1021.8 1149.18 988.8" style="fill:#bcbccc"/><polygon points="796.8 1120.27 732.66 1161.3 720.5 1193.27 749.34 1207.87 824.75 1195.36 889.73 1164.08 898.41 1134.89 796.8 1120.27" style="fill:#9a9aa8"/><polygon points="1015.97 1147.55 983.88 1210.33 988.52 1235.81 1067.61 1226.13 1121.19 1172.38 1108.26 1114.56 1102.13 1092.8 1015.97 1147.55" style="fill:#aaaaba"/><rect x="636.93" y="353.79" width="10.42" height="108.63" transform="translate(-113.52 319.43) rotate(-25.74)" style="fill:#484859"/><polygon points="829.61 413.85 940.01 454.68 999.53 495.51 1003.01 1115.43 960.96 1161.3 815.02 1142.54 739.96 1063.31 754.55 519.14 829.61 413.85" style="fill:#dfdfe8"/><polygon points="1124.91 413.85 1004.15 454.68 939.05 495.51 935.25 1115.43 981.24 1161.3 1140.87 1142.54 1222.97 1063.31 1207.01 519.14 1124.91 413.85" style="fill:#f3f3ff"/><polygon points="607.22 483.82 615.35 438.26 670.67 413.85 708.1 441.51 708.1 475.68 689.39 504.97 657.66 516.36 607.22 483.82" style="fill:#7f7f87"/><rect x="680.35" y="172.35" width="187.32" height="13.9" transform="translate(-20.48 173.78) rotate(-12.64)" style="fill:#484859"/><polygon points="847.42 214.99 804.62 146.19 796.8 93.05 818.5 44 863.17 59.25 905.19 109.83 953.87 188.08 936.88 217.35 847.42 214.99" style="fill:#a1a1af"/><polygon points="933.16 380.84 791.39 410.03 707.29 411.42 661.42 385.01 661.42 351.65 666.99 312.04 710.77 246.01 778.53 172.35 848.72 137.6 953.32 137.6 1075.63 157.06 1125.67 205.71 1136.79 322.46 1143.74 455.55 1065.9 492.04 918.57 519.84 801.81 533.74 808.07 402.04 933.16 380.84" style="fill:#cdcde0"/><circle cx="748.91" cy="251.74" r="11.62" style="fill:#324915"/><circle cx="892.38" cy="252.92" r="11.62" style="fill:#324915"/><path d="M1046.24,177.93,1041.09,166l-86.85,32H683V237.6l33,34.82h61.91l30.83-28.13V210.8h19.55v27l36.95,34.59h68.59l34.5-27.9v-37.9Zm-251.47,61-22.64,20.65H722.24l-25.37-26.8v-22h97.9Zm159.59-.23-25.83,20.88H871l-28.86-27V210.8H954.36Z" style="fill:#484859"/><polygon points="1012.09 195.76 1029.74 115.37 1064.37 71.76 1120.43 52.67 1145.83 96.25 1141.65 163.07 1121.59 254.49 1084.77 262.93 1012.09 195.76" style="fill:#cdcde0"/><polygon points="655.17 367.63 664.9 346.44 694.09 346.44 706.95 367.63 706.95 389.88 681.06 396.82 659.34 392.65 655.17 367.63" style="fill:#484859"/><polygon points="1051.17 202.52 1067.75 126.99 1101.69 95.52 1124.15 116.38 1100.44 224.39 1051.17 202.52" style="fill:#e1e1ef"/><polygon points="961.78 490.13 923.38 551.8 845.41 504.55 784.44 451.9 797.23 428.45 880.91 469.1 961.78 490.13" style="fill:#fff"/><polygon points="808.67 421.15 947.76 370.76 1006.13 430.88 1096.48 480.92 1052 496.21 801.81 533.74 808.67 421.15" style="fill:#c3c3d1"/><polygon points="1010.17 530.69 947.5 580 963.09 483.31 1010.17 530.69" style="fill:#d7d7e0"/><polygon points="985.29 804.78 970.12 803.24 963.87 789.35 972.78 776.98 987.94 778.51 994.2 792.41 985.29 804.78" style="fill:#cacae5"/><polygon points="630.85 453.81 935.16 453.81 999.88 781.84 714.59 781.84 630.85 453.81" style="fill:#5f5f6b"/><polygon points="630.85 453.81 614.17 480.22 614.17 521.92 640.58 570.57 656.56 605.32 689.92 688.72 698.95 740.14 689.92 769.33 979.73 769.33 986.68 734.59 982.97 696.14 956.44 659.53 928.3 595.59 903.97 545.55 903.28 505.24 903.97 467.71 935.25 453.81 630.85 453.81" style="fill:#fff"/><polygon points="919.85 681.54 927.98 635.98 983.31 611.57 1020.73 639.23 1020.73 673.4 1002.02 702.69 970.29 714.08 919.85 681.54" style="fill:#a9a9bf"/><polygon points="963.34 482.48 1005.44 544.16 1090.92 496.9 1157.77 444.26 1143.74 420.8 1052 461.46 963.34 482.48" style="fill:#fff"/><polygon points="1002.21 663.62 1097.38 653.78 1137.6 684.98 1136.8 722.33 1028.34 705.72 992.17 695.83 1002.21 663.62" style="fill:#a9a9bf"/><polygon points="1097.38 653.78 1137.6 684.98 1136.8 722.33 1098.02 716.93 1133.94 753.05 1189.45 732.58 1177.71 659.46 1122.18 635.19 1097.38 653.78" style="fill:#fff"/><polygon points="985.29 1093.19 970.12 1091.66 963.87 1077.76 972.78 1065.39 987.94 1066.93 994.2 1080.83 985.29 1093.19" style="fill:#cacae5"/><polygon points="985.29 990.34 970.12 988.8 963.87 974.9 972.78 962.54 987.94 964.07 994.2 977.97 985.29 990.34" style="fill:#cacae5"/><polygon points="985.29 892.35 970.12 890.81 963.87 876.91 972.78 864.55 987.94 866.08 994.2 879.98 985.29 892.35" style="fill:#cacae5"/><polygon points="985.29 622 970.12 620.47 963.87 606.57 972.78 594.2 987.94 595.73 994.2 609.63 985.29 622" style="fill:#cacae5"/><polygon points="1208.37 516.36 1235.48 714.08 1189.61 732.5 1208.37 516.36" style="fill:#f3f3ff"/><polygon points="471.96 1288 426.04 1190.63 399.49 1082.19 421.06 869.73 462.55 750.23 435.45 624.08 399.49 522.28 358 424.91 382.89 199.18 436 104.01 426.04 0 458.68 79.67 471.96 164.87 436 252.29 414.98 362.94 471.96 453.68 514 542.2 458.68 641.79 392.85 761.29 377.92 922.85 471.96 979.28 485.23 1102.1 462.55 1168.49 471.96 1288" style="fill:#484859;opacity:0.25"/><g style="opacity:0.4;mix-blend-mode:color"><path d="M1213,723.11l22.49-9-27.11-197.72-1.08,12.49-.29-9.71-54.9-70.42,5.67-4.46-14-23.46-1.77.79-5.18-99.13-9.11-95.72,14-63.67,4.18-66.82-25.4-43.58-56.06,19.09-34.63,43.61-7.29,33.23-69.13-11H922.47l-17.28-27.77-42-50.58L818.5,44,796.8,93.05l7.82,53.14,6.3,10.12-28,13.87L681.1,193l1.87,8.33V237.6l19.63,20.74L667,312l-5.56,39.61V354l-6.26,13.63,4.17,25,21.72,4.17.6-.16,25.63,14.76,84.1-1.39,16.46-3.39L806.6,433l-9.37-4.55L784.44,451.9l2.21,1.91H708.1L630,452l-16,28,.17,41.92,26.41,48.65,16,34.75,33.36,83.4,9,51.42-9,29.19H711.4l3.19,12.51h32.92L740,1063.31l55,58.11-62.35,39.88-12.16,32,28.84,14.6,75.41-12.51,65-31.28,3.42-11.5L961,1161.3l9.69-10.56,10.59,10.56,29.47-3.46-26.83,52.49,4.65,25.48,79.08-9.68,53.58-53.75-6-26.82,25.68-3,82.1-79.23ZM755,198H722.56l40.83-9.16Zm-58.1,34.82v-22h46.29L710.77,246l-.57.86Z" style="fill:#47e2bd"/></g><polygon points="1108 1120 1177 1022 1031 1087 1149 989 1010 1022 1144 865 984 947 1158 791 962 904 1061 769 962 820 1000 782 992 694 935.25 753.05 963 640 892 742 928 635 849 707 892 574 800 663 856 544 774 593 850 490 784 534 866.92 454 935 454 1012 408 920 436 1010 357 881 408 1021 305 835 346 912.59 272.42 774 336 836.1 251.74 737 319 774 263 691 319 723.6 241.3 670 311 671.19 305.7 666.99 312.04 661.42 351.65 661.42 354.01 655.17 367.63 659.34 392.65 681.06 396.82 681.66 396.66 707.29 411.42 791.39 410.03 807.85 406.64 806.6 433 797.23 428.45 784.44 451.9 786.65 453.81 708.1 453.81 632 453 614 480 614.17 521.92 640.58 570.57 656.56 605.32 689.92 688.72 698.95 740.14 689.92 769.33 711.4 769.33 714.59 781.84 747.51 781.84 739.96 1063.31 795.01 1121.42 732.66 1161.3 720.5 1193.27 749.34 1207.87 824.75 1195.36 889.73 1164.08 893.15 1152.58 960.96 1161.3 970.64 1150.74 981.24 1161.3 1010.71 1157.84 983.88 1210.33 988.52 1235.81 1067.61 1226.13 1121.19 1172.38 1115.19 1145.56 1140.87 1142.54 1181.18 1103.64 1199 1042 1108 1120" style="fill-opacity:0.15"/></g></svg>