<?xml version="1.0" encoding="utf-8"?>
<!-- Generator: Adobe Illustrator 21.1.0, SVG Export Plug-In . SVG Version: 6.00 Build 0)  -->
<svg version="1.1" id="Layer_1" xmlns="http://www.w3.org/2000/svg" xmlns:xlink="http://www.w3.org/1999/xlink" x="0px" y="0px"
	 viewBox="0 0 54 54" style="enable-background:new 0 0 54 54;" xml:space="preserve">
<style type="text/css">
	.st0{fill:none;}
</style>
<g>
	<rect x="-0.2" y="0.1" class="st0" width="53.8" height="53.4"/>
	<path style="fill:#9740B0" d="M40,4.8c2.2,0,4.1,0.8,5.7,2.4c1.6,1.6,2.4,3.5,2.4,5.7v26.8c0,2.2-0.8,4.1-2.4,5.7c-1.6,1.6-3.5,2.4-5.7,2.4h-5.2V31.1
		h5.6l0.8-6.5h-6.4v-4.1c0-1,0.2-1.8,0.7-2.3c0.4-0.5,1.3-0.8,2.6-0.8l3.4,0v-5.8c-1.2-0.2-2.8-0.3-5-0.3c-2.5,0-4.6,0.7-6.1,2.2
		c-1.5,1.5-2.3,3.6-2.3,6.3v4.8h-5.6v6.5h5.6v16.6H13.3c-2.2,0-4.1-0.8-5.7-2.4c-1.6-1.6-2.4-3.5-2.4-5.7V12.9
		c0-2.2,0.8-4.1,2.4-5.7c1.6-1.6,3.5-2.4,5.7-2.4H40z"/>
</g>
</svg>
