<svg xmlns="http://www.w3.org/2000/svg" viewBox="0 0 1571.5 1180.8"><title>fortune-teller</title><g style="isolation:isolate"><circle cx="705.63" cy="590.4" r="590.4" style="fill:#d9e89e"/><polygon points="913.62 782.85 973.59 808.11 1052.96 818.75 1137.62 818.75 1227.57 863.96 1308.7 900.19 1333.39 958.1 1277.84 1015.6 1167.6 1047.44 1141.14 1082.08 1188.77 1119.8 1254.03 1133.1 1178.18 1149.05 1105.87 1119.8 1056.48 1082.08 1052.96 1043.45 1107.63 1002.24 1197.59 977.88 1216.11 945.55 1187 938.42 1145.75 930.43 1058.25 904.51 978.88 873.26 913.62 857.31 844.84 850.66 802.51 822.74 913.62 782.85" style="fill:#a66fbf"/><polygon points="1040.83 795.16 1148.2 820.74 1239.91 833.96 1363.38 823.38 1384.54 774 1363.38 735.19 1312.23 735.19 1289.3 715.79 1325.02 708.74 1384.54 699.92 1426.87 684.04 1363.38 671.7 1308.7 671.7 1233.74 689.34 1204.64 715.79 1220.51 742.25 1252.26 752.83 1262.84 766.94 1245.21 786.34 1181.71 781.05 1126.15 765.18 1089.12 729.9 1040.83 795.16" style="fill:#9661af"/><polygon points="160.5 811.03 37.04 811.03 0 768.71 21.16 745.78 60.41 721.52 28.22 696.39 0 696.39 30.43 672.14 60.41 664.64 97.01 682.28 126.99 731.67 111.12 754.6 134.04 751.07 178.14 747.54 178.14 811.03 160.5 811.03" style="fill:#a667bf"/><polygon points="493.85 613.5 520.31 455.2 585.57 371.86 760.62 269.56 907.01 269.56 1119.98 330.41 1188.77 468.43 1225.81 599.83 1199.35 680.52 1114.69 827.79 964.77 869.24 821.91 878.06 733.72 878.06 709.03 975.06 597.91 1018.72 402.13 1018.72 246.93 959.19 160.5 839.25 196.22 721.52 241.63 682.28 232.81 756.36 222.23 827.79 305.13 906.72 442.7 944.64 555.58 927 597.91 874.53 599.67 849.84 365.1 837.49 308.66 789.87 321.44 721.52 395.08 643.92 493.85 613.5" style="fill:#ae6dc9"/><polygon points="573.22 743.63 692.93 752.61 802.28 737.62 882.98 682.06 928.83 630.47 972.05 566.98 982.81 526.81 1002.03 586.38 1012.61 696.17 945.59 865.93 747.83 878.39 606.95 869.46 524.28 846.39 573.22 743.63" style="fill:#a166bc"/><line x1="79.15" y1="166.6" x2="78.93" y2="166.38" style="fill:none;stroke:#331800;stroke-miterlimit:10"/><polygon points="400.69 518.98 328.18 518.98 260.04 543.78 204.5 590.39 168.24 653.19 155.65 724.6 168.24 796 204.5 858.8 260.04 905.41 328.18 930.21 400.69 930.21 468.83 905.41 524.37 858.8 560.63 796 573.22 724.6 560.63 653.19 524.37 590.39 468.83 543.78 400.69 518.98" style="fill:#eaf2d1"/><polygon points="391.53 570.94 337.34 570.94 286.42 589.48 244.91 624.31 217.82 671.23 208.41 724.6 217.82 777.96 244.91 824.88 286.42 859.71 337.34 878.25 391.53 878.25 442.44 859.71 483.95 824.88 511.05 777.96 520.46 724.6 511.05 671.23 483.95 624.31 442.44 589.48 391.53 570.94" style="fill:#f3f9d9"/><polygon points="381.74 626.46 347.13 626.46 314.61 638.29 288.1 660.54 270.79 690.51 264.78 724.6 270.79 758.68 288.1 788.65 314.61 810.9 347.13 822.73 381.74 822.73 414.26 810.9 440.77 788.65 458.08 758.68 464.09 724.6 458.08 690.51 440.77 660.54 414.26 638.29 381.74 626.46" style="fill:#fdffee"/><polygon points="400.69 518.98 328.18 518.98 260.04 543.78 204.5 590.39 168.24 653.19 155.65 724.6 168.24 796 204.5 858.8 260.04 905.41 328.18 930.21 400.69 930.21 468.83 905.41 524.37 858.8 560.63 796 573.22 724.6 560.63 653.19 524.37 590.39 468.83 543.78 400.69 518.98" style="fill:#45dff4;mix-blend-mode:color"/><polygon points="400.69 518.98 328.18 518.98 260.04 543.78 204.5 590.39 168.24 653.19 155.65 724.6 168.24 796 204.5 858.8 260.04 905.41 328.18 930.21 400.69 930.21 468.83 905.41 524.37 858.8 560.63 796 573.22 724.6 560.63 653.19 524.37 590.39 468.83 543.78 400.69 518.98" style="fill:#45dff4;opacity:0.2"/><polygon points="807.8 768.71 760.18 799.49 747.83 859.79 777.81 907.25 851.89 961.13 1010.63 988.07 1125.27 979.09 1225.81 934.19 1248.73 869.09 1315.76 846.96 1370.43 869.09 1500.95 863.63 1571.5 831.56 1571.5 799.49 1513.3 777.68 1515.06 802.06 1476.26 812.32 1407.47 813.6 1319.28 791.8 1241.68 793.08 1181.71 836.7 1146.44 877.27 1077.65 915.11 963.01 907.41 874.82 877.27 850.13 861.07 851.89 825.15 807.8 768.71" style="fill:#b772ce"/><polygon points="204.15 529.72 294.55 466.22 379.65 458.29 433.88 479.01 473.13 553.97 465.63 653.62 437.41 731.67 421.54 653.62 410.95 568.96 361.57 529.72 294.99 542.5 233.03 571.38 188.5 627.83 155.87 724.39 146.39 653.62 204.15 529.72" style="fill:#b772ce"/><polyline points="232.81 756.36 222.23 827.79 305.13 906.72 442.7 944.64 555.58 927 597.91 1018.72 402.13 1018.72 246.93 959.19 160.5 839.25 196.22 721.52 241.63 682.28 232.81 756.36" style="fill:#b772ce"/><circle cx="760.08" cy="628.96" r="42.65" style="fill:#fff"/><circle cx="736.33" cy="642.09" r="11.63" style="fill:#324915"/><circle cx="555.24" cy="543.21" r="42.65" style="fill:#fff"/><circle cx="535.91" cy="566.95" r="11.63" style="fill:#324915"/><polygon points="693.15 313.88 876.8 380.9 966.75 481.43 1002.03 586.38 1012.61 698.38 973.37 810.81 945.59 865.93 964.55 865.93 1114.47 833.74 1144.89 798.91 1199.13 682.06 1225.59 594.75 1188.55 468.21 1119.76 330.19 906.79 269.34 759.96 269.34 693.15 313.88" style="fill:#b7489d"/><polygon points="906.79 269.34 876.8 380.9 692.93 313.88 759.96 269.34 906.79 269.34" style="fill:#a84395"/><polygon points="891.79 325.12 1119.76 330.19 1188.55 468.21 1002.03 586.38 966.75 481.43 876.8 380.9 891.79 325.12" style="fill:#99458d"/><polygon points="1096.05 526.81 1225.59 594.75 1199.13 682.06 1144.89 798.91 1114.47 833.74 943.83 869.9 1012.61 696.17 1002.03 586.38 1096.05 526.81" style="fill:#913c89"/><polygon points="802.06 384.46 802.06 311.28 861.39 285.57 972.15 295.46 1001.81 352.32 928.64 396.33 802.06 384.46" style="fill:#913c89"/><polygon points="976.1 307.86 954.07 265.64 871.83 258.3 827.77 277.39 827.77 299.14 827.77 331.73 827.77 353.48 921.76 362.29 976.1 329.62 967.46 313.06 976.1 307.86" style="fill:#45abff"/><polygon points="976.1 307.33 976.1 330.07 947.42 330.07 967.2 307.33 976.1 307.33" style="fill:#45abff"/><polygon points="827.77 277.66 885.13 277.66 872.27 257.88 827.77 277.66" style="fill:#8ecbf4"/><polygon points="954.35 265.8 901.94 281.62 976.1 307.33 954.35 265.8" style="fill:#b7e2f9"/><polygon points="829.75 307.33 888.59 285.57 885.13 307.33 829.75 307.33" style="fill:#c7e9f9"/><polygon points="827.77 353.81 920.23 325.13 920.73 362.71 827.77 353.81" style="fill:#3fa5ea"/><polygon points="555.36 927.22 584.61 865.93 618.86 817.87 683.67 783.03 717.63 817.87 733.72 878.06 709.25 977.05 597.69 1018.5 555.36 938.1 555.36 927.22" style="fill:#b772ce"/><path d="M1513.3,777.68l1.76,24.38-38.8,10.26-68.79,1.28-36.08-8.92L1384.54,774l-21.16-38.81h-51.15l-22.93-19.4,35.72-7,59.52-8.82L1426.87,684l-63.49-12.34H1308.7l-75,17.64-29.1,26.45,15.87,26.46,31.75,10.58,10.58,14.11-17.63,19.4-63.5-5.29-25.19-7.2,42.61-91.79,3.48-11.49,23.2-70.74-.85-3,.62-2.06-32.75-111.9-4.06-14.43-68.79-138-.13,0-.09-.19-213-60.85H760l-7.58,5L585.56,371.86,520.31,455.2,501,570.77l-32.16-27-1.28-.46L433.88,479l-54.23-20.73-85.1,7.94-90.4,63.5-57.76,123.9,9.4,70.18-.14.8L160,749,134,751.07l-22.92,3.52L127,731.67,97,682.28l-36.6-17.64-30,7.5L0,696.39H28.22l32.19,25.13L21.17,745.78,0,768.7,37,811h132l-8.56,28.22,86.42,119.94,155.21,59.53H597.91l14.19-5.58,97.15-36.09,24.47-99h8.89l5.22.33,5.25-.33h6.29l18.44,29.19,74.08,53.88,158.74,26.94,114.64-9,80.68-36,10.15,2.49-18.52,32.33-89.95,24.36L1053,1043.45l3.53,38.63,49.38,37.72,72.31,29.25,75.85-16-65.26-13.29-47.62-37.72,26.45-34.64,110.24-31.84,55.55-57.5-24.69-57.91-61.28-27.37,1.31-3.73,67-22.13,54.67,22.13L1501,863.63l70.55-32.07V799.49Zm-318.82,49.73-12.77,9.29-2.55,2.93-41.54-20.88h-10.06l2.12-2.43,18.52,4.41ZM390.34,930.21h10.35l68.14-24.8,55.54-46.61,6.16-10.67,55.69,15.54-1.61,2.26L555.46,927,442.7,944.64ZM963,907.41l-88.19-30.14L871.37,875l91.52-5.65,16,3.91,79.37,31.25,25.13,7.45-5.73,3.15Z" style="fill:#ddd;opacity:0.1;mix-blend-mode:saturation"/></g></svg>