<svg xmlns="http://www.w3.org/2000/svg" viewBox="0 0 1914.41 1438.51"><title>number-cruncher</title><g style="isolation:isolate"><g style="opacity:0.6000000000000001;mix-blend-mode:color"><circle cx="1027.23" cy="848.11" r="590.4" style="fill:#f9c2cb"/><polygon points="1847.8 869.9 1863.64 856.37 1863.28 841.96 1846.95 835.59 1831.49 841.9 1831.9 858.43 1847.8 869.9" style="fill:#708744"/><polygon points="1865.85 843.1 1859.36 847.95 1847.86 850.75 1837.74 848.49 1828.55 843.18 1834.89 834.98 1847.35 830.14 1859.02 834.38 1865.85 843.1" style="fill:#81965f"/><polygon points="1836.77 894.89 1852.6 881.36 1852.25 866.96 1835.91 860.58 1820.45 866.9 1820.86 883.42 1836.77 894.89" style="fill:#708744"/><polygon points="1854.82 868.1 1848.32 872.94 1836.82 875.74 1826.7 873.48 1817.52 868.17 1823.85 859.97 1836.31 855.13 1847.98 859.37 1854.82 868.1" style="fill:#81965f"/><polygon points="1858.84 894.91 1874.68 881.38 1874.32 866.98 1857.99 860.6 1842.53 866.92 1842.94 883.44 1858.84 894.91" style="fill:#708744"/><polygon points="1876.89 868.12 1870.39 872.97 1858.89 875.77 1848.78 873.5 1839.59 868.2 1845.93 859.99 1858.38 855.15 1870.06 859.39 1876.89 868.12" style="fill:#81965f"/><polygon points="1823.52 922.82 1839.36 909.29 1839 894.89 1822.67 888.51 1807.21 894.83 1807.62 911.35 1823.52 922.82" style="fill:#708744"/><polygon points="1841.58 896.03 1835.08 900.87 1823.58 903.67 1813.46 901.41 1804.28 896.11 1810.61 887.9 1823.07 883.06 1834.74 887.3 1841.58 896.03" style="fill:#81965f"/><polygon points="1847.8 922.85 1863.64 909.32 1863.28 894.91 1846.95 888.54 1831.49 894.86 1831.9 911.38 1847.8 922.85" style="fill:#708744"/><polygon points="1865.85 896.05 1859.36 900.9 1847.86 903.7 1837.74 901.44 1828.55 896.13 1834.89 887.93 1847.35 883.09 1859.02 887.33 1865.85 896.05" style="fill:#81965f"/><polygon points="1869.87 922.87 1885.71 909.34 1885.36 894.94 1869.02 888.56 1853.56 894.88 1853.97 911.4 1869.87 922.87" style="fill:#708744"/><polygon points="1887.93 896.08 1881.43 900.92 1869.93 903.72 1859.81 901.46 1850.63 896.15 1856.96 887.95 1869.42 883.11 1881.09 887.35 1887.93 896.08" style="fill:#81965f"/><polygon points="1812.51 947.86 1828.33 934.31 1827.96 919.91 1811.62 913.55 1796.17 919.89 1796.59 936.41 1812.51 947.86" style="fill:#708744"/><polygon points="1830.53 921.05 1824.04 925.9 1812.54 928.71 1802.42 926.46 1793.23 921.17 1799.56 912.95 1812.01 908.1 1823.69 912.33 1830.53 921.05" style="fill:#81965f"/><polygon points="1837.52 947.86 1853.35 934.31 1852.97 919.91 1836.63 913.55 1821.18 919.89 1821.61 936.41 1837.52 947.86" style="fill:#708744"/><polygon points="1855.55 921.05 1849.05 925.9 1837.56 928.71 1827.44 926.46 1818.25 921.17 1824.57 912.95 1837.02 908.1 1848.7 912.33 1855.55 921.05" style="fill:#81965f"/><polygon points="1861.8 947.86 1877.63 934.31 1877.25 919.91 1860.91 913.55 1845.46 919.89 1845.89 936.41 1861.8 947.86" style="fill:#708744"/><polygon points="1879.83 921.05 1873.33 925.9 1861.84 928.71 1851.72 926.46 1842.53 921.17 1848.85 912.95 1861.3 908.1 1872.98 912.33 1879.83 921.05" style="fill:#81965f"/><polygon points="1883.88 947.86 1899.7 934.31 1899.33 919.91 1882.99 913.55 1867.53 919.89 1867.96 936.41 1883.88 947.86" style="fill:#708744"/><polygon points="1901.9 921.05 1895.4 925.9 1883.91 928.71 1873.79 926.46 1864.6 921.17 1870.92 912.95 1883.38 908.1 1895.05 912.33 1901.9 921.05" style="fill:#81965f"/><polygon points="1799.26 977.29 1815.09 963.74 1814.71 949.34 1798.38 942.98 1782.92 949.32 1783.35 965.84 1799.26 977.29" style="fill:#708744"/><polygon points="1817.29 950.48 1810.8 955.33 1799.3 958.14 1789.18 955.89 1779.99 950.6 1786.32 942.38 1798.77 937.53 1810.44 941.76 1817.29 950.48" style="fill:#81965f"/><polygon points="1825.02 977.29 1840.84 963.74 1840.47 949.34 1824.13 942.98 1808.67 949.32 1809.1 965.84 1825.02 977.29" style="fill:#708744"/><polygon points="1843.04 950.48 1836.55 955.33 1825.05 958.14 1814.93 955.89 1805.74 950.6 1812.07 942.38 1824.52 937.53 1836.19 941.76 1843.04 950.48" style="fill:#81965f"/><polygon points="1850.03 977.29 1865.85 963.74 1865.48 949.34 1849.14 942.98 1833.69 949.32 1834.12 965.84 1850.03 977.29" style="fill:#708744"/><polygon points="1868.05 950.48 1861.56 955.33 1850.07 958.14 1839.95 955.89 1830.75 950.6 1837.08 942.38 1849.53 937.53 1861.21 941.76 1868.05 950.48" style="fill:#81965f"/><polygon points="1874.31 977.29 1890.13 963.74 1889.76 949.34 1873.42 942.98 1857.97 949.32 1858.4 965.84 1874.31 977.29" style="fill:#708744"/><polygon points="1892.33 950.48 1885.84 955.33 1874.34 958.14 1864.22 955.89 1855.03 950.6 1861.36 942.38 1873.81 937.53 1885.49 941.76 1892.33 950.48" style="fill:#81965f"/><polygon points="1896.38 977.29 1912.21 963.74 1911.83 949.34 1895.49 942.98 1880.04 949.32 1880.47 965.84 1896.38 977.29" style="fill:#708744"/><polygon points="1914.41 950.48 1907.91 955.33 1896.42 958.14 1886.3 955.89 1877.11 950.6 1883.43 942.38 1895.88 937.53 1907.56 941.76 1914.41 950.48" style="fill:#81965f"/><polyline points="744.69 690.31 697.94 712.31 667.69 721.94 644.32 754.93 633.32 779.68 646.83 834.28 713.07 842.93 740.57 728.81" style="fill:#7c8c54"/><polygon points="975.59 1097.12 926.58 1143.67 880.21 1137.66 865.14 1082.8 890.75 1035.04 943.93 1041.94 975.59 1097.12" style="fill:#637f3b"/><polygon points="883.03 1146.34 900.86 1127.01 913.78 1090.84 909.88 1057.43 895.86 1026 867.24 1043.67 847.43 1082.24 857.17 1121.34 883.03 1146.34" style="fill:#7b935a"/><polygon points="893.53 1028.64 865.79 1092.02 819.67 1104.76 783.66 1059.01 788.84 1003.79 841.74 989.17 893.53 1028.64" style="fill:#637f3b"/><polygon points="825.77 1111.84 834.91 1086.52 832.73 1047.27 815.78 1017.31 790.07 993.23 770.1 1021.27 766.74 1065.51 791.45 1098.53 825.77 1111.84" style="fill:#7b935a"/><polygon points="707.68 987.45 713.92 920.14 752.77 894.14 800.24 925.5 812.42 978.31 767.86 1008.13 707.68 987.45" style="fill:#637f3b"/><polygon points="744.94 889.45 744.25 915.75 758.35 951.47 783.28 974.05 814.53 988.48 824.42 956.33 813.94 914.26 780.86 891.24 744.94 889.45" style="fill:#7b935a"/><polygon points="796.64 913.36 859.36 888.16 900.24 910.84 894.02 967.39 852.62 1002.35 805.72 976.34 796.64 913.36" style="fill:#637f3b"/><polygon points="900.83 901.74 877.12 913.13 851.78 941.99 843.09 974.48 844.53 1008.87 877.65 1002.99 910.28 974.45 915.65 934.51 900.83 901.74" style="fill:#7b935a"/><polygon points="966.42 884.51 984.76 949.57 957.84 987.79 902.27 975.56 871.95 930.64 902.84 886.81 966.42 884.51" style="fill:#637f3b"/><polygon points="841.95 1019.25 890.96 972.7 937.32 978.71 952.39 1033.57 926.79 1081.33 873.61 1074.43 841.95 1019.25" style="fill:#637f3b"/><polygon points="934.51 970.03 916.68 989.36 903.76 1025.53 907.66 1058.94 921.68 1090.37 950.29 1072.7 970.1 1034.13 960.37 995.03 934.51 970.03" style="fill:#7b935a"/><polygon points="647.88 982.49 711.77 960.41 751.48 985.07 742.49 1041.25 699.41 1074.13 653.86 1045.84 647.88 982.49" style="fill:#637f3b"/><polygon points="752.52 976 728.28 986.22 701.55 1013.8 691.27 1045.83 691.02 1080.24 724.39 1076 758.38 1049.09 765.71 1009.47 752.52 976" style="fill:#7b935a"/><polygon points="1149.8 1060.23 1122.06 996.85 1075.94 984.11 1039.93 1029.86 1045.11 1085.08 1098.01 1099.7 1149.8 1060.23" style="fill:#637f3b"/><polygon points="1082.04 977.03 1091.18 1002.36 1088.99 1041.6 1072.05 1071.56 1046.34 1095.64 1026.37 1067.6 1023 1023.36 1047.72 990.34 1082.04 977.03" style="fill:#7b935a"/><polygon points="1103.92 925.74 1041.2 900.54 1000.32 923.22 1006.54 979.77 1047.95 1014.73 1094.84 988.71 1103.92 925.74" style="fill:#637f3b"/><polygon points="999.73 914.11 1023.44 925.51 1048.78 954.37 1057.47 986.86 1056.03 1021.25 1022.91 1015.37 990.28 986.82 984.91 946.88 999.73 914.11" style="fill:#7b935a"/><polygon points="934.14 896.88 915.8 961.95 942.73 1000.16 998.29 987.93 1028.61 943.02 997.73 899.18 934.14 896.88" style="fill:#637f3b"/><polygon points="933.73 1001.72 942.53 976.93 968.51 948.65 999.88 936.53 1034.23 934.28 1031.92 967.84 1007.04 1003.34 967.9 1012.95 933.73 1001.72" style="fill:#7b935a"/><polygon points="1058.62 1031.62 1009.6 985.07 963.24 991.09 948.17 1045.94 973.77 1093.71 1026.95 1086.81 1058.62 1031.62" style="fill:#637f3b"/><polygon points="966.05 982.4 983.88 1001.74 996.8 1037.9 992.9 1071.32 978.88 1102.75 950.26 1085.07 930.46 1046.51 940.19 1007.4 966.05 982.4" style="fill:#7b935a"/><polygon points="1252.68 994.87 1188.79 972.78 1149.08 997.45 1158.07 1053.63 1201.15 1086.5 1246.7 1058.21 1252.68 994.87" style="fill:#637f3b"/><polygon points="1148.04 988.38 1172.28 998.6 1199.01 1026.18 1209.29 1058.2 1209.54 1092.62 1176.17 1088.37 1142.18 1061.47 1134.86 1021.84 1148.04 988.38" style="fill:#7b935a"/><polygon points="904.48 878.02 881.46 941.58 837.31 956.95 799.29 914.62 800.82 860.45 851.47 842.83 904.48 878.02" style="fill:#637f3b"/><polygon points="843.71 963.46 851.01 938.18 846.38 900.06 827.95 871.92 801.35 850.08 783.66 878.69 783.2 922.04 809.4 952.66 843.71 963.46" style="fill:#7b935a"/><polygon points="484.94 990.2 491.18 922.89 530.03 896.89 577.49 928.25 589.67 981.06 545.11 1010.88 484.94 990.2" style="fill:#637f3b"/><polygon points="522.19 892.2 521.5 918.5 535.6 954.22 560.53 976.8 591.78 991.23 601.68 959.08 591.19 917.01 558.12 893.99 522.19 892.2" style="fill:#7b935a"/><polygon points="528.02 1050.61 555.76 987.23 601.87 974.48 637.88 1020.24 632.7 1075.46 579.81 1090.08 528.02 1050.61" style="fill:#637f3b"/><polygon points="595.77 967.41 586.63 992.73 588.82 1031.97 605.76 1061.94 631.48 1086.02 651.45 1057.97 654.81 1013.73 630.09 980.72 595.77 967.41" style="fill:#7b935a"/><polygon points="573.89 916.11 636.62 890.91 677.49 913.59 671.28 970.14 629.87 1005.1 582.98 979.09 573.89 916.11" style="fill:#637f3b"/><polygon points="743.67 887.26 762.01 952.32 735.09 990.54 679.53 978.31 649.2 933.39 680.09 889.56 743.67 887.26" style="fill:#637f3b"/><polygon points="744.08 992.1 735.29 967.31 709.31 939.03 677.93 926.9 643.58 924.66 645.89 958.22 670.78 993.71 709.91 1003.32 744.08 992.1" style="fill:#7b935a"/><polygon points="639.82 1186.99 688.84 1140.45 735.2 1146.46 750.27 1201.32 724.67 1249.08 671.49 1242.18 639.82 1186.99" style="fill:#637f3b"/><polygon points="732.39 1137.77 714.56 1157.11 701.64 1193.28 705.53 1226.69 719.56 1258.12 748.17 1240.44 767.98 1201.88 758.25 1162.78 732.39 1137.77" style="fill:#7b935a"/><polygon points="425.13 985.24 489.02 963.16 528.74 987.82 519.75 1044 476.67 1076.88 431.11 1048.59 425.13 985.24" style="fill:#637f3b"/><polygon points="529.77 978.75 505.53 988.97 478.81 1016.55 468.52 1048.58 468.27 1082.99 501.64 1078.75 535.63 1051.84 542.96 1012.22 529.77 978.75" style="fill:#7b935a"/><polygon points="681.73 880.77 658.72 944.33 614.56 959.7 576.54 917.37 578.08 863.2 628.72 845.58 681.73 880.77" style="fill:#637f3b"/><polygon points="620.96 966.21 628.26 940.93 623.63 902.81 605.21 874.67 578.6 852.83 560.92 881.44 560.45 924.79 586.65 955.41 620.96 966.21" style="fill:#7b935a"/><polygon points="878.03 808.71 835.2 863.03 787.36 863.74 764.06 810.38 783 758.25 837.87 757.45 878.03 808.71" style="fill:#637f3b"/><polygon points="791.48 872.12 806.71 849.92 814.49 811.4 805.65 778.13 786.85 748.34 760.45 770.44 746.04 812.4 761.63 850.59 791.48 872.12" style="fill:#7b935a"/><polygon points="799.72 927.28 732.66 935.84 698.83 903.58 719.11 850.43 767.99 827.05 806.81 864.05 799.72 927.28" style="fill:#637f3b"/><polygon points="695.96 912.25 721.77 907.2 753.57 885.67 770.19 856.42 777.46 822.78 743.93 820.11 705.15 839.5 689.89 876.8 695.96 912.25" style="fill:#7b935a"/><polygon points="628.14 912.37 626.81 844.79 662.5 814.6 713.18 840.45 731.2 891.56 690.25 926.19 628.14 912.37" style="fill:#637f3b"/><polygon points="654.19 810.82 656.45 837.03 674.46 870.95 701.76 890.6 734.43 901.43 740.66 868.38 725.53 827.75 690.09 808.58 654.19 810.82" style="fill:#7b935a"/><polygon points="492.02 971.5 490.68 903.91 526.38 873.72 577.06 899.58 595.07 950.68 554.13 985.31 492.02 971.5" style="fill:#637f3b"/><polygon points="518.07 869.95 520.33 896.15 538.34 930.07 565.64 949.72 598.31 960.55 604.54 927.5 589.41 886.87 553.97 867.7 518.07 869.95" style="fill:#7b935a"/><polygon points="476.7 1073.53 415.25 1101.71 373.33 1081.02 376.83 1024.24 416.51 987.33 464.6 1011.06 476.7 1073.53" style="fill:#637f3b"/><polygon points="373.18 1090.15 396.31 1077.62 420.24 1047.58 427.37 1014.71 424.27 980.43 391.47 987.89 360.25 1017.97 356.81 1058.13 373.18 1090.15" style="fill:#7b935a"/><polygon points="1235.88 1095.25 1234.55 1027.66 1270.24 997.47 1320.92 1023.32 1338.94 1074.43 1297.99 1109.06 1235.88 1095.25" style="fill:#637f3b"/><polygon points="1261.93 993.69 1264.19 1019.9 1282.2 1053.82 1309.5 1073.47 1342.17 1084.3 1348.4 1051.25 1333.28 1010.62 1297.83 991.45 1261.93 993.69" style="fill:#7b935a"/><polygon points="865.69 363.07 924.81 398.82 905.56 398.82 975.69 473.06 953.69 473.06 1007.31 537.69 983.94 537.69 993.56 567.94 974.31 592.69 953.69 592.69 935.81 624.31 930.31 606.44 894.56 665.56 889.06 647.69 865.69 709.56 854.69 690.31 817.56 748.06 817.56 731.56 768.07 782.43 758.44 760.43 739.19 805.81 685.57 748.06 721.32 690.31 697.94 690.31 757.07 647.69 741.94 647.69 798.31 599.56 779.07 600.94 829.94 551.44 806.56 551.44 817.56 492.31 796.94 507.44 806.56 427.69 865.69 363.07" style="fill:#99bc6d"/><polygon points="782.58 813.39 723.41 846.07 680.06 828.56 679.32 771.67 716.14 731.91 765.86 752 782.58 813.39" style="fill:#6a8440"/><polygon points="680.59 837.67 702.72 823.46 724.35 791.72 729 758.41 723.37 724.45 691.21 734.34 662.32 766.66 661.88 806.96 680.59 837.67" style="fill:#7b935a"/><polygon points="961.31 968.93 947.38 902.79 976.81 866.46 1031.42 882.4 1058.66 929.24 1024.91 970.91 961.31 968.93" style="fill:#637f3b"/><polygon points="967.94 864.3 975.05 889.63 999.08 919.59 1029.57 933.79 1063.68 938.34 1063.64 904.7 1041.19 867.61 1002.79 855.4 967.94 864.3" style="fill:#7b935a"/><circle cx="790.06" cy="349.32" r="45.37" style="fill:#fff"/><circle cx="776.31" cy="378.19" r="12.37" style="fill:#324915"/><polygon points="1242.18 482.65 1202.48 317.53 1215.65 180.02 1300.18 58.02 1491.34 0 1681.06 47.65 1790.33 210.76 1810.96 375.79 1726.48 551.57 1549.23 609.19 1430.44 552.49 1388.87 472.41 1393.92 365.35 1454.11 298.26 1535.58 262.69 1502.59 263 1424.16 284.98 1381.71 334.69 1363.85 407.57 1357.34 493.68 1373.51 578.49 1430.76 668.97 1434 743.86 1421.53 801.65 1387.28 869.49 1330.99 933.95 1242.18 482.65" style="fill:#8baa5f"/><polygon points="1143.22 317.69 1188.83 359.37 1175.8 366.32 1212.28 402.45 1194.04 409.39 1250.07 423.29 1282.64 445.52 1253.98 445.52 1346.49 513.6 1319.13 513.6 1363.43 581.68 1338.67 581.68 1363.43 631.7 1363.43 699.78 1336.07 819.27 1143.22 966.55 915.2 833.16 834.06 781.75 850.74 738.68 841.01 735.91 860.46 699.78 852.13 699.78 878.52 652.54 866.02 652.54 951.68 487.2 1143.22 317.69" style="fill:#8baa5f"/><polygon points="1140.68 308.07 1140.68 352.07 1125.56 352.07 1125.56 383.69 1102.18 376.82 1109.06 418.06 1089.81 411.19 1089.81 445.56 1052.68 460.69 1063.68 514.31 1041.68 514.31 1032.06 534.94 1016.94 534.94 1000.44 569.31 975.69 569.31 956.44 569.31 919.31 587.19 890.03 587.19 865.69 587.19 831.31 587.19 809.31 574.81 791.44 545.94 909.69 294.32 1140.68 308.07" style="fill:#8fb266"/><polygon points="856.75 266.13 840.25 218.01 885.63 154.76 885.63 209.76 920 248.26 856.75 266.13" style="fill:#8baa5f"/><polygon points="854.1 250.74 791.79 344.93 771.5 479.7 773.57 512.94 880.81 512.94 906.99 478.98 966.4 380.44 1046.11 322.47 1140.68 308.07 1012.05 229.01 854.1 250.74" style="fill:#95c16b"/><polygon points="1063.68 286.07 1063.68 228.32 1121.43 171.94 1121.43 248.94 1140.68 308.07 1063.68 286.07" style="fill:#95c16b"/><polygon points="773.78 512.94 791.62 496.44 866.92 496.44 880.81 512.94 858.11 550.06 794.86 550.06 773.78 512.94" style="fill:#637f3b"/><circle cx="1032.06" cy="352.07" r="45.37" style="fill:#fff"/><circle cx="1030.69" cy="380.94" r="12.37" style="fill:#324915"/><polygon points="806.56 569.31 820.31 599.56 846.44 599.56 828.56 569.31 806.56 569.31" style="fill:#ccd8bc"/><polygon points="835.44 569.31 849.19 599.56 875.31 599.56 857.44 569.31 835.44 569.31" style="fill:#ccd8bc"/><polygon points="689.9 760.3 725.44 821.69 707.67 715.06 676.97 723.14 689.9 760.3" style="fill:#ccd8bc"/><polygon points="652.74 757.07 643.04 784.53 694.74 833 668.89 747.37 652.74 757.07" style="fill:#ccd8bc"/><polygon points="646.28 805.53 646.28 836.23 683.43 844.31 646.28 805.53" style="fill:#ccd8bc"/><polygon points="865.75 891.11 867.13 823.53 904.01 794.8 953.61 822.67 969.55 874.47 927.25 907.42 865.75 891.11" style="fill:#637f3b"/><polygon points="895.86 790.69 897.07 816.97 913.69 851.59 940.18 872.32 972.39 884.46 979.95 851.68 966.47 810.48 931.82 789.9 895.86 790.69" style="fill:#7b935a"/><polygon points="713.86 1091.8 707.62 1159.11 668.77 1185.11 621.3 1153.74 609.13 1100.94 653.69 1071.11 713.86 1091.8" style="fill:#637f3b"/><polygon points="676.6 1189.79 677.29 1163.5 663.2 1127.78 638.27 1105.19 607.02 1090.77 597.12 1122.92 607.61 1164.98 640.68 1188 676.6 1189.79" style="fill:#7b935a"/><polygon points="624.91 1165.88 562.18 1191.08 521.3 1168.4 527.52 1111.85 568.93 1076.89 615.82 1102.91 624.91 1165.88" style="fill:#637f3b"/><polygon points="520.72 1177.51 544.42 1166.11 569.76 1137.26 578.46 1104.76 577.01 1070.37 543.89 1076.26 511.26 1104.8 505.9 1144.74 520.72 1177.51" style="fill:#7b935a"/><polygon points="455.13 1194.74 436.78 1129.67 463.71 1091.46 519.27 1103.69 549.59 1148.6 518.71 1192.44 455.13 1194.74" style="fill:#637f3b"/><polygon points="454.71 1089.9 463.51 1114.69 489.49 1142.97 520.87 1155.1 555.21 1157.34 552.91 1123.78 528.02 1088.28 488.88 1078.67 454.71 1089.9" style="fill:#7b935a"/><polygon points="579.6 1060 530.58 1106.55 484.22 1100.54 469.15 1045.68 494.76 997.91 547.93 1004.81 579.6 1060" style="fill:#637f3b"/><polygon points="487.03 1109.22 504.87 1089.88 517.78 1053.72 513.89 1020.31 499.87 988.87 471.25 1006.55 451.44 1045.11 461.18 1084.22 487.03 1109.22" style="fill:#7b935a"/><polygon points="773.67 1096.75 709.78 1118.84 670.06 1094.17 679.05 1038 722.13 1005.12 767.68 1033.41 773.67 1096.75" style="fill:#637f3b"/><polygon points="487.4 1182.36 505.75 1117.3 478.82 1079.08 423.26 1091.32 392.93 1136.23 423.82 1180.07 487.4 1182.36" style="fill:#637f3b"/><polygon points="487.81 1077.52 479.02 1102.31 453.04 1130.6 421.66 1142.72 387.31 1144.96 389.62 1111.41 414.51 1075.91 453.64 1066.3 487.81 1077.52" style="fill:#7b935a"/><polygon points="398.03 1189.24 416.37 1124.17 389.45 1085.96 333.88 1098.19 303.56 1143.1 334.44 1186.94 398.03 1189.24" style="fill:#637f3b"/><polygon points="398.44 1084.4 389.64 1109.19 363.66 1137.47 332.29 1149.6 297.94 1151.84 300.25 1118.28 325.13 1082.78 364.27 1073.17 398.44 1084.4" style="fill:#7b935a"/><polygon points="122.99 1243.25 97.37 1180.69 52.62 1167.17 16.38 1211.03 20.15 1265.09 71.48 1280.6 122.99 1243.25" style="fill:#637f3b"/><polygon points="58.75 1160.4 67.08 1185.35 64.04 1223.63 46.78 1252.51 21.11 1275.43 2.25 1247.57 0 1204.28 24.91 1172.6 58.75 1160.4" style="fill:#7b935a"/><polygon points="517.07 1201.22 540.08 1137.66 584.24 1122.3 622.25 1164.62 620.72 1218.79 570.07 1236.41 517.07 1201.22" style="fill:#637f3b"/><polygon points="577.84 1115.79 570.54 1141.06 575.16 1179.19 593.59 1207.33 620.2 1229.17 637.88 1200.55 638.35 1157.2 612.14 1126.58 577.84 1115.79" style="fill:#7b935a"/><polygon points="936.61 1089.05 930.37 1156.36 891.52 1182.36 844.05 1150.99 831.87 1098.19 876.43 1068.36 936.61 1089.05" style="fill:#637f3b"/><polygon points="899.35 1187.04 900.04 1160.75 885.95 1125.03 861.01 1102.44 829.76 1088.02 819.87 1120.17 830.35 1162.23 863.43 1185.25 899.35 1187.04" style="fill:#7b935a"/><polygon points="847.65 1163.13 784.93 1188.33 744.05 1165.65 750.27 1109.1 791.68 1074.14 838.57 1100.16 847.65 1163.13" style="fill:#637f3b"/><polygon points="677.87 1191.99 659.53 1126.92 686.46 1088.71 742.02 1100.94 772.34 1145.85 741.46 1189.69 677.87 1191.99" style="fill:#637f3b"/><polygon points="710.15 1179.61 728.49 1114.55 701.57 1076.33 646 1088.57 615.68 1133.48 646.57 1177.32 710.15 1179.61" style="fill:#637f3b"/><polygon points="739.81 1198.47 762.83 1134.91 806.98 1119.55 845 1161.87 843.47 1216.04 792.82 1233.66 739.81 1198.47" style="fill:#637f3b"/><polygon points="800.58 1113.04 793.28 1138.31 797.91 1176.44 816.34 1204.58 842.94 1226.42 860.63 1197.8 861.09 1154.45 834.89 1123.83 800.58 1113.04" style="fill:#7b935a"/><polygon points="621.83 1151.97 688.88 1143.4 722.72 1175.66 702.44 1228.82 653.55 1252.2 614.74 1215.2 621.83 1151.97" style="fill:#637f3b"/><polygon points="725.59 1167 699.77 1172.05 667.97 1193.58 651.36 1222.83 644.08 1256.47 677.62 1259.13 716.39 1239.74 731.66 1202.45 725.59 1167" style="fill:#7b935a"/><polygon points="929.52 1107.75 930.86 1175.33 895.17 1205.52 844.49 1179.67 826.47 1128.56 867.41 1093.93 929.52 1107.75" style="fill:#637f3b"/><polygon points="903.48 1209.3 901.22 1183.09 883.21 1149.17 855.91 1129.53 823.24 1118.69 817 1151.74 832.13 1192.37 867.58 1211.54 903.48 1209.3" style="fill:#7b935a"/><polygon points="460.44 1181.34 527.84 1176.09 560.05 1209.97 537.18 1262.06 487.2 1283.01 450.25 1244.15 460.44 1181.34" style="fill:#637f3b"/><polygon points="563.34 1201.46 537.3 1205.23 504.48 1225.17 486.45 1253.57 477.53 1286.81 510.89 1291.12 550.58 1273.66 567.66 1237.16 563.34 1201.46" style="fill:#7b935a"/><polygon points="271.41 1212.03 348.12 1206.05 384.77 1244.61 358.74 1303.9 301.86 1327.74 259.81 1283.51 271.41 1212.03" style="fill:#637f3b"/><polygon points="388.52 1234.92 358.89 1239.22 321.54 1261.92 301.01 1294.23 290.86 1332.07 328.83 1336.97 373.99 1317.1 393.44 1275.56 388.52 1234.92" style="fill:#7b935a"/><polygon points="1109.85 1128.92 1103.61 1196.23 1064.76 1222.23 1017.3 1190.87 1005.12 1138.06 1049.68 1108.24 1109.85 1128.92" style="fill:#637f3b"/><polygon points="1072.6 1226.92 1073.29 1200.62 1059.19 1164.9 1034.26 1142.32 1003.01 1127.89 993.11 1160.04 1003.6 1202.11 1036.68 1225.13 1072.6 1226.92" style="fill:#7b935a"/><polygon points="1020.9 1203.01 958.18 1228.21 917.3 1205.53 923.51 1148.98 964.92 1114.02 1011.81 1140.04 1020.9 1203.01" style="fill:#637f3b"/><polygon points="916.71 1214.63 940.41 1203.24 965.75 1174.38 974.45 1141.89 973.01 1107.5 939.89 1113.38 907.26 1141.92 901.89 1181.86 916.71 1214.63" style="fill:#7b935a"/><polygon points="1169.66 1133.88 1105.77 1155.96 1066.06 1131.3 1075.05 1075.12 1118.12 1042.24 1163.68 1070.53 1169.66 1133.88" style="fill:#637f3b"/><polygon points="1065.02 1140.37 1089.26 1130.15 1115.99 1102.57 1126.27 1070.54 1126.52 1036.13 1093.15 1040.37 1059.16 1067.28 1051.83 1106.9 1065.02 1140.37" style="fill:#7b935a"/><polygon points="913.06 1238.35 936.08 1174.79 980.23 1159.42 1018.25 1201.75 1016.71 1255.92 966.07 1273.54 913.06 1238.35" style="fill:#637f3b"/><polygon points="973.83 1152.91 966.53 1178.19 971.16 1216.31 989.59 1244.45 1016.19 1266.29 1033.88 1237.68 1034.34 1194.33 1008.14 1163.71 973.83 1152.91" style="fill:#7b935a"/><polygon points="1332.6 1126.17 1326.36 1193.48 1287.51 1219.48 1240.05 1188.12 1227.87 1135.31 1272.43 1105.49 1332.6 1126.17" style="fill:#637f3b"/><polygon points="1295.34 1224.17 1296.03 1197.87 1281.94 1162.15 1257.01 1139.57 1225.76 1125.14 1215.86 1157.29 1226.35 1199.36 1259.42 1222.38 1295.34 1224.17" style="fill:#7b935a"/><polygon points="1289.52 1065.77 1261.78 1129.14 1215.66 1141.89 1179.66 1096.13 1184.83 1040.91 1237.73 1026.29 1289.52 1065.77" style="fill:#637f3b"/><polygon points="1221.77 1148.96 1230.9 1123.64 1228.72 1084.4 1211.77 1054.43 1186.06 1030.36 1166.09 1058.4 1162.73 1102.64 1187.45 1135.65 1221.77 1148.96" style="fill:#7b935a"/><polygon points="1243.65 1200.26 1180.92 1225.46 1140.04 1202.78 1146.26 1146.23 1187.67 1111.27 1234.56 1137.29 1243.65 1200.26" style="fill:#637f3b"/><polygon points="1139.46 1211.88 1163.16 1200.49 1188.5 1171.63 1197.2 1139.14 1195.75 1104.75 1162.63 1110.63 1130.01 1139.17 1124.64 1179.11 1139.46 1211.88" style="fill:#7b935a"/><polygon points="1073.87 1229.11 1055.52 1164.05 1082.45 1125.83 1138.01 1138.07 1168.34 1182.98 1137.45 1226.81 1073.87 1229.11" style="fill:#637f3b"/><polygon points="1073.46 1124.27 1082.25 1149.06 1108.23 1177.34 1139.61 1189.47 1173.95 1191.71 1171.65 1158.15 1146.76 1122.66 1107.63 1113.05 1073.46 1124.27" style="fill:#7b935a"/><polygon points="1198.34 1094.37 1149.32 1140.92 1102.96 1134.91 1087.89 1080.05 1113.5 1032.29 1166.67 1039.19 1198.34 1094.37" style="fill:#637f3b"/><polygon points="1105.77 1143.59 1123.61 1124.26 1136.52 1088.09 1132.63 1054.68 1118.61 1023.25 1089.99 1040.92 1070.18 1079.49 1079.92 1118.59 1105.77 1143.59" style="fill:#7b935a"/><polygon points="1283.59 956.88 1234.57 1003.42 1188.21 997.41 1173.14 942.55 1198.74 894.79 1251.92 901.69 1283.59 956.88" style="fill:#637f3b"/><polygon points="1191.02 1006.1 1208.85 986.76 1221.77 950.59 1217.88 917.18 1203.86 885.75 1175.24 903.43 1155.43 941.99 1165.16 981.1 1191.02 1006.1" style="fill:#7b935a"/><polygon points="1256.68 1140.87 1275.09 1075.83 1318.03 1057.34 1358.98 1096.84 1361.32 1150.98 1312.07 1172.18 1256.68 1140.87" style="fill:#637f3b"/><polygon points="1311.18 1051.31 1305.71 1077.04 1313.05 1114.73 1333.44 1141.48 1361.54 1161.36 1377.13 1131.56 1374.5 1088.29 1346.17 1059.62 1311.18 1051.31" style="fill:#7b935a"/><polygon points="1106.14 1216.74 1124.48 1151.67 1097.56 1113.46 1042 1125.69 1011.67 1170.6 1042.56 1214.44 1106.14 1216.74" style="fill:#637f3b"/><polygon points="1106.55 1111.9 1097.76 1136.69 1071.78 1164.97 1040.4 1177.1 1006.05 1179.34 1008.36 1145.78 1033.25 1110.28 1072.38 1100.67 1106.55 1111.9" style="fill:#7b935a"/><polygon points="1135.81 1235.6 1158.82 1172.04 1202.97 1156.67 1240.99 1199 1239.46 1253.17 1188.81 1270.79 1135.81 1235.6" style="fill:#637f3b"/><polygon points="1196.58 1150.17 1189.28 1175.44 1193.9 1213.56 1212.33 1241.7 1238.93 1263.54 1256.62 1234.93 1257.09 1191.58 1230.88 1160.96 1196.58 1150.17" style="fill:#7b935a"/><polygon points="1017.82 1189.09 1084.88 1180.53 1118.71 1212.79 1098.43 1265.94 1049.54 1289.32 1010.73 1252.32 1017.82 1189.09" style="fill:#637f3b"/><polygon points="1121.58 1204.12 1095.77 1209.17 1063.96 1230.7 1047.35 1259.95 1040.08 1293.6 1073.61 1296.26 1112.38 1276.87 1127.65 1239.57 1121.58 1204.12" style="fill:#7b935a"/><polygon points="1189.39 1204 1190.73 1271.58 1155.04 1301.77 1104.36 1275.92 1086.34 1224.81 1127.29 1190.18 1189.39 1204" style="fill:#637f3b"/><polygon points="1163.35 1305.55 1161.09 1279.34 1143.08 1245.42 1115.78 1225.77 1083.11 1214.94 1076.87 1247.99 1092 1288.62 1127.45 1307.79 1163.35 1305.55" style="fill:#7b935a"/><polygon points="1314.74 1334.82 1270.04 1385.53 1223.33 1383.65 1203.46 1330.34 1224.73 1280.5 1278.31 1282.65 1314.74 1334.82" style="fill:#637f3b"/><polygon points="1226.9 1392.05 1242.95 1371.21 1252.61 1334.04 1245.77 1301.11 1229.02 1271.04 1202.08 1291.18 1185.77 1331.35 1198.93 1369.44 1226.9 1392.05" style="fill:#7b935a"/><polygon points="1325.52 1144.87 1326.85 1212.46 1291.16 1242.65 1240.48 1216.8 1222.46 1165.69 1263.41 1131.06 1325.52 1144.87" style="fill:#637f3b"/><polygon points="1299.47 1246.42 1297.21 1220.22 1279.2 1186.3 1251.9 1166.65 1219.23 1155.82 1213 1188.87 1228.13 1229.5 1263.57 1248.67 1299.47 1246.42" style="fill:#7b935a"/><polygon points="1408.46 1239.08 1395.53 1172.73 1425.5 1136.86 1479.87 1153.62 1506.4 1200.87 1472.02 1242.02 1408.46 1239.08" style="fill:#637f3b"/><polygon points="1416.67 1134.57 1423.4 1159.99 1446.97 1190.32 1477.24 1204.98 1511.29 1210.04 1511.75 1176.4 1489.86 1138.98 1451.64 1126.19 1416.67 1134.57" style="fill:#7b935a"/><polygon points="864.93 1211.61 932.25 1217.8 958.28 1256.63 926.96 1304.12 874.16 1316.34 844.3 1271.8 864.93 1211.61" style="fill:#637f3b"/><polygon points="962.96 1248.79 936.67 1248.12 900.95 1262.24 878.39 1287.19 863.99 1318.46 896.15 1328.33 938.21 1317.81 961.2 1284.71 962.96 1248.79" style="fill:#7b935a"/><polygon points="899.85 859.73 832.59 852.9 806.93 813.83 838.7 766.63 891.61 754.91 921.05 799.74 899.85 859.73" style="fill:#637f3b"/><polygon points="802.18 821.62 828.46 822.54 864.31 808.75 887.11 784.02 901.8 752.9 869.74 742.72 827.58 752.84 804.28 785.71 802.18 821.62" style="fill:#7b935a"/><polygon points="1218.08 450.51 1269.42 482.27 1252.37 481.68 1312.35 546.04 1292.86 545.37 1338.5 601.16 1317.8 600.45 1325.46 626.1 1307.7 646.26 1289.43 645.63 1272.7 671.6 1268.34 656.45 1234.99 704.92 1230.63 689.77 1208.16 740.92 1198.97 724.46 1164.43 771.74 1164.91 757.91 1119.62 799.05 1111.72 780.32 1093.37 817.76 1026.64 772.79 1080.85 720.42 1060.15 719.71 1113.73 685.78 1100.34 685.32 1151.64 646.69 1134.56 647.26 1181.03 607.31 1160.33 606.61 1171.76 557.38 1153.07 569.44 1163.87 502.89 1218.08 450.51" style="fill:#99bc6d"/><polygon points="989.74 771.59 976.8 705.24 1006.78 669.37 1061.15 686.12 1087.68 733.38 1053.3 774.53 989.74 771.59" style="fill:#637f3b"/><polygon points="997.94 667.07 1004.67 692.5 1028.24 722.82 1058.51 737.49 1092.56 742.54 1093.02 708.91 1071.13 671.49 1032.92 658.69 997.94 667.07" style="fill:#7b935a"/><polygon points="1074.23 834.57 1005.53 837.17 970.7 753.17 1028.65 793.64 994.11 753.66 1023.2 722.29 1024.29 751.15 1056.72 771.94 1037.56 738.26 1037.53 701.11 1064.63 726.23 1068.78 763.22 1083.82 740.64 1073.57 708 1107.74 738.36 1106.39 757.35 1102.35 814.24 1074.23 834.57" style="fill:#ccd8bc"/><polygon points="1111.81 284.69 1087.06 275.07 1099.43 222.82 1111.81 284.69" style="fill:#5a842d"/><polygon points="1268.56 715.06 1227.31 760.43 1247.93 760.43 1214.93 805.81 1235.56 798.93 1206.68 863.56 1221.81 863.56 1199.81 889.68 1256.18 1007.93 1327.68 1007.93 1373.06 924.06 1386.81 936.43 1373.06 882.81 1386.81 889.68 1364.81 805.81 1386.81 815.43 1387.49 757.68 1406.74 767.31 1373.06 686.19 1292.62 690.31 1301.56 705.94 1268.56 715.06" style="fill:#97b76c"/><polygon points="1264.43 999.68 1242.43 999.68 1242.43 1036.81 1264.43 1071.18 1264.43 999.68" style="fill:#ccd8bc"/><polygon points="1282.31 999.68 1282.31 1028.56 1294.68 1071.18 1301.56 1028.56 1301.56 999.68 1282.31 999.68" style="fill:#ccd8bc"/><polygon points="1316.68 999.68 1316.68 1050.56 1335.93 999.68 1316.68 999.68" style="fill:#ccd8bc"/><polygon points="891.72 1270.37 842.7 1316.92 796.34 1310.91 781.27 1256.05 806.88 1208.29 860.05 1215.18 891.72 1270.37" style="fill:#637f3b"/><polygon points="799.15 1319.59 816.99 1300.26 829.9 1264.09 826.01 1230.68 811.99 1199.24 783.37 1216.92 763.56 1255.49 773.3 1294.59 799.15 1319.59" style="fill:#7b935a"/><polygon points="793.4 1166.87 794.74 1234.46 759.04 1264.65 708.36 1238.8 690.35 1187.69 731.29 1153.06 793.4 1166.87" style="fill:#637f3b"/><polygon points="767.35 1268.42 765.09 1242.22 747.09 1208.3 719.78 1188.65 687.11 1177.82 680.88 1210.87 696.01 1251.5 731.46 1270.67 767.35 1268.42" style="fill:#7b935a"/><polygon points="883.4 1219.49 901.74 1154.42 874.81 1116.21 819.25 1128.44 788.93 1173.35 819.81 1217.19 883.4 1219.49" style="fill:#637f3b"/><polygon points="883.81 1114.65 875.01 1139.44 849.03 1167.72 817.65 1179.85 783.31 1182.09 785.61 1148.53 810.5 1113.03 849.64 1103.42 883.81 1114.65" style="fill:#7b935a"/><polyline points="547.35 1024.02 543.99 1068.26 568.71 1101.28 603.03 1114.59 612.16 1089.27 609.98 1050.02 593.03 1020.06" style="fill:#7b935a"/><polygon points="1066.77 1068.52 1039.03 1131.89 992.92 1144.64 956.91 1098.88 962.09 1043.66 1014.98 1029.04 1066.77 1068.52" style="fill:#637f3b"/><polygon points="750.76 1047.86 778.5 984.48 824.62 971.73 860.63 1017.49 855.45 1072.71 802.55 1087.33 750.76 1047.86" style="fill:#637f3b"/><polygon points="851.12 1231.86 832.78 1166.8 859.7 1128.58 915.26 1140.82 945.59 1185.73 914.7 1229.56 851.12 1231.86" style="fill:#637f3b"/><polygon points="850.71 1127.02 859.51 1151.81 885.49 1180.09 916.86 1192.22 951.21 1194.46 948.9 1160.9 924.01 1125.41 884.88 1115.8 850.71 1127.02" style="fill:#7b935a"/><polygon points="1192.88 999.83 1186.64 932.51 1147.79 906.51 1100.32 937.88 1088.14 990.68 1132.7 1020.51 1192.88 999.83" style="fill:#637f3b"/><polygon points="1155.62 901.83 1156.31 928.12 1142.21 963.85 1117.28 986.43 1086.03 1000.85 1076.14 968.7 1086.62 926.64 1119.7 903.62 1155.62 901.83" style="fill:#7b935a"/><polygon points="832.69 852.56 627.82 911.68 427.07 1014.81 477.94 1102.81 820.31 1216.93 1115.93 1225.18 1264.43 1131.68 1213.56 1053.31 1117.31 987.31 968.81 948.81 832.69 852.56" style="fill:#637f3b"/><polygon points="546.53 1059.99 564.87 994.93 537.94 956.71 482.38 968.94 452.06 1013.86 482.94 1057.69 546.53 1059.99" style="fill:#708744"/><polygon points="546.94 955.15 538.14 979.94 512.16 1008.22 480.79 1020.35 446.44 1022.59 448.74 989.03 473.63 953.53 512.77 943.92 546.94 955.15" style="fill:#81965f"/><polygon points="1587.46 779.44 1629.29 743.7 1628.35 705.66 1585.21 688.81 1544.38 705.5 1545.46 749.14 1587.46 779.44" style="fill:#708744"/><polygon points="1635.14 708.67 1617.98 721.47 1587.6 728.87 1560.88 722.89 1536.62 708.88 1553.35 687.2 1586.25 674.43 1617.09 685.62 1635.14 708.67" style="fill:#81965f"/><polygon points="1558.31 845.45 1600.14 809.71 1599.2 771.66 1556.06 754.82 1515.23 771.51 1516.31 815.15 1558.31 845.45" style="fill:#708744"/><polygon points="1605.99 774.68 1588.83 787.48 1558.45 794.87 1531.73 788.89 1507.47 774.88 1524.2 753.21 1557.1 740.44 1587.94 751.63 1605.99 774.68" style="fill:#81965f"/><polygon points="1616.61 845.51 1658.44 809.77 1657.49 771.73 1614.36 754.88 1573.52 771.57 1574.61 815.21 1616.61 845.51" style="fill:#708744"/><polygon points="1664.29 774.74 1647.13 787.54 1616.75 794.94 1590.03 788.96 1565.77 774.95 1582.5 753.27 1615.4 740.5 1646.23 751.69 1664.29 774.74" style="fill:#81965f"/><polygon points="1523.33 919.23 1565.16 883.48 1564.22 845.44 1521.08 828.6 1480.25 845.29 1481.33 888.92 1523.33 919.23" style="fill:#708744"/><polygon points="1571.01 848.45 1553.85 861.25 1523.47 868.65 1496.76 862.67 1472.49 848.66 1489.23 826.99 1522.12 814.21 1552.96 825.4 1571.01 848.45" style="fill:#81965f"/><polygon points="1587.46 919.3 1629.29 883.55 1628.35 845.51 1585.21 828.67 1544.38 845.36 1545.46 888.99 1587.46 919.3" style="fill:#708744"/><polygon points="1635.14 848.52 1617.98 861.32 1587.6 868.72 1560.88 862.74 1536.62 848.73 1553.35 827.05 1586.25 814.28 1617.09 825.47 1635.14 848.52" style="fill:#81965f"/><polygon points="1645.76 919.36 1687.59 883.61 1686.64 845.57 1643.51 828.73 1602.67 845.42 1603.76 889.05 1645.76 919.36" style="fill:#708744"/><polygon points="1693.44 848.58 1676.27 861.38 1645.9 868.78 1619.18 862.8 1594.92 848.79 1611.65 827.12 1644.55 814.34 1675.38 825.53 1693.44 848.58" style="fill:#81965f"/><polygon points="1494.24 985.36 1536.03 949.57 1535.05 911.53 1491.89 894.74 1451.08 911.47 1452.21 955.1 1494.24 985.36" style="fill:#708744"/><polygon points="1541.84 914.54 1524.69 927.36 1494.33 934.78 1467.6 928.83 1443.33 914.85 1460.04 893.16 1492.92 880.35 1523.77 891.51 1541.84 914.54" style="fill:#81965f"/><polygon points="1560.31 985.36 1602.1 949.57 1601.12 911.53 1557.96 894.74 1517.15 911.47 1518.28 955.1 1560.31 985.36" style="fill:#708744"/><polygon points="1607.91 914.54 1590.76 927.36 1560.4 934.78 1533.67 928.83 1509.4 914.85 1526.11 893.16 1558.99 880.35 1589.84 891.51 1607.91 914.54" style="fill:#81965f"/><polygon points="1624.44 985.36 1666.23 949.57 1665.24 911.53 1622.09 894.74 1581.27 911.47 1582.4 955.1 1624.44 985.36" style="fill:#708744"/><polygon points="1672.04 914.54 1654.89 927.36 1624.53 934.78 1597.8 928.83 1573.52 914.85 1590.23 893.16 1623.12 880.35 1653.96 891.51 1672.04 914.54" style="fill:#81965f"/><polygon points="1682.73 985.36 1724.53 949.57 1723.54 911.53 1680.39 894.74 1639.57 911.47 1640.7 955.1 1682.73 985.36" style="fill:#708744"/><polygon points="1730.34 914.54 1713.19 927.36 1682.83 934.78 1656.1 928.83 1631.82 914.85 1648.53 893.16 1681.41 880.35 1712.26 891.51 1730.34 914.54" style="fill:#81965f"/><polygon points="1459.26 1063.09 1501.05 1027.3 1500.07 989.26 1456.91 972.47 1416.1 989.2 1417.23 1032.83 1459.26 1063.09" style="fill:#708744"/><polygon points="1506.86 992.27 1489.71 1005.09 1459.35 1012.51 1432.62 1006.57 1408.35 992.58 1425.06 970.89 1457.94 958.08 1488.79 969.24 1506.86 992.27" style="fill:#81965f"/><polygon points="1527.27 1063.09 1569.07 1027.3 1568.08 989.26 1524.93 972.47 1484.11 989.2 1485.24 1032.83 1527.27 1063.09" style="fill:#708744"/><polygon points="1574.88 992.27 1557.73 1005.09 1527.36 1012.51 1500.64 1006.57 1476.36 992.58 1493.07 970.89 1525.95 958.08 1556.8 969.24 1574.88 992.27" style="fill:#81965f"/><polygon points="1593.34 1063.09 1635.14 1027.3 1634.15 989.26 1591 972.47 1550.18 989.2 1551.31 1032.83 1593.34 1063.09" style="fill:#708744"/><polygon points="1640.95 992.27 1623.8 1005.09 1593.43 1012.51 1566.71 1006.57 1542.43 992.58 1559.14 970.89 1592.03 958.08 1622.87 969.24 1640.95 992.27" style="fill:#81965f"/><polygon points="1657.47 1063.09 1699.27 1027.3 1698.28 989.26 1655.12 972.47 1614.31 989.2 1615.44 1032.83 1657.47 1063.09" style="fill:#708744"/><polygon points="1705.08 992.27 1687.93 1005.09 1657.56 1012.51 1630.84 1006.57 1606.56 992.58 1623.27 970.89 1656.15 958.08 1687 969.24 1705.08 992.27" style="fill:#81965f"/><polygon points="1715.77 1063.09 1757.56 1027.3 1756.58 989.26 1713.42 972.47 1672.61 989.2 1673.74 1032.83 1715.77 1063.09" style="fill:#708744"/><polygon points="1763.37 992.27 1746.23 1005.09 1715.86 1012.51 1689.13 1006.57 1664.86 992.58 1681.57 970.89 1714.45 958.08 1745.3 969.24 1763.37 992.27" style="fill:#81965f"/><polygon points="599.08 991.4 580.74 1056.46 607.66 1094.68 663.22 1082.45 693.55 1037.53 662.66 993.7 599.08 991.4" style="fill:#708744"/><polygon points="598.67 1096.24 607.47 1071.45 633.45 1043.17 664.82 1031.04 699.17 1028.8 696.86 1062.36 671.97 1097.85 632.84 1107.46 598.67 1096.24" style="fill:#81965f"/><polygon points="1047.32 1097.27 1028.98 1162.34 1055.9 1200.55 1111.47 1188.32 1141.79 1143.41 1110.91 1099.57 1047.32 1097.27" style="fill:#708744"/><polygon points="1046.91 1202.11 1055.71 1177.32 1081.69 1149.04 1113.06 1136.91 1147.41 1134.67 1145.11 1168.23 1120.22 1203.73 1081.08 1213.34 1046.91 1202.11" style="fill:#81965f"/><polygon points="1144.94 1001.02 1126.6 1066.09 1153.53 1104.3 1209.09 1092.07 1239.41 1047.16 1208.53 1003.32 1144.94 1001.02" style="fill:#708744"/><polygon points="1144.54 1105.86 1153.33 1081.08 1179.31 1052.79 1210.69 1040.67 1245.03 1038.42 1242.73 1071.98 1217.84 1107.48 1178.7 1117.09 1144.54 1105.86" style="fill:#81965f"/><polygon points="656.51 994.85 697.59 950.69 691.79 909.38 642.71 896.45 600.34 919.73 606.99 967.11 656.51 994.85" style="fill:#708744"/><polygon points="699.57 911.81 682.48 927.9 650.34 939.76 620.49 936.59 592.32 924.37 607.83 898.68 642.05 880.65 677.02 888.98 699.57 911.81" style="fill:#81965f"/><polygon points="855.4 1243.78 915.4 1249.95 944.87 1220.44 925.62 1173.48 881.51 1153.69 847.7 1187.54 855.4 1243.78" style="fill:#708744"/><polygon points="947.62 1228.11 924.48 1224.17 895.65 1205.66 880.19 1179.93 872.97 1150.09 902.82 1146.98 937.82 1163.43 952.26 1196.36 947.62 1228.11" style="fill:#81965f"/><polygon points="876.03 972.91 936.02 979.08 965.49 949.57 946.24 902.61 902.13 882.82 868.32 916.67 876.03 972.91" style="fill:#708744"/><polygon points="968.24 957.24 945.11 953.3 916.27 934.79 900.82 909.06 893.59 879.22 923.44 876.11 958.45 892.56 972.88 925.49 968.24 957.24" style="fill:#81965f"/><polygon points="850.84 833.36 790.54 832.42 763.74 864.37 786.99 909.49 832.65 925.38 863.39 888.72 850.84 833.36" style="fill:#708744"/><polygon points="760.34 856.97 783.72 858.89 814.05 874.83 831.68 899.12 841.47 928.23 812 933.91 775.7 920.56 758.47 889.01 760.34 856.97" style="fill:#81965f"/><polygon points="780.66 1023.26 800.36 966.26 778.35 930.83 728.23 938.85 698.9 977.29 724.15 1017.93 780.66 1023.26" style="fill:#708744"/><polygon points="786.44 929.9 777.33 951.53 752.73 975.38 724.15 984.56 693.45 984.78 697.23 955.01 721.23 924.68 756.59 918.14 786.44 929.9" style="fill:#81965f"/><polygon points="808.22 1038.23 747.91 1037.29 721.11 1069.24 744.36 1114.36 790.02 1130.25 820.77 1093.59 808.22 1038.23" style="fill:#708744"/><polygon points="717.71 1061.85 741.1 1063.77 771.43 1079.7 789.06 1103.99 798.84 1133.1 769.38 1138.78 733.07 1125.43 715.84 1093.88 717.71 1061.85" style="fill:#81965f"/><polygon points="735.89 1265.05 634.51 1263.46 589.45 1317.19 628.53 1393.04 705.3 1419.75 756.99 1358.12 735.89 1265.05" style="fill:#708744"/><polygon points="583.73 1304.75 623.05 1307.97 674.04 1334.77 703.68 1375.6 720.13 1424.54 670.59 1434.09 609.56 1411.65 580.59 1358.6 583.73 1304.75" style="fill:#81965f"/><polygon points="738.04 1228.13 757.73 1171.13 735.73 1135.7 685.61 1143.73 656.28 1182.16 681.52 1222.8 738.04 1228.13" style="fill:#708744"/><polygon points="743.82 1134.77 734.7 1156.4 710.1 1180.25 681.53 1189.43 650.82 1189.65 654.61 1159.88 678.61 1129.55 713.96 1123.01 743.82 1134.77" style="fill:#81965f"/><polygon points="882.01 1122.72 923.08 1078.56 917.29 1037.26 868.21 1024.32 825.84 1047.6 832.48 1094.98 882.01 1122.72" style="fill:#708744"/><polygon points="925.06 1039.68 907.98 1055.77 875.83 1067.63 845.99 1064.46 817.82 1052.25 833.33 1026.55 867.54 1008.52 902.52 1016.85 925.06 1039.68" style="fill:#81965f"/><polygon points="1076.34 961.24 1016.04 960.29 989.23 992.25 1012.48 1037.37 1058.15 1053.25 1088.89 1016.6 1076.34 961.24" style="fill:#708744"/><polygon points="985.83 984.85 1009.22 986.77 1039.55 1002.71 1057.18 1026.99 1066.96 1056.1 1037.5 1061.78 1001.2 1048.43 983.96 1016.88 985.83 984.85" style="fill:#81965f"/><polygon points="1006.16 1151.13 1025.85 1094.13 1003.85 1058.7 953.73 1066.73 924.4 1105.16 949.64 1145.8 1006.16 1151.13" style="fill:#708744"/><polygon points="1011.94 1057.78 1002.82 1079.4 978.22 1103.25 949.65 1112.43 918.94 1112.65 922.73 1082.88 946.73 1052.55 982.08 1046.01 1011.94 1057.78" style="fill:#81965f"/><polygon points="1292.15 1204.76 1311.85 1147.75 1289.84 1112.32 1239.72 1120.35 1210.4 1158.79 1235.64 1199.43 1292.15 1204.76" style="fill:#708744"/><polygon points="1297.93 1111.4 1288.82 1133.02 1264.22 1156.87 1235.65 1166.05 1204.94 1166.28 1208.72 1136.51 1232.72 1106.18 1268.08 1099.64 1297.93 1111.4" style="fill:#81965f"/><polygon points="502.69 1172.84 562.95 1170.46 587.95 1137.08 562.25 1093.31 515.78 1079.96 487.1 1118.26 502.69 1172.84" style="fill:#708744"/><polygon points="591.75 1144.28 568.29 1143.65 537.13 1129.41 518.19 1106.13 506.82 1077.6 535.93 1070.31 572.91 1081.64 591.86 1112.19 591.75 1144.28" style="fill:#81965f"/><polygon points="1064.03 842.75 1006.5 847.29 985.31 810.96 1020.13 801.88 1000.73 792.49 1047.38 792.8 1045.84 765.55 1067.59 772.01 1077.66 748.89 1095.82 780.68 1120.05 739.81 1135.18 780.68 1115.5 801.88 1098.85 833.67 1064.03 842.75" style="fill:#99bc6d"/></g><polygon points="1847.8 869.9 1863.64 856.37 1863.28 841.96 1846.95 835.59 1831.49 841.9 1831.9 858.43 1847.8 869.9" style="fill:#708744"/><polygon points="1865.85 843.1 1859.36 847.95 1847.86 850.75 1837.74 848.49 1828.55 843.18 1834.89 834.98 1847.35 830.14 1859.02 834.38 1865.85 843.1" style="fill:#81965f"/><polygon points="1836.77 894.89 1852.6 881.36 1852.25 866.96 1835.91 860.58 1820.45 866.9 1820.86 883.42 1836.77 894.89" style="fill:#708744"/><polygon points="1854.82 868.1 1848.32 872.94 1836.82 875.74 1826.7 873.48 1817.52 868.17 1823.85 859.97 1836.31 855.13 1847.98 859.37 1854.82 868.1" style="fill:#81965f"/><polygon points="1858.84 894.91 1874.68 881.38 1874.32 866.98 1857.99 860.6 1842.53 866.92 1842.94 883.44 1858.84 894.91" style="fill:#708744"/><polygon points="1876.89 868.12 1870.39 872.97 1858.89 875.77 1848.78 873.5 1839.59 868.2 1845.93 859.99 1858.38 855.15 1870.06 859.39 1876.89 868.12" style="fill:#81965f"/><polygon points="1823.52 922.82 1839.36 909.29 1839 894.89 1822.67 888.51 1807.21 894.83 1807.62 911.35 1823.52 922.82" style="fill:#708744"/><polygon points="1841.58 896.03 1835.08 900.87 1823.58 903.67 1813.46 901.41 1804.28 896.11 1810.61 887.9 1823.07 883.06 1834.74 887.3 1841.58 896.03" style="fill:#81965f"/><polygon points="1847.8 922.85 1863.64 909.32 1863.28 894.91 1846.95 888.54 1831.49 894.86 1831.9 911.38 1847.8 922.85" style="fill:#708744"/><polygon points="1865.85 896.05 1859.36 900.9 1847.86 903.7 1837.74 901.44 1828.55 896.13 1834.89 887.93 1847.35 883.09 1859.02 887.33 1865.85 896.05" style="fill:#81965f"/><polygon points="1869.87 922.87 1885.71 909.34 1885.36 894.94 1869.02 888.56 1853.56 894.88 1853.97 911.4 1869.87 922.87" style="fill:#708744"/><polygon points="1887.93 896.08 1881.43 900.92 1869.93 903.72 1859.81 901.46 1850.63 896.15 1856.96 887.95 1869.42 883.11 1881.09 887.35 1887.93 896.08" style="fill:#81965f"/><polygon points="1812.51 947.86 1828.33 934.31 1827.96 919.91 1811.62 913.55 1796.17 919.89 1796.59 936.41 1812.51 947.86" style="fill:#708744"/><polygon points="1830.53 921.05 1824.04 925.9 1812.54 928.71 1802.42 926.46 1793.23 921.17 1799.56 912.95 1812.01 908.1 1823.69 912.33 1830.53 921.05" style="fill:#81965f"/><polygon points="1837.52 947.86 1853.35 934.31 1852.97 919.91 1836.63 913.55 1821.18 919.89 1821.61 936.41 1837.52 947.86" style="fill:#708744"/><polygon points="1855.55 921.05 1849.05 925.9 1837.56 928.71 1827.44 926.46 1818.25 921.17 1824.57 912.95 1837.02 908.1 1848.7 912.33 1855.55 921.05" style="fill:#81965f"/><polygon points="1861.8 947.86 1877.63 934.31 1877.25 919.91 1860.91 913.55 1845.46 919.89 1845.89 936.41 1861.8 947.86" style="fill:#708744"/><polygon points="1879.83 921.05 1873.33 925.9 1861.84 928.71 1851.72 926.46 1842.53 921.17 1848.85 912.95 1861.3 908.1 1872.98 912.33 1879.83 921.05" style="fill:#81965f"/><polygon points="1883.88 947.86 1899.7 934.31 1899.33 919.91 1882.99 913.55 1867.53 919.89 1867.96 936.41 1883.88 947.86" style="fill:#708744"/><polygon points="1901.9 921.05 1895.4 925.9 1883.91 928.71 1873.79 926.46 1864.6 921.17 1870.92 912.95 1883.38 908.1 1895.05 912.33 1901.9 921.05" style="fill:#81965f"/><polygon points="1799.26 977.29 1815.09 963.74 1814.71 949.34 1798.38 942.98 1782.92 949.32 1783.35 965.84 1799.26 977.29" style="fill:#708744"/><polygon points="1817.29 950.48 1810.8 955.33 1799.3 958.14 1789.18 955.89 1779.99 950.6 1786.32 942.38 1798.77 937.53 1810.44 941.76 1817.29 950.48" style="fill:#81965f"/><polygon points="1825.02 977.29 1840.84 963.74 1840.47 949.34 1824.13 942.98 1808.67 949.32 1809.1 965.84 1825.02 977.29" style="fill:#708744"/><polygon points="1843.04 950.48 1836.55 955.33 1825.05 958.14 1814.93 955.89 1805.74 950.6 1812.07 942.38 1824.52 937.53 1836.19 941.76 1843.04 950.48" style="fill:#81965f"/><polygon points="1850.03 977.29 1865.85 963.74 1865.48 949.34 1849.14 942.98 1833.69 949.32 1834.12 965.84 1850.03 977.29" style="fill:#708744"/><polygon points="1868.05 950.48 1861.56 955.33 1850.07 958.14 1839.95 955.89 1830.75 950.6 1837.08 942.38 1849.53 937.53 1861.21 941.76 1868.05 950.48" style="fill:#81965f"/><polygon points="1874.31 977.29 1890.13 963.74 1889.76 949.34 1873.42 942.98 1857.97 949.32 1858.4 965.84 1874.31 977.29" style="fill:#708744"/><polygon points="1892.33 950.48 1885.84 955.33 1874.34 958.14 1864.22 955.89 1855.03 950.6 1861.36 942.38 1873.81 937.53 1885.49 941.76 1892.33 950.48" style="fill:#81965f"/><polygon points="1896.38 977.29 1912.21 963.74 1911.83 949.34 1895.49 942.98 1880.04 949.32 1880.47 965.84 1896.38 977.29" style="fill:#708744"/><polygon points="1914.41 950.48 1907.91 955.33 1896.42 958.14 1886.3 955.89 1877.11 950.6 1883.43 942.38 1895.88 937.53 1907.56 941.76 1914.41 950.48" style="fill:#81965f"/><polyline points="744.69 690.31 697.94 712.31 667.69 721.94 644.32 754.93 633.32 779.68 646.83 834.28 713.07 842.93 740.57 728.81" style="fill:#7c8c54"/><polygon points="975.59 1097.12 926.58 1143.67 880.21 1137.66 865.14 1082.8 890.75 1035.04 943.93 1041.94 975.59 1097.12" style="fill:#637f3b"/><polygon points="883.03 1146.34 900.86 1127.01 913.78 1090.84 909.88 1057.43 895.86 1026 867.24 1043.67 847.43 1082.24 857.17 1121.34 883.03 1146.34" style="fill:#7b935a"/><polygon points="865.69 363.07 924.81 398.82 905.56 398.82 975.69 473.06 953.69 473.06 1007.31 537.69 983.94 537.69 993.56 567.94 974.31 592.69 953.69 592.69 935.81 624.31 930.31 606.44 894.56 665.56 889.06 647.69 865.69 709.56 854.69 690.31 817.56 748.06 817.56 731.56 768.07 782.43 758.44 760.43 739.19 805.81 685.57 748.06 721.32 690.31 697.94 690.31 757.07 647.69 741.94 647.69 798.31 599.56 779.07 600.94 829.94 551.44 806.56 551.44 817.56 492.31 796.94 507.44 806.56 427.69 865.69 363.07" style="fill:#99bc6d"/><polygon points="893.53 1028.64 865.79 1092.02 819.67 1104.76 783.66 1059.01 788.84 1003.79 841.74 989.17 893.53 1028.64" style="fill:#637f3b"/><polygon points="825.77 1111.84 834.91 1086.52 832.73 1047.27 815.78 1017.31 790.07 993.23 770.1 1021.27 766.74 1065.51 791.45 1098.53 825.77 1111.84" style="fill:#7b935a"/><polygon points="707.68 987.45 713.92 920.14 752.77 894.14 800.24 925.5 812.42 978.31 767.86 1008.13 707.68 987.45" style="fill:#637f3b"/><polygon points="744.94 889.45 744.25 915.75 758.35 951.47 783.28 974.05 814.53 988.48 824.42 956.33 813.94 914.26 780.86 891.24 744.94 889.45" style="fill:#7b935a"/><polygon points="796.64 913.36 859.36 888.16 900.24 910.84 894.02 967.39 852.62 1002.35 805.72 976.34 796.64 913.36" style="fill:#637f3b"/><polygon points="900.83 901.74 877.12 913.13 851.78 941.99 843.09 974.48 844.53 1008.87 877.65 1002.99 910.28 974.45 915.65 934.51 900.83 901.74" style="fill:#7b935a"/><polygon points="966.42 884.51 984.76 949.57 957.84 987.79 902.27 975.56 871.95 930.64 902.84 886.81 966.42 884.51" style="fill:#637f3b"/><polygon points="841.95 1019.25 890.96 972.7 937.32 978.71 952.39 1033.57 926.79 1081.33 873.61 1074.43 841.95 1019.25" style="fill:#637f3b"/><polygon points="934.51 970.03 916.68 989.36 903.76 1025.53 907.66 1058.94 921.68 1090.37 950.29 1072.7 970.1 1034.13 960.37 995.03 934.51 970.03" style="fill:#7b935a"/><polygon points="647.88 982.49 711.77 960.41 751.48 985.07 742.49 1041.25 699.41 1074.13 653.86 1045.84 647.88 982.49" style="fill:#637f3b"/><polygon points="752.52 976 728.28 986.22 701.55 1013.8 691.27 1045.83 691.02 1080.24 724.39 1076 758.38 1049.09 765.71 1009.47 752.52 976" style="fill:#7b935a"/><polygon points="1149.8 1060.23 1122.06 996.85 1075.94 984.11 1039.93 1029.86 1045.11 1085.08 1098.01 1099.7 1149.8 1060.23" style="fill:#637f3b"/><polygon points="1082.04 977.03 1091.18 1002.36 1088.99 1041.6 1072.05 1071.56 1046.34 1095.64 1026.37 1067.6 1023 1023.36 1047.72 990.34 1082.04 977.03" style="fill:#7b935a"/><polygon points="1103.92 925.74 1041.2 900.54 1000.32 923.22 1006.54 979.77 1047.95 1014.73 1094.84 988.71 1103.92 925.74" style="fill:#637f3b"/><polygon points="999.73 914.11 1023.44 925.51 1048.78 954.37 1057.47 986.86 1056.03 1021.25 1022.91 1015.37 990.28 986.82 984.91 946.88 999.73 914.11" style="fill:#7b935a"/><polygon points="934.14 896.88 915.8 961.95 942.73 1000.16 998.29 987.93 1028.61 943.02 997.73 899.18 934.14 896.88" style="fill:#637f3b"/><polygon points="933.73 1001.72 942.53 976.93 968.51 948.65 999.88 936.53 1034.23 934.28 1031.92 967.84 1007.04 1003.34 967.9 1012.95 933.73 1001.72" style="fill:#7b935a"/><polygon points="1058.62 1031.62 1009.6 985.07 963.24 991.09 948.17 1045.94 973.77 1093.71 1026.95 1086.81 1058.62 1031.62" style="fill:#637f3b"/><polygon points="966.05 982.4 983.88 1001.74 996.8 1037.9 992.9 1071.32 978.88 1102.75 950.26 1085.07 930.46 1046.51 940.19 1007.4 966.05 982.4" style="fill:#7b935a"/><polygon points="1252.68 994.87 1188.79 972.78 1149.08 997.45 1158.07 1053.63 1201.15 1086.5 1246.7 1058.21 1252.68 994.87" style="fill:#637f3b"/><polygon points="1148.04 988.38 1172.28 998.6 1199.01 1026.18 1209.29 1058.2 1209.54 1092.62 1176.17 1088.37 1142.18 1061.47 1134.86 1021.84 1148.04 988.38" style="fill:#7b935a"/><polygon points="904.48 878.02 881.46 941.58 837.31 956.95 799.29 914.62 800.82 860.45 851.47 842.83 904.48 878.02" style="fill:#637f3b"/><polygon points="843.71 963.46 851.01 938.18 846.38 900.06 827.95 871.92 801.35 850.08 783.66 878.69 783.2 922.04 809.4 952.66 843.71 963.46" style="fill:#7b935a"/><polygon points="484.94 990.2 491.18 922.89 530.03 896.89 577.49 928.25 589.67 981.06 545.11 1010.88 484.94 990.2" style="fill:#637f3b"/><polygon points="522.19 892.2 521.5 918.5 535.6 954.22 560.53 976.8 591.78 991.23 601.68 959.08 591.19 917.01 558.12 893.99 522.19 892.2" style="fill:#7b935a"/><polygon points="528.02 1050.61 555.76 987.23 601.87 974.48 637.88 1020.24 632.7 1075.46 579.81 1090.08 528.02 1050.61" style="fill:#637f3b"/><polygon points="595.77 967.41 586.63 992.73 588.82 1031.97 605.76 1061.94 631.48 1086.02 651.45 1057.97 654.81 1013.73 630.09 980.72 595.77 967.41" style="fill:#7b935a"/><polygon points="573.89 916.11 636.62 890.91 677.49 913.59 671.28 970.14 629.87 1005.1 582.98 979.09 573.89 916.11" style="fill:#637f3b"/><polygon points="743.67 887.26 762.01 952.32 735.09 990.54 679.53 978.31 649.2 933.39 680.09 889.56 743.67 887.26" style="fill:#637f3b"/><polygon points="744.08 992.1 735.29 967.31 709.31 939.03 677.93 926.9 643.58 924.66 645.89 958.22 670.78 993.71 709.91 1003.32 744.08 992.1" style="fill:#7b935a"/><polygon points="639.82 1186.99 688.84 1140.45 735.2 1146.46 750.27 1201.32 724.67 1249.08 671.49 1242.18 639.82 1186.99" style="fill:#637f3b"/><polygon points="732.39 1137.77 714.56 1157.11 701.64 1193.28 705.53 1226.69 719.56 1258.12 748.17 1240.44 767.98 1201.88 758.25 1162.78 732.39 1137.77" style="fill:#7b935a"/><polygon points="425.13 985.24 489.02 963.16 528.74 987.82 519.75 1044 476.67 1076.88 431.11 1048.59 425.13 985.24" style="fill:#637f3b"/><polygon points="529.77 978.75 505.53 988.97 478.81 1016.55 468.52 1048.58 468.27 1082.99 501.64 1078.75 535.63 1051.84 542.96 1012.22 529.77 978.75" style="fill:#7b935a"/><polygon points="681.73 880.77 658.72 944.33 614.56 959.7 576.54 917.37 578.08 863.2 628.72 845.58 681.73 880.77" style="fill:#637f3b"/><polygon points="620.96 966.21 628.26 940.93 623.63 902.81 605.21 874.67 578.6 852.83 560.92 881.44 560.45 924.79 586.65 955.41 620.96 966.21" style="fill:#7b935a"/><polygon points="878.03 808.71 835.2 863.03 787.36 863.74 764.06 810.38 783 758.25 837.87 757.45 878.03 808.71" style="fill:#637f3b"/><polygon points="791.48 872.12 806.71 849.92 814.49 811.4 805.65 778.13 786.85 748.34 760.45 770.44 746.04 812.4 761.63 850.59 791.48 872.12" style="fill:#7b935a"/><polygon points="799.72 927.28 732.66 935.84 698.83 903.58 719.11 850.43 767.99 827.05 806.81 864.05 799.72 927.28" style="fill:#637f3b"/><polygon points="695.96 912.25 721.77 907.2 753.57 885.67 770.19 856.42 777.46 822.78 743.93 820.11 705.15 839.5 689.89 876.8 695.96 912.25" style="fill:#7b935a"/><polygon points="628.14 912.37 626.81 844.79 662.5 814.6 713.18 840.45 731.2 891.56 690.25 926.19 628.14 912.37" style="fill:#637f3b"/><polygon points="654.19 810.82 656.45 837.03 674.46 870.95 701.76 890.6 734.43 901.43 740.66 868.38 725.53 827.75 690.09 808.58 654.19 810.82" style="fill:#7b935a"/><polygon points="492.02 971.5 490.68 903.91 526.38 873.72 577.06 899.58 595.07 950.68 554.13 985.31 492.02 971.5" style="fill:#637f3b"/><polygon points="518.07 869.95 520.33 896.15 538.34 930.07 565.64 949.72 598.31 960.55 604.54 927.5 589.41 886.87 553.97 867.7 518.07 869.95" style="fill:#7b935a"/><polygon points="476.7 1073.53 415.25 1101.71 373.33 1081.02 376.83 1024.24 416.51 987.33 464.6 1011.06 476.7 1073.53" style="fill:#637f3b"/><polygon points="373.18 1090.15 396.31 1077.62 420.24 1047.58 427.37 1014.71 424.27 980.43 391.47 987.89 360.25 1017.97 356.81 1058.13 373.18 1090.15" style="fill:#7b935a"/><polygon points="1235.88 1095.25 1234.55 1027.66 1270.24 997.47 1320.92 1023.32 1338.94 1074.43 1297.99 1109.06 1235.88 1095.25" style="fill:#637f3b"/><polygon points="1261.93 993.69 1264.19 1019.9 1282.2 1053.82 1309.5 1073.47 1342.17 1084.3 1348.4 1051.25 1333.28 1010.62 1297.83 991.45 1261.93 993.69" style="fill:#7b935a"/><polygon points="782.58 813.39 723.41 846.07 680.06 828.56 679.32 771.67 716.14 731.91 765.86 752 782.58 813.39" style="fill:#6a8440"/><polygon points="680.59 837.67 702.72 823.46 724.35 791.72 729 758.41 723.37 724.45 691.21 734.34 662.32 766.66 661.88 806.96 680.59 837.67" style="fill:#7b935a"/><polygon points="961.31 968.93 947.38 902.79 976.81 866.46 1031.42 882.4 1058.66 929.24 1024.91 970.91 961.31 968.93" style="fill:#637f3b"/><polygon points="967.94 864.3 975.05 889.63 999.08 919.59 1029.57 933.79 1063.68 938.34 1063.64 904.7 1041.19 867.61 1002.79 855.4 967.94 864.3" style="fill:#7b935a"/><circle cx="790.06" cy="349.32" r="45.37" style="fill:#fff"/><circle cx="776.31" cy="378.19" r="12.37" style="fill:#324915"/><polygon points="1242.18 482.65 1202.48 317.53 1215.65 180.02 1300.18 58.02 1491.34 0 1681.06 47.65 1790.33 210.76 1810.96 375.79 1726.48 551.57 1549.23 609.19 1430.44 552.49 1388.87 472.41 1393.92 365.35 1454.11 298.26 1535.58 262.69 1502.59 263 1424.16 284.98 1381.71 334.69 1363.85 407.57 1357.34 493.68 1373.51 578.49 1430.76 668.97 1434 743.86 1421.53 801.65 1387.28 869.49 1330.99 933.95 1242.18 482.65" style="fill:#8baa5f"/><polygon points="1143.22 317.69 1188.83 359.37 1175.8 366.32 1212.28 402.45 1194.04 409.39 1250.07 423.29 1282.64 445.52 1253.98 445.52 1346.49 513.6 1319.13 513.6 1363.43 581.68 1338.67 581.68 1363.43 631.7 1363.43 699.78 1336.07 819.27 1143.22 966.55 915.2 833.16 834.06 781.75 850.74 738.68 841.01 735.91 860.46 699.78 852.13 699.78 878.52 652.54 866.02 652.54 951.68 487.2 1143.22 317.69" style="fill:#8baa5f"/><polygon points="1140.68 308.07 1140.68 352.07 1125.56 352.07 1125.56 383.69 1102.18 376.82 1109.06 418.06 1089.81 411.19 1089.81 445.56 1052.68 460.69 1063.68 514.31 1041.68 514.31 1032.06 534.94 1016.94 534.94 1000.44 569.31 975.69 569.31 956.44 569.31 919.31 587.19 890.03 587.19 865.69 587.19 831.31 587.19 809.31 574.81 791.44 545.94 909.69 294.32 1140.68 308.07" style="fill:#8fb266"/><polygon points="856.75 266.13 840.25 218.01 885.63 154.76 885.63 209.76 920 248.26 856.75 266.13" style="fill:#8baa5f"/><polygon points="854.1 250.74 791.79 344.93 771.5 479.7 773.57 512.94 880.81 512.94 906.99 478.98 966.4 380.44 1046.11 322.47 1140.68 308.07 1012.05 229.01 854.1 250.74" style="fill:#95c16b"/><polygon points="1063.68 286.07 1063.68 228.32 1121.43 171.94 1121.43 248.94 1140.68 308.07 1063.68 286.07" style="fill:#95c16b"/><polygon points="773.78 512.94 791.62 496.44 866.92 496.44 880.81 512.94 858.11 550.06 794.86 550.06 773.78 512.94" style="fill:#637f3b"/><circle cx="1032.06" cy="352.07" r="45.37" style="fill:#fff"/><circle cx="1030.69" cy="380.94" r="12.37" style="fill:#324915"/><polygon points="806.56 569.31 820.31 599.56 846.44 599.56 828.56 569.31 806.56 569.31" style="fill:#ccd8bc"/><polygon points="835.44 569.31 849.19 599.56 875.31 599.56 857.44 569.31 835.44 569.31" style="fill:#ccd8bc"/><polygon points="865.75 891.11 867.13 823.53 904.01 794.8 953.61 822.67 969.55 874.47 927.25 907.42 865.75 891.11" style="fill:#637f3b"/><polygon points="895.86 790.69 897.07 816.97 913.69 851.59 940.18 872.32 972.39 884.46 979.95 851.68 966.47 810.48 931.82 789.9 895.86 790.69" style="fill:#7b935a"/><polygon points="713.86 1091.8 707.62 1159.11 668.77 1185.11 621.3 1153.74 609.13 1100.94 653.69 1071.11 713.86 1091.8" style="fill:#637f3b"/><polygon points="676.6 1189.79 677.29 1163.5 663.2 1127.78 638.27 1105.19 607.02 1090.77 597.12 1122.92 607.61 1164.98 640.68 1188 676.6 1189.79" style="fill:#7b935a"/><polygon points="624.91 1165.88 562.18 1191.08 521.3 1168.4 527.52 1111.85 568.93 1076.89 615.82 1102.91 624.91 1165.88" style="fill:#637f3b"/><polygon points="520.72 1177.51 544.42 1166.11 569.76 1137.26 578.46 1104.76 577.01 1070.37 543.89 1076.26 511.26 1104.8 505.9 1144.74 520.72 1177.51" style="fill:#7b935a"/><polygon points="455.13 1194.74 436.78 1129.67 463.71 1091.46 519.27 1103.69 549.59 1148.6 518.71 1192.44 455.13 1194.74" style="fill:#637f3b"/><polygon points="454.71 1089.9 463.51 1114.69 489.49 1142.97 520.87 1155.1 555.21 1157.34 552.91 1123.78 528.02 1088.28 488.88 1078.67 454.71 1089.9" style="fill:#7b935a"/><polygon points="579.6 1060 530.58 1106.55 484.22 1100.54 469.15 1045.68 494.76 997.91 547.93 1004.81 579.6 1060" style="fill:#637f3b"/><polygon points="487.03 1109.22 504.87 1089.88 517.78 1053.72 513.89 1020.31 499.87 988.87 471.25 1006.55 451.44 1045.11 461.18 1084.22 487.03 1109.22" style="fill:#7b935a"/><polygon points="773.67 1096.75 709.78 1118.84 670.06 1094.17 679.05 1038 722.13 1005.12 767.68 1033.41 773.67 1096.75" style="fill:#637f3b"/><polygon points="487.4 1182.36 505.75 1117.3 478.82 1079.08 423.26 1091.32 392.93 1136.23 423.82 1180.07 487.4 1182.36" style="fill:#637f3b"/><polygon points="487.81 1077.52 479.02 1102.31 453.04 1130.6 421.66 1142.72 387.31 1144.96 389.62 1111.41 414.51 1075.91 453.64 1066.3 487.81 1077.52" style="fill:#7b935a"/><polygon points="398.03 1189.24 416.37 1124.17 389.45 1085.96 333.88 1098.19 303.56 1143.1 334.44 1186.94 398.03 1189.24" style="fill:#637f3b"/><polygon points="398.44 1084.4 389.64 1109.19 363.66 1137.47 332.29 1149.6 297.94 1151.84 300.25 1118.28 325.13 1082.78 364.27 1073.17 398.44 1084.4" style="fill:#7b935a"/><polygon points="122.99 1243.25 97.37 1180.69 52.62 1167.17 16.38 1211.03 20.15 1265.09 71.48 1280.6 122.99 1243.25" style="fill:#637f3b"/><polygon points="58.75 1160.4 67.08 1185.35 64.04 1223.63 46.78 1252.51 21.11 1275.43 2.25 1247.57 0 1204.28 24.91 1172.6 58.75 1160.4" style="fill:#7b935a"/><polygon points="517.07 1201.22 540.08 1137.66 584.24 1122.3 622.25 1164.62 620.72 1218.79 570.07 1236.41 517.07 1201.22" style="fill:#637f3b"/><polygon points="577.84 1115.79 570.54 1141.06 575.16 1179.19 593.59 1207.33 620.2 1229.17 637.88 1200.55 638.35 1157.2 612.14 1126.58 577.84 1115.79" style="fill:#7b935a"/><polygon points="936.61 1089.05 930.37 1156.36 891.52 1182.36 844.05 1150.99 831.87 1098.19 876.43 1068.36 936.61 1089.05" style="fill:#637f3b"/><polygon points="899.35 1187.04 900.04 1160.75 885.95 1125.03 861.01 1102.44 829.76 1088.02 819.87 1120.17 830.35 1162.23 863.43 1185.25 899.35 1187.04" style="fill:#7b935a"/><polygon points="847.65 1163.13 784.93 1188.33 744.05 1165.65 750.27 1109.1 791.68 1074.14 838.57 1100.16 847.65 1163.13" style="fill:#637f3b"/><polygon points="677.87 1191.99 659.53 1126.92 686.46 1088.71 742.02 1100.94 772.34 1145.85 741.46 1189.69 677.87 1191.99" style="fill:#637f3b"/><polygon points="710.15 1179.61 728.49 1114.55 701.57 1076.33 646 1088.57 615.68 1133.48 646.57 1177.32 710.15 1179.61" style="fill:#637f3b"/><polygon points="739.81 1198.47 762.83 1134.91 806.98 1119.55 845 1161.87 843.47 1216.04 792.82 1233.66 739.81 1198.47" style="fill:#637f3b"/><polygon points="800.58 1113.04 793.28 1138.31 797.91 1176.44 816.34 1204.58 842.94 1226.42 860.63 1197.8 861.09 1154.45 834.89 1123.83 800.58 1113.04" style="fill:#7b935a"/><polygon points="621.83 1151.97 688.88 1143.4 722.72 1175.66 702.44 1228.82 653.55 1252.2 614.74 1215.2 621.83 1151.97" style="fill:#637f3b"/><polygon points="725.59 1167 699.77 1172.05 667.97 1193.58 651.36 1222.83 644.08 1256.47 677.62 1259.13 716.39 1239.74 731.66 1202.45 725.59 1167" style="fill:#7b935a"/><polygon points="929.52 1107.75 930.86 1175.33 895.17 1205.52 844.49 1179.67 826.47 1128.56 867.41 1093.93 929.52 1107.75" style="fill:#637f3b"/><polygon points="903.48 1209.3 901.22 1183.09 883.21 1149.17 855.91 1129.53 823.24 1118.69 817 1151.74 832.13 1192.37 867.58 1211.54 903.48 1209.3" style="fill:#7b935a"/><polygon points="460.44 1181.34 527.84 1176.09 560.05 1209.97 537.18 1262.06 487.2 1283.01 450.25 1244.15 460.44 1181.34" style="fill:#637f3b"/><polygon points="563.34 1201.46 537.3 1205.23 504.48 1225.17 486.45 1253.57 477.53 1286.81 510.89 1291.12 550.58 1273.66 567.66 1237.16 563.34 1201.46" style="fill:#7b935a"/><polygon points="271.41 1212.03 348.12 1206.05 384.77 1244.61 358.74 1303.9 301.86 1327.74 259.81 1283.51 271.41 1212.03" style="fill:#637f3b"/><polygon points="388.52 1234.92 358.89 1239.22 321.54 1261.92 301.01 1294.23 290.86 1332.07 328.83 1336.97 373.99 1317.1 393.44 1275.56 388.52 1234.92" style="fill:#7b935a"/><polygon points="1109.85 1128.92 1103.61 1196.23 1064.76 1222.23 1017.3 1190.87 1005.12 1138.06 1049.68 1108.24 1109.85 1128.92" style="fill:#637f3b"/><polygon points="1072.6 1226.92 1073.29 1200.62 1059.19 1164.9 1034.26 1142.32 1003.01 1127.89 993.11 1160.04 1003.6 1202.11 1036.68 1225.13 1072.6 1226.92" style="fill:#7b935a"/><polygon points="1020.9 1203.01 958.18 1228.21 917.3 1205.53 923.51 1148.98 964.92 1114.02 1011.81 1140.04 1020.9 1203.01" style="fill:#637f3b"/><polygon points="916.71 1214.63 940.41 1203.24 965.75 1174.38 974.45 1141.89 973.01 1107.5 939.89 1113.38 907.26 1141.92 901.89 1181.86 916.71 1214.63" style="fill:#7b935a"/><polygon points="1169.66 1133.88 1105.77 1155.96 1066.06 1131.3 1075.05 1075.12 1118.12 1042.24 1163.68 1070.53 1169.66 1133.88" style="fill:#637f3b"/><polygon points="1065.02 1140.37 1089.26 1130.15 1115.99 1102.57 1126.27 1070.54 1126.52 1036.13 1093.15 1040.37 1059.16 1067.28 1051.83 1106.9 1065.02 1140.37" style="fill:#7b935a"/><polygon points="913.06 1238.35 936.08 1174.79 980.23 1159.42 1018.25 1201.75 1016.71 1255.92 966.07 1273.54 913.06 1238.35" style="fill:#637f3b"/><polygon points="973.83 1152.91 966.53 1178.19 971.16 1216.31 989.59 1244.45 1016.19 1266.29 1033.88 1237.68 1034.34 1194.33 1008.14 1163.71 973.83 1152.91" style="fill:#7b935a"/><polygon points="1332.6 1126.17 1326.36 1193.48 1287.51 1219.48 1240.05 1188.12 1227.87 1135.31 1272.43 1105.49 1332.6 1126.17" style="fill:#637f3b"/><polygon points="1295.34 1224.17 1296.03 1197.87 1281.94 1162.15 1257.01 1139.57 1225.76 1125.14 1215.86 1157.29 1226.35 1199.36 1259.42 1222.38 1295.34 1224.17" style="fill:#7b935a"/><polygon points="1289.52 1065.77 1261.78 1129.14 1215.66 1141.89 1179.66 1096.13 1184.83 1040.91 1237.73 1026.29 1289.52 1065.77" style="fill:#637f3b"/><polygon points="1221.77 1148.96 1230.9 1123.64 1228.72 1084.4 1211.77 1054.43 1186.06 1030.36 1166.09 1058.4 1162.73 1102.64 1187.45 1135.65 1221.77 1148.96" style="fill:#7b935a"/><polygon points="1243.65 1200.26 1180.92 1225.46 1140.04 1202.78 1146.26 1146.23 1187.67 1111.27 1234.56 1137.29 1243.65 1200.26" style="fill:#637f3b"/><polygon points="1139.46 1211.88 1163.16 1200.49 1188.5 1171.63 1197.2 1139.14 1195.75 1104.75 1162.63 1110.63 1130.01 1139.17 1124.64 1179.11 1139.46 1211.88" style="fill:#7b935a"/><polygon points="1073.87 1229.11 1055.52 1164.05 1082.45 1125.83 1138.01 1138.07 1168.34 1182.98 1137.45 1226.81 1073.87 1229.11" style="fill:#637f3b"/><polygon points="1073.46 1124.27 1082.25 1149.06 1108.23 1177.34 1139.61 1189.47 1173.95 1191.71 1171.65 1158.15 1146.76 1122.66 1107.63 1113.05 1073.46 1124.27" style="fill:#7b935a"/><polygon points="1198.34 1094.37 1149.32 1140.92 1102.96 1134.91 1087.89 1080.05 1113.5 1032.29 1166.67 1039.19 1198.34 1094.37" style="fill:#637f3b"/><polygon points="1105.77 1143.59 1123.61 1124.26 1136.52 1088.09 1132.63 1054.68 1118.61 1023.25 1089.99 1040.92 1070.18 1079.49 1079.92 1118.59 1105.77 1143.59" style="fill:#7b935a"/><polygon points="1283.59 956.88 1234.57 1003.42 1188.21 997.41 1173.14 942.55 1198.74 894.79 1251.92 901.69 1283.59 956.88" style="fill:#637f3b"/><polygon points="1191.02 1006.1 1208.85 986.76 1221.77 950.59 1217.88 917.18 1203.86 885.75 1175.24 903.43 1155.43 941.99 1165.16 981.1 1191.02 1006.1" style="fill:#7b935a"/><polygon points="1256.68 1140.87 1275.09 1075.83 1318.03 1057.34 1358.98 1096.84 1361.32 1150.98 1312.07 1172.18 1256.68 1140.87" style="fill:#637f3b"/><polygon points="1311.18 1051.31 1305.71 1077.04 1313.05 1114.73 1333.44 1141.48 1361.54 1161.36 1377.13 1131.56 1374.5 1088.29 1346.17 1059.62 1311.18 1051.31" style="fill:#7b935a"/><polygon points="1106.14 1216.74 1124.48 1151.67 1097.56 1113.46 1042 1125.69 1011.67 1170.6 1042.56 1214.44 1106.14 1216.74" style="fill:#637f3b"/><polygon points="1106.55 1111.9 1097.76 1136.69 1071.78 1164.97 1040.4 1177.1 1006.05 1179.34 1008.36 1145.78 1033.25 1110.28 1072.38 1100.67 1106.55 1111.9" style="fill:#7b935a"/><polygon points="1135.81 1235.6 1158.82 1172.04 1202.97 1156.67 1240.99 1199 1239.46 1253.17 1188.81 1270.79 1135.81 1235.6" style="fill:#637f3b"/><polygon points="1196.58 1150.17 1189.28 1175.44 1193.9 1213.56 1212.33 1241.7 1238.93 1263.54 1256.62 1234.93 1257.09 1191.58 1230.88 1160.96 1196.58 1150.17" style="fill:#7b935a"/><polygon points="1017.82 1189.09 1084.88 1180.53 1118.71 1212.79 1098.43 1265.94 1049.54 1289.32 1010.73 1252.32 1017.82 1189.09" style="fill:#637f3b"/><polygon points="1121.58 1204.12 1095.77 1209.17 1063.96 1230.7 1047.35 1259.95 1040.08 1293.6 1073.61 1296.26 1112.38 1276.87 1127.65 1239.57 1121.58 1204.12" style="fill:#7b935a"/><polygon points="1189.39 1204 1190.73 1271.58 1155.04 1301.77 1104.36 1275.92 1086.34 1224.81 1127.29 1190.18 1189.39 1204" style="fill:#637f3b"/><polygon points="1163.35 1305.55 1161.09 1279.34 1143.08 1245.42 1115.78 1225.77 1083.11 1214.94 1076.87 1247.99 1092 1288.62 1127.45 1307.79 1163.35 1305.55" style="fill:#7b935a"/><polygon points="1314.74 1334.82 1270.04 1385.53 1223.33 1383.65 1203.46 1330.34 1224.73 1280.5 1278.31 1282.65 1314.74 1334.82" style="fill:#637f3b"/><polygon points="1226.9 1392.05 1242.95 1371.21 1252.61 1334.04 1245.77 1301.11 1229.02 1271.04 1202.08 1291.18 1185.77 1331.35 1198.93 1369.44 1226.9 1392.05" style="fill:#7b935a"/><polygon points="1325.52 1144.87 1326.85 1212.46 1291.16 1242.65 1240.48 1216.8 1222.46 1165.69 1263.41 1131.06 1325.52 1144.87" style="fill:#637f3b"/><polygon points="1299.47 1246.42 1297.21 1220.22 1279.2 1186.3 1251.9 1166.65 1219.23 1155.82 1213 1188.87 1228.13 1229.5 1263.57 1248.67 1299.47 1246.42" style="fill:#7b935a"/><polygon points="1408.46 1239.08 1395.53 1172.73 1425.5 1136.86 1479.87 1153.62 1506.4 1200.87 1472.02 1242.02 1408.46 1239.08" style="fill:#637f3b"/><polygon points="1416.67 1134.57 1423.4 1159.99 1446.97 1190.32 1477.24 1204.98 1511.29 1210.04 1511.75 1176.4 1489.86 1138.98 1451.64 1126.19 1416.67 1134.57" style="fill:#7b935a"/><polygon points="864.93 1211.61 932.25 1217.8 958.28 1256.63 926.96 1304.12 874.16 1316.34 844.3 1271.8 864.93 1211.61" style="fill:#637f3b"/><polygon points="962.96 1248.79 936.67 1248.12 900.95 1262.24 878.39 1287.19 863.99 1318.46 896.15 1328.33 938.21 1317.81 961.2 1284.71 962.96 1248.79" style="fill:#7b935a"/><polygon points="899.85 859.73 832.59 852.9 806.93 813.83 838.7 766.63 891.61 754.91 921.05 799.74 899.85 859.73" style="fill:#637f3b"/><polygon points="802.18 821.62 828.46 822.54 864.31 808.75 887.11 784.02 901.8 752.9 869.74 742.72 827.58 752.84 804.28 785.71 802.18 821.62" style="fill:#7b935a"/><polygon points="1218.08 450.51 1269.42 482.27 1252.37 481.68 1312.35 546.04 1292.86 545.37 1338.5 601.16 1317.8 600.45 1325.46 626.1 1307.7 646.26 1289.43 645.63 1272.7 671.6 1268.34 656.45 1234.99 704.92 1230.63 689.77 1208.16 740.92 1198.97 724.46 1164.43 771.74 1164.91 757.91 1119.62 799.05 1111.72 780.32 1093.37 817.76 1026.64 772.79 1080.85 720.42 1060.15 719.71 1113.73 685.78 1100.34 685.32 1151.64 646.69 1134.56 647.26 1181.03 607.31 1160.33 606.61 1171.76 557.38 1153.07 569.44 1163.87 502.89 1218.08 450.51" style="fill:#99bc6d"/><polygon points="989.74 771.59 976.8 705.24 1006.78 669.37 1061.15 686.12 1087.68 733.38 1053.3 774.53 989.74 771.59" style="fill:#637f3b"/><polygon points="997.94 667.07 1004.67 692.5 1028.24 722.82 1058.51 737.49 1092.56 742.54 1093.02 708.91 1071.13 671.49 1032.92 658.69 997.94 667.07" style="fill:#7b935a"/><polygon points="1111.81 284.69 1087.06 275.07 1099.43 222.82 1111.81 284.69" style="fill:#5a842d"/><polygon points="1282.31 999.68 1282.31 1028.56 1294.68 1071.18 1301.56 1028.56 1301.56 999.68 1282.31 999.68" style="fill:#ccd8bc"/><polygon points="891.72 1270.37 842.7 1316.92 796.34 1310.91 781.27 1256.05 806.88 1208.29 860.05 1215.18 891.72 1270.37" style="fill:#637f3b"/><polygon points="799.15 1319.59 816.99 1300.26 829.9 1264.09 826.01 1230.68 811.99 1199.24 783.37 1216.92 763.56 1255.49 773.3 1294.59 799.15 1319.59" style="fill:#7b935a"/><polygon points="793.4 1166.87 794.74 1234.46 759.04 1264.65 708.36 1238.8 690.35 1187.69 731.29 1153.06 793.4 1166.87" style="fill:#637f3b"/><polygon points="767.35 1268.42 765.09 1242.22 747.09 1208.3 719.78 1188.65 687.11 1177.82 680.88 1210.87 696.01 1251.5 731.46 1270.67 767.35 1268.42" style="fill:#7b935a"/><polygon points="883.4 1219.49 901.74 1154.42 874.81 1116.21 819.25 1128.44 788.93 1173.35 819.81 1217.19 883.4 1219.49" style="fill:#637f3b"/><polygon points="883.81 1114.65 875.01 1139.44 849.03 1167.72 817.65 1179.85 783.31 1182.09 785.61 1148.53 810.5 1113.03 849.64 1103.42 883.81 1114.65" style="fill:#7b935a"/><polyline points="547.35 1024.02 543.99 1068.26 568.71 1101.28 603.03 1114.59 612.16 1089.27 609.98 1050.02 593.03 1020.06" style="fill:#7b935a"/><polygon points="1066.77 1068.52 1039.03 1131.89 992.92 1144.64 956.91 1098.88 962.09 1043.66 1014.98 1029.04 1066.77 1068.52" style="fill:#637f3b"/><polygon points="750.76 1047.86 778.5 984.48 824.62 971.73 860.63 1017.49 855.45 1072.71 802.55 1087.33 750.76 1047.86" style="fill:#637f3b"/><polygon points="851.12 1231.86 832.78 1166.8 859.7 1128.58 915.26 1140.82 945.59 1185.73 914.7 1229.56 851.12 1231.86" style="fill:#637f3b"/><polygon points="850.71 1127.02 859.51 1151.81 885.49 1180.09 916.86 1192.22 951.21 1194.46 948.9 1160.9 924.01 1125.41 884.88 1115.8 850.71 1127.02" style="fill:#7b935a"/><polygon points="1192.88 999.83 1186.64 932.51 1147.79 906.51 1100.32 937.88 1088.14 990.68 1132.7 1020.51 1192.88 999.83" style="fill:#637f3b"/><polygon points="1155.62 901.83 1156.31 928.12 1142.21 963.85 1117.28 986.43 1086.03 1000.85 1076.14 968.7 1086.62 926.64 1119.7 903.62 1155.62 901.83" style="fill:#7b935a"/><polygon points="832.69 852.56 627.82 911.68 427.07 1014.81 477.94 1102.81 820.31 1216.93 1115.93 1225.18 1264.43 1131.68 1213.56 1053.31 1117.31 987.31 968.81 948.81 832.69 852.56" style="fill:#637f3b"/><polygon points="546.53 1059.99 564.87 994.93 537.94 956.71 482.38 968.94 452.06 1013.86 482.94 1057.69 546.53 1059.99" style="fill:#708744"/><polygon points="546.94 955.15 538.14 979.94 512.16 1008.22 480.79 1020.35 446.44 1022.59 448.74 989.03 473.63 953.53 512.77 943.92 546.94 955.15" style="fill:#81965f"/><polygon points="1587.46 779.44 1629.29 743.7 1628.35 705.66 1585.21 688.81 1544.38 705.5 1545.46 749.14 1587.46 779.44" style="fill:#708744"/><polygon points="1635.14 708.67 1617.98 721.47 1587.6 728.87 1560.88 722.89 1536.62 708.88 1553.35 687.2 1586.25 674.43 1617.09 685.62 1635.14 708.67" style="fill:#81965f"/><polygon points="1558.31 845.45 1600.14 809.71 1599.2 771.66 1556.06 754.82 1515.23 771.51 1516.31 815.15 1558.31 845.45" style="fill:#708744"/><polygon points="1605.99 774.68 1588.83 787.48 1558.45 794.87 1531.73 788.89 1507.47 774.88 1524.2 753.21 1557.1 740.44 1587.94 751.63 1605.99 774.68" style="fill:#81965f"/><polygon points="1616.61 845.51 1658.44 809.77 1657.49 771.73 1614.36 754.88 1573.52 771.57 1574.61 815.21 1616.61 845.51" style="fill:#708744"/><polygon points="1664.29 774.74 1647.13 787.54 1616.75 794.94 1590.03 788.96 1565.77 774.95 1582.5 753.27 1615.4 740.5 1646.23 751.69 1664.29 774.74" style="fill:#81965f"/><polygon points="1523.33 919.23 1565.16 883.48 1564.22 845.44 1521.08 828.6 1480.25 845.29 1481.33 888.92 1523.33 919.23" style="fill:#708744"/><polygon points="1571.01 848.45 1553.85 861.25 1523.47 868.65 1496.76 862.67 1472.49 848.66 1489.23 826.99 1522.12 814.21 1552.96 825.4 1571.01 848.45" style="fill:#81965f"/><polygon points="1587.46 919.3 1629.29 883.55 1628.35 845.51 1585.21 828.67 1544.38 845.36 1545.46 888.99 1587.46 919.3" style="fill:#708744"/><polygon points="1635.14 848.52 1617.98 861.32 1587.6 868.72 1560.88 862.74 1536.62 848.73 1553.35 827.05 1586.25 814.28 1617.09 825.47 1635.14 848.52" style="fill:#81965f"/><polygon points="1645.76 919.36 1687.59 883.61 1686.64 845.57 1643.51 828.73 1602.67 845.42 1603.76 889.05 1645.76 919.36" style="fill:#708744"/><polygon points="1693.44 848.58 1676.27 861.38 1645.9 868.78 1619.18 862.8 1594.92 848.79 1611.65 827.12 1644.55 814.34 1675.38 825.53 1693.44 848.58" style="fill:#81965f"/><polygon points="1494.24 985.36 1536.03 949.57 1535.05 911.53 1491.89 894.74 1451.08 911.47 1452.21 955.1 1494.24 985.36" style="fill:#708744"/><polygon points="1541.84 914.54 1524.69 927.36 1494.33 934.78 1467.6 928.83 1443.33 914.85 1460.04 893.16 1492.92 880.35 1523.77 891.51 1541.84 914.54" style="fill:#81965f"/><polygon points="1560.31 985.36 1602.1 949.57 1601.12 911.53 1557.96 894.74 1517.15 911.47 1518.28 955.1 1560.31 985.36" style="fill:#708744"/><polygon points="1607.91 914.54 1590.76 927.36 1560.4 934.78 1533.67 928.83 1509.4 914.85 1526.11 893.16 1558.99 880.35 1589.84 891.51 1607.91 914.54" style="fill:#81965f"/><polygon points="1624.44 985.36 1666.23 949.57 1665.24 911.53 1622.09 894.74 1581.27 911.47 1582.4 955.1 1624.44 985.36" style="fill:#708744"/><polygon points="1672.04 914.54 1654.89 927.36 1624.53 934.78 1597.8 928.83 1573.52 914.85 1590.23 893.16 1623.12 880.35 1653.96 891.51 1672.04 914.54" style="fill:#81965f"/><polygon points="1682.73 985.36 1724.53 949.57 1723.54 911.53 1680.39 894.74 1639.57 911.47 1640.7 955.1 1682.73 985.36" style="fill:#708744"/><polygon points="1730.34 914.54 1713.19 927.36 1682.83 934.78 1656.1 928.83 1631.82 914.85 1648.53 893.16 1681.41 880.35 1712.26 891.51 1730.34 914.54" style="fill:#81965f"/><polygon points="1459.26 1063.09 1501.05 1027.3 1500.07 989.26 1456.91 972.47 1416.1 989.2 1417.23 1032.83 1459.26 1063.09" style="fill:#708744"/><polygon points="1506.86 992.27 1489.71 1005.09 1459.35 1012.51 1432.62 1006.57 1408.35 992.58 1425.06 970.89 1457.94 958.08 1488.79 969.24 1506.86 992.27" style="fill:#81965f"/><polygon points="1527.27 1063.09 1569.07 1027.3 1568.08 989.26 1524.93 972.47 1484.11 989.2 1485.24 1032.83 1527.27 1063.09" style="fill:#708744"/><polygon points="1574.88 992.27 1557.73 1005.09 1527.36 1012.51 1500.64 1006.57 1476.36 992.58 1493.07 970.89 1525.95 958.08 1556.8 969.24 1574.88 992.27" style="fill:#81965f"/><polygon points="1593.34 1063.09 1635.14 1027.3 1634.15 989.26 1591 972.47 1550.18 989.2 1551.31 1032.83 1593.34 1063.09" style="fill:#708744"/><polygon points="1640.95 992.27 1623.8 1005.09 1593.43 1012.51 1566.71 1006.57 1542.43 992.58 1559.14 970.89 1592.03 958.08 1622.87 969.24 1640.95 992.27" style="fill:#81965f"/><polygon points="1657.47 1063.09 1699.27 1027.3 1698.28 989.26 1655.12 972.47 1614.31 989.2 1615.44 1032.83 1657.47 1063.09" style="fill:#708744"/><polygon points="1705.08 992.27 1687.93 1005.09 1657.56 1012.51 1630.84 1006.57 1606.56 992.58 1623.27 970.89 1656.15 958.08 1687 969.24 1705.08 992.27" style="fill:#81965f"/><polygon points="1715.77 1063.09 1757.56 1027.3 1756.58 989.26 1713.42 972.47 1672.61 989.2 1673.74 1032.83 1715.77 1063.09" style="fill:#708744"/><polygon points="1763.37 992.27 1746.23 1005.09 1715.86 1012.51 1689.13 1006.57 1664.86 992.58 1681.57 970.89 1714.45 958.08 1745.3 969.24 1763.37 992.27" style="fill:#81965f"/><polygon points="599.08 991.4 580.74 1056.46 607.66 1094.68 663.22 1082.45 693.55 1037.53 662.66 993.7 599.08 991.4" style="fill:#708744"/><polygon points="598.67 1096.24 607.47 1071.45 633.45 1043.17 664.82 1031.04 699.17 1028.8 696.86 1062.36 671.97 1097.85 632.84 1107.46 598.67 1096.24" style="fill:#81965f"/><polygon points="1047.32 1097.27 1028.98 1162.34 1055.9 1200.55 1111.47 1188.32 1141.79 1143.41 1110.91 1099.57 1047.32 1097.27" style="fill:#708744"/><polygon points="1046.91 1202.11 1055.71 1177.32 1081.69 1149.04 1113.06 1136.91 1147.41 1134.67 1145.11 1168.23 1120.22 1203.73 1081.08 1213.34 1046.91 1202.11" style="fill:#81965f"/><polygon points="1144.94 1001.02 1126.6 1066.09 1153.53 1104.3 1209.09 1092.07 1239.41 1047.16 1208.53 1003.32 1144.94 1001.02" style="fill:#708744"/><polygon points="1144.54 1105.86 1153.33 1081.08 1179.31 1052.79 1210.69 1040.67 1245.03 1038.42 1242.73 1071.98 1217.84 1107.48 1178.7 1117.09 1144.54 1105.86" style="fill:#81965f"/><polygon points="656.51 994.85 697.59 950.69 691.79 909.38 642.71 896.45 600.34 919.73 606.99 967.11 656.51 994.85" style="fill:#708744"/><polygon points="699.57 911.81 682.48 927.9 650.34 939.76 620.49 936.59 592.32 924.37 607.83 898.68 642.05 880.65 677.02 888.98 699.57 911.81" style="fill:#81965f"/><polygon points="855.4 1243.78 915.4 1249.95 944.87 1220.44 925.62 1173.48 881.51 1153.69 847.7 1187.54 855.4 1243.78" style="fill:#708744"/><polygon points="947.62 1228.11 924.48 1224.17 895.65 1205.66 880.19 1179.93 872.97 1150.09 902.82 1146.98 937.82 1163.43 952.26 1196.36 947.62 1228.11" style="fill:#81965f"/><polygon points="876.03 972.91 936.02 979.08 965.49 949.57 946.24 902.61 902.13 882.82 868.32 916.67 876.03 972.91" style="fill:#708744"/><polygon points="968.24 957.24 945.11 953.3 916.27 934.79 900.82 909.06 893.59 879.22 923.44 876.11 958.45 892.56 972.88 925.49 968.24 957.24" style="fill:#81965f"/><polygon points="850.84 833.36 790.54 832.42 763.74 864.37 786.99 909.49 832.65 925.38 863.39 888.72 850.84 833.36" style="fill:#708744"/><polygon points="760.34 856.97 783.72 858.89 814.05 874.83 831.68 899.12 841.47 928.23 812 933.91 775.7 920.56 758.47 889.01 760.34 856.97" style="fill:#81965f"/><polygon points="780.66 1023.26 800.36 966.26 778.35 930.83 728.23 938.85 698.9 977.29 724.15 1017.93 780.66 1023.26" style="fill:#708744"/><polygon points="786.44 929.9 777.33 951.53 752.73 975.38 724.15 984.56 693.45 984.78 697.23 955.01 721.23 924.68 756.59 918.14 786.44 929.9" style="fill:#81965f"/><polygon points="808.22 1038.23 747.91 1037.29 721.11 1069.24 744.36 1114.36 790.02 1130.25 820.77 1093.59 808.22 1038.23" style="fill:#708744"/><polygon points="717.71 1061.85 741.1 1063.77 771.43 1079.7 789.06 1103.99 798.84 1133.1 769.38 1138.78 733.07 1125.43 715.84 1093.88 717.71 1061.85" style="fill:#81965f"/><polygon points="735.89 1265.05 634.51 1263.46 589.45 1317.19 628.53 1393.04 705.3 1419.75 756.99 1358.12 735.89 1265.05" style="fill:#708744"/><polygon points="583.73 1304.75 623.05 1307.97 674.04 1334.77 703.68 1375.6 720.13 1424.54 670.59 1434.09 609.56 1411.65 580.59 1358.6 583.73 1304.75" style="fill:#81965f"/><polygon points="738.04 1228.13 757.73 1171.13 735.73 1135.7 685.61 1143.73 656.28 1182.16 681.52 1222.8 738.04 1228.13" style="fill:#708744"/><polygon points="743.82 1134.77 734.7 1156.4 710.1 1180.25 681.53 1189.43 650.82 1189.65 654.61 1159.88 678.61 1129.55 713.96 1123.01 743.82 1134.77" style="fill:#81965f"/><polygon points="882.01 1122.72 923.08 1078.56 917.29 1037.26 868.21 1024.32 825.84 1047.6 832.48 1094.98 882.01 1122.72" style="fill:#708744"/><polygon points="925.06 1039.68 907.98 1055.77 875.83 1067.63 845.99 1064.46 817.82 1052.25 833.33 1026.55 867.54 1008.52 902.52 1016.85 925.06 1039.68" style="fill:#81965f"/><polygon points="1076.34 961.24 1016.04 960.29 989.23 992.25 1012.48 1037.37 1058.15 1053.25 1088.89 1016.6 1076.34 961.24" style="fill:#708744"/><polygon points="985.83 984.85 1009.22 986.77 1039.55 1002.71 1057.18 1026.99 1066.96 1056.1 1037.5 1061.78 1001.2 1048.43 983.96 1016.88 985.83 984.85" style="fill:#81965f"/><polygon points="1006.16 1151.13 1025.85 1094.13 1003.85 1058.7 953.73 1066.73 924.4 1105.16 949.64 1145.8 1006.16 1151.13" style="fill:#708744"/><polygon points="1011.94 1057.78 1002.82 1079.4 978.22 1103.25 949.65 1112.43 918.94 1112.65 922.73 1082.88 946.73 1052.55 982.08 1046.01 1011.94 1057.78" style="fill:#81965f"/><polygon points="1292.15 1204.76 1311.85 1147.75 1289.84 1112.32 1239.72 1120.35 1210.4 1158.79 1235.64 1199.43 1292.15 1204.76" style="fill:#708744"/><polygon points="1297.93 1111.4 1288.82 1133.02 1264.22 1156.87 1235.65 1166.05 1204.94 1166.28 1208.72 1136.51 1232.72 1106.18 1268.08 1099.64 1297.93 1111.4" style="fill:#81965f"/><polygon points="502.69 1172.84 562.95 1170.46 587.95 1137.08 562.25 1093.31 515.78 1079.96 487.1 1118.26 502.69 1172.84" style="fill:#708744"/><polygon points="591.75 1144.28 568.29 1143.65 537.13 1129.41 518.19 1106.13 506.82 1077.6 535.93 1070.31 572.91 1081.64 591.86 1112.19 591.75 1144.28" style="fill:#81965f"/><g style="opacity:0.6000000000000001;mix-blend-mode:hue"><polygon points="1914.41 950.48 1907.56 941.76 1895.92 937.55 1899.7 934.31 1899.4 922.91 1901.9 921.05 1895.05 912.33 1885.7 908.95 1885.43 897.94 1887.93 896.08 1881.09 887.35 1871.69 883.94 1874.68 881.38 1874.39 869.98 1876.89 868.12 1870.06 859.39 1863.07 856.86 1863.64 856.37 1863.36 844.97 1865.85 843.1 1859.02 834.38 1847.34 830.14 1834.89 834.98 1828.55 843.18 1831.57 844.92 1831.86 856.86 1823.85 859.97 1817.52 868.17 1820.53 869.91 1820.86 883.42 1821.32 883.74 1810.61 887.9 1804.28 896.11 1807.29 897.84 1807.58 909.83 1799.56 912.95 1793.23 921.17 1796.24 922.9 1796.59 936.41 1798.37 937.69 1786.32 942.38 1779.99 950.6 1783 952.33 1783.35 965.84 1799.26 977.29 1811.03 967.22 1825.02 977.29 1836.44 967.51 1850.03 977.29 1861.12 967.8 1874.31 977.29 1884.39 968.66 1896.38 977.29 1912.21 963.74 1911.91 952.34 1914.41 950.48" style="fill:#93805f"/><polygon points="61.95 1169.99 58.75 1160.4 24.91 1172.6 0 1204.28 2.25 1247.57 21.11 1275.43 29.52 1267.92 71.48 1280.6 122.99 1243.25 97.37 1180.69 61.95 1169.99" style="fill:#93805f"/><polygon points="377.13 1236.57 348.12 1206.05 271.41 1212.03 259.81 1283.51 294.19 1319.67 290.86 1332.07 328.83 1336.97 373.99 1317.1 393.44 1275.56 388.52 1234.92 377.13 1236.57" style="fill:#93805f"/><path d="M1346.72,1060.18l1.69-8.93-15.13-40.63-35.45-19.17-35.9,2.24.87,10.07-11.91,10.08,1.79-19-6.67-2.31,37.58-35.68-31.67-55.19-43.47-5.64-4.6-10.3-28.61,17.68-8.2,16-11.16-7.47-.26-10.1-35.92,1.79-34.55,28.6-110-60,4.8-20.54-13.48-41.2L931.82,789.9l-17,.37L897,763.1l4.81-10.2-32.06-10.18-42.16,10.12-3.4,4.81L793,758.1l-6.16-9.76-17.9,15L765.86,752l-40.65-16.42-1.84-11.13-32.16,9.89-28.89,32.32-.44,40.3,2,3.26-9.67.6.87,10.07-28.25,23.9,0,1.45L587.32,860l-8.72-7.16L565.54,874,554,867.7,518.07,870l.87,10.07-28.26,23.89.4,20-2.4,25.9-15.05,3.69L459.8,973.26l-34.67,12,.63,6.66-.48-.24-1-11.23-32.8,7.46L360.25,1018l-3.44,40.16,7.74,15.14-.28-.1-39.14,9.61-24.88,35.5-2.31,33.56,11.26-.74,25.24,35.84,63.59,2.3,9.22-32.7,16.57,23.53,27.45,1,3.85,13.68,3.17-.12-8,49.53,30.21,31.77-2.93,10.89,33.36,4.31,39.68-17.46,17.09-36.5-.31-2.56,2.72,1.81,41.41-14.4,8.71,7.16,3.41-5.52,22.87,21.8-2.39,11,33.53,2.66,17.91-9,.49,1.32,24.62,13.31-86.12-1.35L598.84,1306l-15.11-1.24-3.14,53.85,29,53.05,61,22.44,49.54-9.55-5.39-16L757,1358.12l-19.91-87.8,29.71-1.86,6.51,26.13,25.85,25,6.86-7.43,36.69,4.76,19.46-18.48,6.55,9.77L864,1318.46l32.16,9.87,42.06-10.52,23-33.1.68-14,4.19,2.78,41.4-14.41,8.72,7.16,3.41-5.52,22.86,21.8-2.38,11,33.53,2.67,17.9-9,.49,1.32,35.45,19.17,35.9-2.24-.87-10.07,28.25-23.9,0-1.45,39.52-13.75,8.72,7.16,13.06-21.13,11.57,6.26,35.9-2.25-.87-10.07,28.25-23.89-.39-20,2.55-27.54,23.32-10,9.21,6.51,15.59-29.8-2.63-43.27Zm-951,31.89,5.54,2.73-2.78,4-3.42-4.85ZM964.6,881.52l-2.54,3.15-5.88.21,5.65-4.4Z" style="fill:#93805f"/><polygon points="1234.51 1280.89 1229.02 1271.04 1202.08 1291.18 1185.77 1331.35 1198.93 1369.44 1226.9 1392.05 1233.07 1384.04 1270.04 1385.53 1314.74 1334.82 1278.31 1282.65 1234.51 1280.89" style="fill:#93805f"/><polygon points="1451.64 1126.19 1416.67 1134.57 1419.25 1144.34 1395.53 1172.73 1408.46 1239.08 1472.02 1242.02 1500.13 1208.38 1511.29 1210.04 1511.75 1176.4 1489.86 1138.98 1451.64 1126.19" style="fill:#93805f"/><polygon points="989.74 771.59 1053.3 774.53 1081.4 740.89 1092.56 742.54 1093.02 708.91 1071.13 671.49 1032.92 658.69 997.94 667.07 1000.53 676.85 976.8 705.24 989.74 771.59" style="fill:#93805f"/><polygon points="1745.3 969.24 1714.55 958.12 1724.53 949.57 1723.75 919.46 1730.34 914.54 1712.26 891.51 1687.56 882.57 1686.84 853.5 1693.44 848.58 1675.38 825.53 1650.54 816.52 1658.44 809.77 1657.69 779.66 1664.29 774.74 1646.23 751.69 1627.78 744.99 1629.29 743.7 1628.54 713.59 1635.14 708.67 1617.09 685.62 1586.25 674.43 1553.35 687.2 1536.62 708.88 1544.57 713.47 1545.36 745 1524.21 753.21 1507.47 774.88 1515.42 779.48 1516.31 815.15 1517.5 816.01 1489.23 826.99 1472.49 848.66 1480.44 853.25 1481.23 884.9 1460.04 893.16 1443.33 914.85 1451.28 919.43 1452.21 955.1 1456.9 958.48 1425.06 970.89 1408.35 992.58 1416.3 997.16 1417.23 1032.83 1459.26 1063.09 1490.32 1036.49 1527.27 1063.09 1557.45 1037.25 1593.34 1063.09 1622.63 1038.01 1657.47 1063.09 1684.1 1040.29 1715.77 1063.09 1757.56 1027.3 1756.79 997.19 1763.38 992.27 1745.3 969.24" style="fill:#93805f"/></g><polygon points="689.9 760.3 725.44 821.69 707.67 715.06 676.97 723.14 689.9 760.3" style="fill:#ccd8bc"/><polygon points="652.74 757.07 643.04 784.53 694.74 833 668.89 747.37 652.74 757.07" style="fill:#ccd8bc"/><polygon points="646.28 805.53 646.28 836.23 683.43 844.31 646.28 805.53" style="fill:#ccd8bc"/><polygon points="1074.23 834.57 1005.53 837.17 970.7 753.17 1028.65 793.64 994.11 753.66 1023.2 722.29 1024.29 751.15 1056.72 771.94 1037.56 738.26 1037.53 701.11 1064.63 726.23 1068.78 763.22 1083.82 740.64 1073.57 708 1107.74 738.36 1106.39 757.35 1102.35 814.24 1074.23 834.57" style="fill:#ccd8bc"/><polygon points="1064.03 842.75 1006.5 847.29 985.31 810.96 1020.13 801.88 1000.73 792.49 1047.38 792.8 1045.84 765.55 1067.59 772.01 1077.66 748.89 1095.82 780.68 1120.05 739.81 1135.18 780.68 1115.5 801.88 1098.85 833.67 1064.03 842.75" style="fill:#99bc6d"/><polygon points="1268.56 715.06 1227.31 760.43 1247.93 760.43 1214.93 805.81 1235.56 798.93 1206.68 863.56 1221.81 863.56 1199.81 889.68 1256.18 1007.93 1327.68 1007.93 1373.06 924.06 1386.81 936.43 1373.06 882.81 1386.81 889.68 1364.81 805.81 1386.81 815.43 1387.49 757.68 1406.74 767.31 1373.06 686.19 1292.62 690.31 1301.56 705.94 1268.56 715.06" style="fill:#97b76c"/><polygon points="1264.43 999.68 1242.43 999.68 1242.43 1036.81 1264.43 1071.18 1264.43 999.68" style="fill:#ccd8bc"/><polygon points="1316.68 999.68 1316.68 1050.56 1335.93 999.68 1316.68 999.68" style="fill:#ccd8bc"/></g></svg>