<svg xmlns="http://www.w3.org/2000/svg" xmlns:xlink="http://www.w3.org/1999/xlink" viewBox="0 0 1553 1385.07"><defs><clipPath id="a"><circle cx="757.74" cy="629.05" r="590.4" style="fill:#f9c193"/></clipPath></defs><title>painter</title><circle cx="757.74" cy="629.05" r="590.4" style="fill:#f9c193"/><g style="clip-path:url(#a)"><polygon points="1000.5 211.82 580.45 83.09 370.42 66.16 201.04 205.04 104.49 421.29 141.75 712.62 206.12 896.11 546.8 999.96 592.58 1345.91 721.03 1385.07 834.1 1323.91 867.61 973.79 914.07 948.66 985.3 1161.77 1016.79 1144.74 1049.12 1089.58 1038.33 809.73 1094.79 663.5 1000.5 211.82" style="fill:#a5adad"/><polygon points="569.06 873.7 568.06 655.94 583.31 671.75 611.97 869.18 590.52 904.75 569.06 873.7" style="fill:#8a9998"/><polygon points="581.17 983.37 617.31 1118.15 617.31 1016.4 581.17 983.37" style="fill:#8a9998"/><polygon points="164 709.15 228 666.15 196 620.15 196 557.15 228 519.15 272 557.15 364 557.15 364 507.15 344 440.15 380 372.15 420 414.15 420 460.15 420 515.15 503 557.15 546 580.15 523 507.15 492 418.15 492 342.15 568 414.15 628 396.15 664 313.15 664 248.16 680 183.16 734 132.16 590 83.16 523 75.16 104 159.16 0 557.15 164 709.15" style="fill:#9ce2db"/><polygon points="568.06 655.94 523.46 626.59 523.46 566.74 545.48 513.67 568.06 584.8 568.06 655.94" style="fill:#73ffeb"/><polygon points="479.13 632.59 467.28 674.37 467.28 700.34 492.12 658.56 479.13 632.59" style="fill:#9ce2db"/><polygon points="608.43 495.95 634.96 482.4 663.76 489.18 663.76 511.2 608.43 495.95" style="fill:#9ce2db"/><polygon points="502.85 491.44 467.28 491.44 458.81 466.59 502.85 491.44" style="fill:#9ce2db"/><polygon points="380.33 778.82 363.96 804.22 380.33 817.77 380.33 778.82" style="fill:#9ce2db"/><polygon points="627.62 582.34 644.56 597.02 627.62 613.39 627.62 582.34" style="fill:#9ce2db"/><polygon points="523.46 604.9 568.06 584.8 568.06 655.94 523.46 626.59 523.46 604.9" style="fill:#776e61"/></g><polygon points="1383.68 806.87 1470.79 914.53 1553 929.21 1464.91 967.38 1362.14 914.53 1318.47 882.97 1383.68 806.87" style="fill:#9a9e9d"/><polygon points="1199.19 212.46 1215.11 116.07 1297.22 31.16 1392.7 42.63 1383.15 340.98 1199.19 212.46" style="fill:#9ea8a8"/><path d="M917.74,705.71,763,780.54,722.24,685.7l-10-452.09L872.65,0l68.11,12.09L1030.41,185l171.86-19.1,173.78,28.65,50.92,119,56,236.54L1467.71,784,1238,1098.09l-180.89,82.19-253.94-48.72L574,996.71l-68.75-85.93,61.11-71.93L591.83,872l22.91-41.37L696.22,877l13.37,54.11L863,1029.71l191.87,6.63L1136.78,931a11.19,11.19,0,0,0,2.29-8l-32.28-139L994.41,798l2.26-36.92Z" style="fill:#afbfbe"/><polygon points="1095 620.15 1033 620.15 964 629.15 940 557.15 952 514.15 919 463.15 931 376.15 967 342.15 1039 362.15 1095 309.15 1150 309.15 1171 376.15 1239 418.15 1239 491.15 1204 580.15 1204 629.15 1150 666.15 1095 620.15" style="fill:#9ce2db"/><circle cx="1074.25" cy="466.71" r="52.75" style="fill:#fff"/><circle cx="1033.42" cy="477.49" r="14.39" style="fill:#324915"/><polygon points="995.32 802.49 1033.62 929.64 1114.64 1044.08 1271.15 1104 1446 1055.71 1294.46 1039.05 1212.89 990.8 1141.12 893.91 1107.68 779.16 995.32 802.49" style="fill:#e8efee"/><polygon points="1483 550.15 1434.83 346.78 1379 414.15 1379 497.15 1456 671.15 1417 735.15 1352 818.15 1352 860.15 1421.9 835.88 1467.71 784.01 1483 550.15" style="fill:#9ce2db"/></svg>