<svg xmlns="http://www.w3.org/2000/svg" viewBox="0 0 1211.33 1371.33"><title>party-animal</title><circle cx="620.93" cy="712.46" r="590.4" style="fill:#7685dd"/><rect x="103.53" y="305.81" width="0.67" height="324.89" style="fill:#83b2b1"/><rect x="100.2" y="302.48" width="7.32" height="331.55" style="fill:#83b2b1"/><polygon points="412.72 256.67 348.41 244.86 308.46 199.59 308.46 256.84 352.42 300.61 412.72 256.67" style="fill:#c4d6a3"/><polygon points="327.99 662.58 135.96 588.8 114.74 610.6 116.61 639.13 308.65 712.92 341.43 696.28 327.99 662.58" style="fill:#8daa63"/><polygon points="135.96 588.8 91.21 571.6 90.98 600.04 71.87 621.94 116.61 639.13 135.96 588.8" style="fill:#b6d38c"/><polygon points="667.98 449.25 674.63 614.36 667.98 759.5 559.46 851.37 446.94 884.66 304.47 858.03 231.24 782.8 211.26 686.26 231.24 591.72 272.51 437.93 303.14 338.73 388.36 261.5 530.16 199.59 673.97 199.59 849.07 261.5 967.57 399.32 1051.46 676.94 1075.42 799.44 1075.42 1039.78 1022.16 1188.25 787.81 1315.41 715.25 1343.37 660.65 1311.41 674.63 1257.49 763.18 1199.57 821.77 1164.95 460.26 1164.95 325.77 1217.54 242.55 1229.53 184.63 1225.53 184.63 1164.95 241.22 1125.67 347.08 1073.07 428.3 1023.14 466.25 941.91 438.95 870.01 455.6 824.74 667.98 449.25" style="fill:#99bc6d"/><polygon points="241.22 1125 141.36 1153.63 170.65 1201.56 158.67 1249.5 241.22 1229.53 254.54 1171.6 241.22 1125" style="fill:#b6d38c"/><polygon points="674.63 1257.49 613.38 1295.44 644.01 1311.41 644.01 1371.33 715.25 1343.37 715.25 1284.12 674.63 1257.49" style="fill:#b6d38c"/><polygon points="641.35 832.73 723.9 732.2 738.55 566.42 791.81 792.12 791.81 977.87 685.95 929.93 590.08 911.96 641.35 832.73" style="fill:#94b269"/><polygon points="522.17 911.96 451.6 941.91 412.99 1013.82 412.99 1103.7 462.25 1186.92 560.79 1239.51 700.6 1239.51 763.18 1199.57 821.77 1164.95 824.43 1063.75 789.81 981.86 679.96 929.93 590.08 911.96 522.17 911.96" style="fill:#becea5"/><polygon points="289.58 936.77 181.18 905.46 135.41 816.33 145.04 717.56 195.63 690.26 342.58 690.26 528.11 719.81 612.39 753.69 641.35 833.04 605.16 907.87 523.25 936.77 388.35 953.64 289.58 936.77" style="fill:#b6d38c"/><polygon points="897.66 748.18 897.66 953.9 925.63 965.88 951.59 953.9 951.59 748.18 924.3 723.54 897.66 748.18" style="fill:#8daa63"/><polygon points="897.66 953.9 897.66 1001.83 924.3 991.85 951.59 1001.83 951.59 953.9 897.66 953.9" style="fill:#b6d38c"/><polygon points="685.95 290.8 755.86 264.83 791.81 210.91 791.81 290.8 715.25 338.73 685.95 290.8" style="fill:#c4d6a3"/><polygon points="462.25 965.88 404.33 977.87 388.36 1001.83 412.99 1013.82 462.25 1001.83 480.23 977.87 462.25 965.88" style="fill:#d6e5bd"/><polygon points="677.96 989.85 620.04 1001.83 604.06 1025.8 628.7 1037.79 677.96 1025.8 695.94 1001.83 677.96 989.85" style="fill:#d6e5bd"/><polygon points="478.44 1139.24 425.56 1165.74 416.3 1193.02 443.18 1198.25 487.7 1173.98 498.89 1146.19 478.44 1139.24" style="fill:#d6e5bd"/><polygon points="642.78 1187.4 612.19 1238.02 618.9 1266.03 644.44 1256.12 669.14 1211.84 663.79 1182.37 642.78 1187.4" style="fill:#d6e5bd"/><circle cx="333.61" cy="426.65" r="35.96" style="fill:#fff"/><circle cx="325.1" cy="441.08" r="9.81" style="fill:#324915"/><circle cx="670.62" cy="469.71" r="35.96" style="fill:#fff"/><circle cx="660.41" cy="487.14" r="9.81" style="fill:#324915"/><polygon points="471.32 228.17 607.14 173.76 598.56 148.09 483.33 195.62 471.32 228.17" style="fill:#adf2f2"/><polygon points="483.56 280.81 489.33 282.2 625.19 227.78 617.33 204.26 461.62 268.49 483.56 280.81" style="fill:#adf2f2"/><polygon points="556.04 290.8 564.12 290.8 604.06 282.81 638.02 266.16 635.32 258.1 556.04 290.8" style="fill:#adf2f2"/><polygon points="570.25 63.37 552.13 9.18 525.52 81.29 570.25 63.37" style="fill:#adf2f2"/><polygon points="499 153.17 588.3 117.39 580.57 94.26 509.99 123.38 499 153.17" style="fill:#adf2f2"/><polygon points="73.57 260.61 43.27 239.93 7.21 202.91 0 139.92 23.08 53.37 73.57 8.65 129.82 0 191.85 25.96 207.72 86.55 207.72 163.96 190.89 202.91 157.23 248.11 103.86 282.25 129.82 305.81 73.57 305.81 92.8 282.25 73.57 260.61" style="fill:#c471d8"/><polygon points="224.13 751.51 201.06 751.51 189.53 771.48 201.06 791.45 224.13 791.45 235.66 771.48 224.13 751.51" style="fill:#8daa63"/><polygon points="567.66 802.1 544.6 802.1 533.07 822.08 544.6 842.05 567.66 842.05 579.19 822.08 567.66 802.1" style="fill:#8daa63"/><polygon points="791.77 1197.88 845.38 1064.99 845.38 1168.85 791.77 1197.88" style="fill:#99bc6d"/><polygon points="457.33 266.08 552.13 9.18 638.02 266.16 604.06 282.81 564.12 290.8 524.84 290.8 483.56 280.81 457.33 266.08" style="fill:#f7e07f"/><polygon points="471.32 228.17 607.14 173.76 598.56 148.09 483.33 195.62 471.32 228.17" style="fill:#adf2f2"/><polygon points="483.56 280.81 489.33 282.2 625.19 227.78 617.33 204.26 461.62 268.49 483.56 280.81" style="fill:#adf2f2"/><polygon points="556.04 290.8 564.12 290.8 604.06 282.81 638.02 266.16 635.32 258.1 556.04 290.8" style="fill:#adf2f2"/><polygon points="570.25 63.37 552.13 9.18 525.52 81.29 570.25 63.37" style="fill:#adf2f2"/><polygon points="499 153.17 588.3 117.39 580.57 94.26 509.99 123.38 499 153.17" style="fill:#adf2f2"/></svg>