<svg xmlns="http://www.w3.org/2000/svg" xmlns:xlink="http://www.w3.org/1999/xlink" viewBox="0 0 1204.32 1266.69"><defs><clipPath id="a"><circle cx="590.4" cy="676.29" r="590.4" style="fill:#7291b5"/></clipPath></defs><title>people-watcher</title><circle cx="590.4" cy="676.29" r="590.4" style="fill:#7291b5"/><g style="clip-path:url(#a)"><polygon points="54.32 1005.41 189.59 978.03 404.95 978.03 748.53 991.72 1204.32 901.41 1159.32 1047.74 698.32 1090.06 632.76 1114.96 417.81 1097.53 248.52 1102.51 54.32 1092.55 54.32 1005.41" style="fill:#8e8657"/></g><polygon points="407 971.39 352.67 1030.31 402.05 1129.9 402.05 1040.27 427.36 1000.43 458.06 1032.8 432.34 1149.81 504.54 1032.8 469.68 985.5 535.66 1025.33 480.06 1114.96 570.51 1015.37 461.38 955.62 407 971.39" style="fill:#b5ac6b"/><polygon points="662.52 981.54 623.45 1042.48 683.02 1123.29 668.93 1043.58 685.19 1004.17 717.58 1028.13 713.09 1136.25 758.92 1020.83 720.49 984.24 785.42 1009.3 750.05 1097.75 814.86 994.97 708.41 958.97 662.52 981.54" style="fill:#b5ac6b"/><polygon points="871.52 287.39 797.9 258.51 698.32 258.51 802.41 225.34 899.15 270.54 906.21 184.24 844.38 121.16 932.35 141.08 951.43 279.67 982.14 210.79 951.43 84.65 1026.95 185.9 1005.38 317.85 1075.09 279.67 1075.09 196.27 1118.24 301.67 1021.98 394.61 1048.53 469.72 993.76 577.6 983.8 476.36 951.43 609.14 990.44 693.79 908.28 644 889.19 556.03 892.51 663.91 927.37 785.08 855.17 715.37 822.8 589.22 814.5 728.64 872.6 871.39 773.42 783.42 764.71 627.4 871.52 287.39" style="fill:#b5ac6b"/><polygon points="273.83 106.23 409.93 23.24 517.82 0 662.22 0 796.66 53.11 844.79 106.23 905.38 261 905.38 392.95 877.99 622 803.3 858.52 751.02 990.48 686.28 1005.41 605.37 990.48 504.54 1005.41 404.95 983.01 345.2 910.8 285.86 783.83 236.07 539.84 236.07 335.69 236.07 198.76 273.83 106.23" style="fill:#dddaab"/><polygon points="385.04 426.56 328.6 298.76 356.82 156.02 518.65 66.39 620.72 136.1 698.32 54.77 823.63 164.32 864.71 250.81 848.11 405.82 788.36 507.48 637.32 547.73 385.04 426.56" style="fill:#eae5c1"/><polygon points="706.72 196.8 740.01 199.24 760.29 223.27 752.83 258.5 725.11 279.98 693.7 266.89 676.84 245.88 686.16 213.48 706.72 196.8" style="fill:#c6c19e"/><polygon points="739.93 199.41 930.67 307.44 789.35 411.84 677.17 245.94 739.93 199.41" style="fill:#c6c19e"/><polygon points="856.24 302.05 930.7 307.5 976.07 361.26 959.4 440.07 897.38 488.11 827.12 458.84 789.39 411.83 810.25 339.35 856.24 302.05" style="fill:#f7f3df"/><polygon points="866.19 334.78 914.05 338.29 943.22 372.85 932.5 423.5 892.63 454.38 847.47 435.57 823.22 405.35 836.63 358.76 866.19 334.78" style="fill:#2d2c25"/><polygon points="538.5 213.08 572.3 225.63 586.1 256.66 567.76 290.96 532.54 304.89 503.9 281.87 492.73 254.99 512.16 224.19 538.5 213.08" style="fill:#c6c19e"/><polygon points="572.32 225.76 772.95 361.62 594.92 427.37 492.93 255.01 572.32 225.76" style="fill:#c6c19e"/><polygon points="697.36 333.61 772.96 361.69 803.83 431.12 762.81 507.85 684.01 539.01 619.94 487.5 594.96 427.38 638.41 358.46 697.36 333.61" style="fill:#f7f3df"/><polygon points="697.82 370.49 746.47 388.56 766.34 433.24 739.94 482.61 689.24 502.67 648.01 469.52 631.93 430.83 659.89 386.48 697.82 370.49" style="fill:#333128"/><polygon points="235.14 410.8 328.89 420.34 466.52 290.88 628.08 258.51 498.1 328.22 464.52 390.46 646.03 285.9 513.39 435.28 634.07 567.23 513.39 492.54 642.71 614.12 513.39 562.25 614.12 699.18 454.55 602.09 488.46 778.85 368.78 626.98 402.69 848.56 285.34 654.37 283.34 878.44 215.53 649.39 189.59 462.66 189.59 345.65 235.47 198.76 235.47 383.82 235.14 410.8" style="fill:#b5ac6b"/><polygon points="670.55 170.87 739.85 160.11 818.08 115.07 763.75 176.84 699.7 185.44 670.55 170.87" style="fill:#c9bf81"/><polygon points="592.99 211.28 526.94 187.7 436.71 190 513.91 161.61 574.31 184.57 592.99 211.28" style="fill:#c9bf81"/><polygon points="921.56 287.56 949.36 270.54 852.62 225.34 748.53 258.51 848.11 258.51 921.56 287.56" style="fill:#b5ac6b"/><polygon points="332.96 426.98 358.82 247.31 441.86 165.98 406.47 256.44 412.25 353.53 332.96 426.98" style="fill:#b5ac6b"/></svg>