<svg xmlns="http://www.w3.org/2000/svg" xmlns:xlink="http://www.w3.org/1999/xlink" viewBox="0 0 1418.6 1454.46"><defs><clipPath id="a"><circle cx="667.08" cy="654.88" r="590.4" style="fill:#d88bc0"/></clipPath></defs><title>perfectionist</title><g style="isolation:isolate"><circle cx="667.08" cy="654.88" r="590.4" style="fill:#d88bc0"/><g style="clip-path:url(#a)"><g style="opacity:0.30000000000000004"><path d="M679.13,1454.46c-5.55-5-12.36-10.57-18.58-16.76-86.55-86.17-187.14-148.9-306.5-177.51-21.62-5.18-43.56-9-65.57-12s-44-5.52-66.07-8c-4.68-.53-9.43-.87-14-1.81a24.54,24.54,0,0,1-8.17-2.93c-5-3.07-6.63-8.67-7.25-14.17-.5-4.42-.6-8.9-.9-13.33q-.48-7-1.07-14.09-1.17-14.15-2.8-28.23-3.19-27.69-8.21-55.13-5-27.2-11.82-54-6.76-26.4-15.39-52.28T133.7,953.34q-10.53-25.22-22.92-49.59T84.17,855.94q-14.36-23.69-30.46-46.27-16.44-23.08-34.56-44.92-4.54-5.46-9.17-10.86c-3.06-3.55-6.57-7-8.64-11.25a11.68,11.68,0,0,1-.44-9.9c1.63-3.83,4.67-7,7.51-9.9q19.49-20.31,37.48-42,17.58-21.2,33.51-43.68Q95.12,615,109,591.52t25.77-47.94q11.82-24.41,21.54-49.75,9.78-25.54,17.34-51.87,7.71-26.83,13.09-54.29,2.63-13.35,4.7-26.8c3.13-20.22,4.83-40.63,6.21-61,.69-10.16,1.3-20.33,2-30.5.29-4.32.49-8.66.94-13a29.94,29.94,0,0,1,1.67-7.88,12.84,12.84,0,0,1,4.88-6.12c3.06-2,6.8-2.8,10.38-3.22Q473.46,209,675.94,49.11c25.9-20.47,25.54-20.4,51.18.27Q748.92,66.95,771.8,83.1q22.5,15.87,46,30.21,23.24,14.16,47.4,26.69,24,12.42,48.77,23.14t50.14,19.57q25.46,8.91,51.51,16,26.21,7.13,52.87,12.38,27,5.31,54.25,8.75,27.65,3.48,55.48,5.1c7.35.43,15.44.29,21.67,4.85,4.46,3.27,6.61,8.4,8,13.6.75,2.86,1.3,5.77,1.88,8.67,20.79,102.16,51.42,201.27,100.58,293.33C1341.09,603,1377,657.87,1412.29,712.84c8.54,13.28,8.3,21.24-.09,33.34-91.4,131.87-157.53,275-190.52,432.59-3.14,15-6.54,29.92-9,45q-.93,5.68-1.66,11.38a53.22,53.22,0,0,1-1.35,7.63c-1,3.73-2.78,7.34-5.93,9.71-4,3-9.27,3.6-14.1,3.65-188.25,2-352.65,66.73-495,189-2.86,2.45-5.72,4.91-8.76,7.12C684.71,1453.1,683.06,1453.23,679.13,1454.46Zm515.08-228.09c29.81-181.28,97.65-340.62,201.36-489.17-20.33,0-40.65-.28-61-.3-9.47,0-18.94,0-28.41.23q-7.15.15-14.31.4a87.63,87.63,0,0,0-12.85,1c-9,1.66-18.33,5.53-25.06,11.91-13.16,12.5-25.75,25.62-37.63,39.34a511.32,511.32,0,0,0-32.45,41.61,481.72,481.72,0,0,0-27.3,43.85,472.21,472.21,0,0,0-39.27,94.34,498.74,498.74,0,0,0-12,50.46c-3.21,17.4-5.52,35-7,52.61q-1.14,13.61-1.63,27.25-.26,6.84-.35,13.68c0,4.17-.32,8.48.54,12.59a9.78,9.78,0,0,0,2.19,4.76c1.75,1.9,3.62,3.71,5.43,5.56q5.38,5.51,10.8,11,10.82,10.95,21.69,21.84,22.75,22.77,45.6,45.43Zm-967.76-11.95q1.85,3.42,3.7,6.84c82.25,5.65,161.46,22.76,236.52,57.3,75.59,34.78,142.75,81.58,206.2,138.8,1.53-20.2,2.45-40.45,2.91-60.7.45-20,.44-40.08.16-60.13q-.06-4.15-.13-8.32a16.49,16.49,0,0,0-1.25-6.47c-1.91-4.44-5.13-8.22-8.14-11.94C583,1166.61,474.2,1116.6,342.09,1116.13a37.64,37.64,0,0,0-11.66,1.46,13.4,13.4,0,0,0-4.68,2.46c-1.95,1.66-3.77,3.49-5.64,5.23q-11.4,10.63-22.72,21.36-22.78,21.55-45.38,43.3Zm952.33,22.85c-9.29-9.08-18.72-18-28.14-27-8.56-8.14-17.11-16.31-25.45-24.68q-6.06-6.09-11.94-12.34c-3.73-4-7.26-8.15-11.17-12a68.08,68.08,0,0,0-23.18-15.15c-9.07-3.44-18.81-4.63-28.47-4.73-1.36,0-2.72,0-4.09,0-17,.34-33.94,1.42-50.81,3.29q-24.54,2.71-48.76,7.67-23.92,4.92-47.31,12.08-23.06,7.07-45.37,16.27t-44,20.6q-21.6,11.36-42.14,24.6-21,13.54-40.83,28.83-10,7.73-19.73,15.84a55.62,55.62,0,0,0-8.6,8.48,21.86,21.86,0,0,0-3,5,14.08,14.08,0,0,0-.85,5.27c-.37,19.45-.5,38.9-.53,58.35,0,19.76,0,39.52.06,59.28q0,7.39,0,14.8,19.83-16.54,40.59-31.9,20.58-15.21,42-29.13t43.55-26.32q22.17-12.43,45.11-23.43t46.74-20.51q23.65-9.46,48-17.11t49-13.45q25-5.92,50.35-10.15,25.83-4.36,51.89-7.2c17.84-2,35.73-3.48,53.64-4.6Q1172.09,1237.62,1178.78,1237.27ZM26.58,745.57c56.74,68.79,98.79,139.51,129.66,216.8s47.39,158.13,54.83,246.24c33.47-33.91,62.74-63,91.15-92.91,4.41-4.65,7.14-13.2,6.8-19.74q-1.35-25.26-4.81-50.36-3.39-24.36-8.92-48.36-5.49-23.75-13.15-46.91-7.58-22.86-17.23-44.93T243.39,862q-11.8-21.3-25.54-41.46-14-20.57-29.79-39.83-8-9.78-16.41-19.2a99.07,99.07,0,0,0-8.78-9.08c-2.92-2.52-6.29-5-10.09-5.95a27.46,27.46,0,0,0-6.08-.43l-6.58-.15q-6.92-.14-13.82-.22-13.65-.17-27.3-.19c-19.24,0-38.49.06-57.73.1Zm1367.55-26.43c-101.65-142-166.73-294.74-206.25-462.52-10.8,8.11-17.14,20.17-27,27.26-42.9,30.75-51.49,69.44-42.19,120.81C1139.11,517.55,1182,618.84,1255.37,707c5.12,6.15,12.75,11.45,21,11.69q13.62.39,27.27.53c18.79.2,37.58.13,56.38.06C1371.36,719.19,1382.75,719.14,1394.13,719.14ZM230.22,257.29c12.44,12.22,24.8,24.52,37.23,36.75,11.46,11.29,23,22.51,34.74,33.5a29.92,29.92,0,0,0,4.49,3.86,20.1,20.1,0,0,0,5.1,2.1,47.79,47.79,0,0,0,11.67,1.41c133.72,2.41,244.82-47.68,340.36-140.42,41.73-40.51,21.88-86.42,27.06-130.85C554.94,168.23,403.63,231.83,230.22,257.29ZM30.52,727.38c20.4,0,40.8.29,61.2.31,9.43,0,18.87,0,28.31-.23q7-.13,14.07-.39a87.51,87.51,0,0,0,13.05-1c9.08-1.73,18.39-6,24.94-12.58,84.26-85.16,126.56-188.26,127.38-308,.07-9.85.73-19.7.28-29.55-.41-8.78-1.55-18.21-6.34-25.8a113.27,113.27,0,0,0-9.64-12.44c-3.53-4.15-7.22-8.17-11-12.09-7.9-8.15-16.24-15.87-24.63-23.52-8.92-8.13-17.9-16.19-26.63-24.52l-3.31-3.19c-2.62,86-18.36,165.46-50.1,241.67C136,593.19,90.78,661.58,30.52,727.38ZM709.44,57.57q0,21.93,0,43.87c0,6.75.08,13.51-.13,20.26-.27,8.53-.78,17.14.53,25.61,1.13,7.27,3.35,15.52,8.77,20.83q15.51,15.17,32.08,29.15,16.2,13.64,33.4,26Q801,235.42,818.8,246.18q17.58,10.6,36,19.76t37.3,16.67q19,7.58,38.58,13.57t39.72,10.47q20.42,4.53,41.12,7.45,21.09,3,42.37,4.4,10.81.72,21.65,1.06c7,.22,13.83.58,20.54-1.57a22.52,22.52,0,0,0,8.28-4.43c23.25-20.91,45.47-43,72.94-69.29C999.72,229.54,847.32,170.6,709.44,57.57Zm386.43,293.72q-21.72,21.69-43.5,43.35-20.62,20.6-41.07,41.36c-1.86,1.9-3.73,3.8-5.59,5.71-1.57,1.61-3.39,3.12-4.4,5.16-1.94,3.91-2,8.59-2.4,12.85a353.59,353.59,0,0,0-2,41,302.78,302.78,0,0,0,3,39.22,271.58,271.58,0,0,0,8,37.1,256.63,256.63,0,0,0,13.06,35.22,259.8,259.8,0,0,0,18.14,33.05,277,277,0,0,0,23.34,31A315.49,315.49,0,0,0,1091,705.23q4,3.56,8.09,7a42.78,42.78,0,0,0,8.84,6.23c3.44,1.64,7.13,1.32,10.85,1.36q5.88.08,11.77.12,24.17.21,48.35.19,25.36,0,50.73,0h12.82C1154.48,610.87,1104.74,491.5,1095.87,351.29ZM328,354c8.89,9.09,18.27,17.67,27.35,26.55,4.06,4,8.05,8,11.83,12.25a161.08,161.08,0,0,1,10.18,12.81,125,125,0,0,0,20.31,22.24,98.09,98.09,0,0,0,22.87,14.54A102.36,102.36,0,0,0,446.25,450a140,140,0,0,0,28.93,1.5c11.26-.5,22.5-2.06,33.66-3.67,11.69-1.68,23.34-3.74,34.83-6.48a249.4,249.4,0,0,0,33.27-10.28,193.37,193.37,0,0,0,31.63-15.81q3.73-2.33,7.36-4.84c33.45-23.2,64.67-52.09,72-92.07,7.19-39.55,1.57-81.43,1.57-126.2C592.46,298.13,475.25,352.07,328,354Zm753.26-14.8C936.9,332,815.06,284.93,708.58,185.57c0,12.85.35,25.7.63,38.54.24,11.46.42,22.93-.05,34.38-.22,5.5-.6,11-1.19,16.45a98.32,98.32,0,0,0-.54,15.63,66.78,66.78,0,0,0,7,26.83c4.48,8.81,10.92,16.44,18.08,23.18,1,.93,2,1.85,3,2.75a424.93,424.93,0,0,0,43.85,34.12A358.16,358.16,0,0,0,826,404.18a326.64,326.64,0,0,0,49.67,18.88,323.81,323.81,0,0,0,53,10.56q13.77,1.58,27.66,2c8.54.27,18,1,26.08-2.17a15.09,15.09,0,0,0,4.79-2.88C1017.65,402.06,1047.18,372.49,1081.24,339.15ZM326.87,1085.06l5.95,2.64q16.9-17.37,33.86-34.71t33.69-34.86q4.17-4.36,8.32-8.75l4.21-4.46a20.13,20.13,0,0,0,2.91-3.6c3.15-5.42,3.42-12.11,3.77-18.21a322.73,322.73,0,0,0,0-39,289.15,289.15,0,0,0-4.73-37.21,272.1,272.1,0,0,0-9.36-35.32,270.13,270.13,0,0,0-14-33.69A281.94,281.94,0,0,0,372.8,806a310,310,0,0,0-23.11-30.07q-6.4-7.38-13.25-14.38c-4.59-4.71-9.24-9.68-14.86-13.18a16.74,16.74,0,0,0-8.21-2.93c-41.68-1-83.41-.53-130.31-.53C271,844.94,317.9,957.11,326.87,1085.06ZM188,726.62c21.39,0,42.78.09,64.17.08q15,0,30-.09,7.29-.06,14.58-.14l7.26-.1c2.33,0,4.7,0,7-.19a29.63,29.63,0,0,0,12.69-4.79c3.79-2.45,7.07-5.74,10.38-8.78,6.77-6.21,13.31-12.68,19.53-19.44a254.28,254.28,0,0,0,32.28-43.12A207.54,207.54,0,0,0,407,600.47a331,331,0,0,0,9.84-49.19c1.84-15.53,2.26-31.31.12-46.83a125.33,125.33,0,0,0-14.19-43.53c-8.28-15-19.78-27.92-33-38.75-3.7-3-7.6-5.81-11.27-8.87s-6.92-6.08-10.21-9.31c-7.07-6.92-13.72-14.26-20.51-21.46-3.67-3.89-7.37-7.75-11.16-11.53C324.46,509.54,281.45,624.52,188,726.62ZM1239.55,739c-19.81,0-39.62-.12-59.43-.13-18.32,0-36.63.07-54.94.49-2.42,0-4.92-.05-7.32.23a17,17,0,0,0-6.12,2.14,47.87,47.87,0,0,0-11.17,9c-58.49,60.85-92.91,133.33-107.3,216.54-1.85,10.7-2.95,21.62-2.21,32.48a68.71,68.71,0,0,0,27.73,52.27c2.4,1.89,5,3.52,7.34,5.48a62.9,62.9,0,0,1,6.8,6.76c2.16,2.43,4.23,4.94,6.41,7.36s4.35,4.53,6.58,6.75c9.21,9.13,18.52,18.15,27.8,27.21l4,3.88C1083.35,963.2,1135.58,842.85,1239.55,739Zm-182.89,385,7-9.48q-19.47-17.61-38.89-35.28t-39.26-35.12c-3.16-2.78-6.07-5.82-10.1-7.29a43,43,0,0,0-11.46-2.14c-94.06-7.38-176,21.93-247.17,82.8-8.3,7.1-19.83,16.54-20.39,25.5-2.31,36.8-1,73.83-1,114.23C802.55,1168.93,920.94,1122.74,1056.66,1124ZM677.05,1250.1c0-34.58,1.18-64.58-.53-94.42-.77-13.44-4.38-28.49-11.7-39.47A281.15,281.15,0,0,0,642.5,1087,232.17,232.17,0,0,0,617,1062a202.39,202.39,0,0,0-29-20.33,190.58,190.58,0,0,0-32.45-14.86c-11.93-4.15-24.2-6.71-36.54-9.27-13.35-2.77-26.78-5.41-40.37-6.6-12.45-1.09-25.38-1.07-37.44,2.59-11.44,3.48-21.75,10.56-30.83,18.17-9.89,8.29-18.7,17.78-27.27,27.39-9.07,10.19-17.88,20.61-27.25,30.53-2.29,2.42-4.6,4.81-7,7.16C505.28,1111.58,533.39,1124.73,677.05,1250.1ZM711.37,346l-6.74,1.86c0,38.08,1.83,76.29-.67,114.2-.75,11.31.71,22.68,5.28,33.1,4.43,10.1,11.41,18.89,19.21,26.61a129,129,0,0,0,25.28,19.39,135.64,135.64,0,0,0,28.75,12.7,126.41,126.41,0,0,0,30.11,5.49A105.56,105.56,0,0,0,841.88,557a84.59,84.59,0,0,0,26.36-10.75A107.23,107.23,0,0,0,881,536.45c5.12-4.41,10.08-9,14.94-13.71,9.84-9.55,19.21-19.58,28.45-29.71s18.58-20.61,28-30.75q3.49-3.75,7-7.45C863.33,450.85,780.11,414.73,711.37,346Zm262.5,654.89c5.31-99,41.2-184.19,109.2-260.47q-25.27,0-50.54,0c-15.53,0-31,0-46.58.17l-6.33.07a41.74,41.74,0,0,0-6.12.28,27.76,27.76,0,0,0-11.61,4.83,234,234,0,0,0-23,18.61,192.13,192.13,0,0,0-19.25,20.48,163.31,163.31,0,0,0-15.19,22.31,150,150,0,0,0-11.06,24.44,153.85,153.85,0,0,0-6.65,26.56,170.62,170.62,0,0,0-2,28.65q.09,7.66.79,15.3c.45,5,1.24,10.08,3.34,14.69a19.45,19.45,0,0,0,4.06,5.85q3.21,3.23,6.45,6.43,6.54,6.48,13.13,12.91,13.24,12.92,26.64,25.69,13.89,13.29,27.8,26.56Zm-275,105.24c118.58-78.9,115.84-77.82,254.7-93.45q-17.28-17.52-34.54-35.09-16.67-16.9-33.49-33.68a88.44,88.44,0,0,0-8.17-7.8,44.49,44.49,0,0,0-9.36-5.23,122.52,122.52,0,0,0-17.57-6,137,137,0,0,0-35.71-4.34,148.41,148.41,0,0,0-69.6,18.15A135.74,135.74,0,0,0,716.06,960q-3.19,3.09-6.18,6.4a54.39,54.39,0,0,0-5.93,7.51,32.69,32.69,0,0,0-4.05,9.47c-.88,3.59-.69,7.32-.75,11-.23,16.48-.3,33-.31,49.45,0,16.68,0,33.36.07,50Q698.91,1100,698.92,1106.09ZM445.51,467.6q-1.14,3.25-2.26,6.51c8.79,8.44,18.08,16.33,27.19,24.4a288.37,288.37,0,0,1,25.81,25.21c4,4.52,7.45,9.35,11.09,14.13a99.48,99.48,0,0,0,11.27,12.56,71.17,71.17,0,0,0,24.06,15,73.16,73.16,0,0,0,26.07,4.14,123.2,123.2,0,0,0,27.67-3.92,249.9,249.9,0,0,0,31.06-9.93c11.23-4.37,22.55-9.44,32.51-16.3a63.2,63.2,0,0,0,18.67-19.2,57.55,57.55,0,0,0,7.81-26.44c.15-2.57.16-5.15.06-7.72-.63-15.34-.31-30.7.23-46s1.34-30.61,1.52-45.92c.1-8.63,0-17.26,0-25.89C625.64,450.2,541.39,472.4,445.51,467.6ZM439.28,979C472,946.23,501,917.33,529.77,888.31c1.45-1.46,2.07-4,2.57-6.11,3.35-14.21,5.59-28.79,5.34-43.43a108.59,108.59,0,0,0-8.76-41.68A103.21,103.21,0,0,0,505.14,763a75.71,75.71,0,0,0-29.42-17c-11.54-3.51-23.72-4.32-35.71-3.64-1.61.09-3.21.21-4.82.35-27.6,2.43-55.58.49-86.87.49C421.81,828.39,438.54,890.48,439.28,979ZM979.86,473q-3.92-2-7.82-4.06c-10.9,11.6-21.88,23.11-32.8,34.68s-21.7,23.1-32.31,34.88q-4,4.43-7.94,8.9a30.57,30.57,0,0,0-4.91,7.54,37.42,37.42,0,0,0-3.47,18.19,232.34,232.34,0,0,0,5.31,37.4A194.45,194.45,0,0,0,907.17,645,179.55,179.55,0,0,0,925,676.61a186.29,186.29,0,0,0,24.58,28.26c4.84,4.55,9.85,9.26,15.45,12.86a20.16,20.16,0,0,0,8.71,3.51c3.26.33,6.62.23,9.9.31,13.84.33,27.68.41,41.53.4,14.89,0,29.77-.1,44.66-.14h11.67C1005.22,652.44,972.64,570.56,979.86,473ZM346.34,725.3H396c14.44,0,28.89.19,43.32,0A116.16,116.16,0,0,0,474,720a76.84,76.84,0,0,0,26.91-15.17,79,79,0,0,0,18.82-25.59c5.41-11.45,8.35-23.85,10.55-36.26,2.37-13.42,3.93-27.55,1.67-41.09a41.82,41.82,0,0,0-6-16.42,213.91,213.91,0,0,0-13.82-18.16,440.77,440.77,0,0,0-32.86-34.38c-12.34-11.84-24.94-23.4-37.19-35.34q-4.65-4.53-9.23-9.13C443.61,583.88,415.57,659,346.34,725.3ZM454.83,987.79l2.76,5.93c89.57-2.63,161.71,32.07,219.87,101.65,3.2-40.39,4.58-79.36,2.37-118.12-.68-11.94-8.68-26-17.65-34.48a132.7,132.7,0,0,0-46.25-28.28c-17-6.14-35-9.08-53-10.11q-3.89-.23-7.77-.33a30.59,30.59,0,0,0-7.28.39,28.67,28.67,0,0,0-13.33,6.87C507.58,936.42,481.31,962.22,454.83,987.79Zm479-245.32H719.67l146.2,146.69C864.35,831.31,886.69,783.28,933.82,742.47ZM723.18,721H939.81c-42-40.37-71.15-87.59-75.72-141Q792.5,651.63,723.18,721ZM700.66,943.69c16.8-9.09,32.53-20.13,49.9-28.16a121.62,121.62,0,0,1,26.87-8.85A226.36,226.36,0,0,1,806.31,903c10.41-.77,20.85-1.2,31.22-2.34L700.66,763Zm2.9-239.12,134.6-131.68c-51.91,9.42-96.06-7.38-134.6-52.84Zm-19.89,7.68V552l-116,41.2C604.77,628.55,644.1,674.55,683.67,712.25ZM569.5,880.87l111.19,42.87V769.21ZM672.3,743.44H510.1c37.27,32.15,49.56,70.52,45.57,116.5ZM510.87,721.55H663.43L552.66,611.49C553.74,653.72,541.4,689.51,510.87,721.55Z" style="fill:#d10bcc"/></g></g><polygon points="703.56 520.05 751 192 475 459 776 129 740.78 491.5 703.56 520.05" style="fill:#f6fc75"/><polygon points="817.62 481.3 1005 104 855 266 1069 0 858 481 817.62 481.3" style="fill:#f6fc75"/><polygon points="684 519 286 363 284 727 337 417 684 545 684 519" style="fill:#f6fc75"/><polygon points="979.86 473.02 1220 63 1163 462 1185 175 1028 473 979.86 473.02" style="fill:#f6fc75"/><polygon points="521 578 445 578 421 655 445 691 495 660 521 578" style="fill:#a58d16"/><polygon points="460.98 769.9 521.41 723.81 587.19 770.48 589.94 813.66 531.38 819.33 460.98 769.9" style="fill:#a58d16"/><polygon points="961.73 429.31 1139.86 405.3 1283.11 463.28 1352 587.28 1315.06 813.04 1154.76 914.87 1025.54 899.99 854.21 800.02 833.78 640.35 885.25 513.18 907.73 457.64 961.73 429.31" style="fill:#d3c140"/><polygon points="691.34 730.88 625.14 643.04 624.23 555.42 688.86 492.16 852.05 461.85 965.93 523.26 992.09 594.07 972.45 685.6 870.08 751.37 769.56 752.42 725.66 752.88 691.34 730.88" style="fill:#e2d55d"/><polygon points="752.17 711.85 686.58 783.79 607.51 807.11 536.77 775.37 475.22 661.8 506.94 561.21 565.52 523.46 670.51 509.25 733.32 573.58 755.3 648.09 764.89 680.64 752.17 711.85" style="fill:#d3c140"/><polygon points="903.51 693.61 1368.6 607.8 1156.02 988.52 1291.44 667.45 911.37 717.72 889.47 707.9 903.51 693.61" style="fill:#f6fc75"/><polygon points="742 728 615 976 313 745 653.97 1043.97 753 728 742 728" style="fill:#f6fc75"/><polygon points="832.99 733 1225 1093 836 1016 1141 1056 811 747 832.99 733" style="fill:#f6fc75"/><polygon points="905 723 1257 844 957 1026 1195 857 859 738 905 723" style="fill:#f6fc75"/><circle cx="543.78" cy="556.63" r="36.37" style="fill:#fff"/><circle cx="528.25" cy="573.36" r="9.92" style="fill:#324915"/><circle cx="646.78" cy="732.63" r="36.37" style="fill:#fff"/><circle cx="624.5" cy="737.59" r="9.92" style="fill:#324915"/><g style="mix-blend-mode:saturation"><path d="M1220.45,873.14l94.61-60.1,25.31-154.67,28.23-50.57L1348,611.6l4-24.32-68.89-124-113.72-46L1220,63,1009.21,422.91l-47.48,6.4-54,28.33-11.37,28.1-32.7-17.63L1069,0,855,266l150-162L824.76,466.92l-83.09,15.43L776,129,489.73,442.85,286,363l-2,364,53-310L609.48,517.51l-44,6-3,2a36.36,36.36,0,0,0-55.05,31.2,37.23,37.23,0,0,0,.23,4.12l-.71.46L501.64,578H445l-24,77,24,36,34.46-21.37,33,61L461,769.9l70.4,49.43,58.56-5.67-1-14.86,18.52,8.31,79.07-23.32,32.21-35.32,6.87,4.41,3.62,0L615,976,313,745l341,299,91.3-291.3,24.29-.25,46.71-.49,36.11,33.82L854.21,800l35.61,20.78,153.6,143.83L957,1026l92.22-55.94L1141,1056l-305-40,389,77L1074.45,954.75l68-41.29,12.26,1.41,44.16-28L1156,988.52ZM491.13,443.4,751,192,708.11,488.58l-19.25,3.58L670.94,509.7l-.43-.45-8.46,1.15ZM1185,175l-18.48,241.09-26.66-10.79-82,11.05ZM1067,947.9l-70.82-65L1025.54,900l93.72,10.79Z" style="fill:#f7f9ac"/></g></g></svg>