<svg xmlns="http://www.w3.org/2000/svg" xmlns:xlink="http://www.w3.org/1999/xlink" viewBox="0 0 1409.48 1180.8"><defs><clipPath id="a" transform="translate(-76.52 -135.12)"><polygon points="1410 296 1410 0 304 0 304 118 0 118 0 1402 494 1402 494 1362 1210 1362 1210 1126 574 1126 574 279.15 1410 296" style="fill:none"/></clipPath></defs><title>planner</title><rect x="1239.15" y="1033.54" width="26.97" height="253.52" transform="translate(2791.74 1577.54) rotate(156.07)" style="fill:#5e6646"/><polygon points="493.48 138.88 1409.48 164.88 1409.48 992.88 493.48 992.88 493.48 138.88" style="fill:#dcf9b2"/><polygon points="543.89 185.88 1359.07 209.02 1359.07 945.88 543.89 945.88 543.89 185.88" style="fill:#d2efa0"/><g style="opacity:0.5"><polygon points="972.13 265.89 968.66 260.56 965.49 259.55 809.49 258.2 805.15 268.45 804.03 271.9 801.21 395.88 813.21 395.88 816.03 271.9 815.81 270.06 960.06 271.33 958.17 407.89 970.17 407.89 972.13 265.89" style="fill:#3f3f3f"/><polygon points="895.74 451.15 935.74 488.07 938.93 476.5 906.1 445.09 895.74 451.15" style="fill:#3f3f3f"/><polygon points="983.5 474.29 983.5 486.29 1029.62 464.04 1021.13 455.55 983.5 474.29" style="fill:#3f3f3f"/><polygon points="1054.07 425 1089.12 397.99 1085.93 386.42 1042.5 421.81 1046.69 429.19 1054.07 425" style="fill:#3f3f3f"/><polygon points="1184.09 413.36 1133.46 391.7 1133.46 403.7 1175.6 421.85 1184.09 413.36" style="fill:#3f3f3f"/><polygon points="1205.72 455.88 1193.72 455.88 1180.06 504.71 1190.42 510.77 1205.72 455.88" style="fill:#3f3f3f"/><polygon points="1162.65 543.26 1156.59 532.9 1119.35 582.16 1130.92 585.36 1162.65 543.26" style="fill:#3f3f3f"/><rect x="1111.48" y="619.88" width="12" height="70" style="fill:#3f3f3f"/><polygon points="1122.07 723.76 1110.5 720.57 1072.44 768.69 1078.5 779.05 1122.07 723.76" style="fill:#3f3f3f"/><polygon points="982.05 763.34 1051.76 779.56 1048.57 767.99 990.53 754.85 982.05 763.34" style="fill:#3f3f3f"/></g><g style="clip-path:url(#a)"><circle cx="713.17" cy="590.4" r="590.4" style="fill:#8fe1e5"/></g><rect x="253.04" y="906.08" width="66.21" height="190.8" style="fill:#3f3f3f"/><rect x="777.14" y="781.96" width="66.21" height="190.8" transform="translate(244.98 1831.91) rotate(-113.12)" style="fill:#3f3f3f"/><path d="M981.81,975.1l-2.51-1.25-.58-.18,1.55-6.83-20-15.83-14.6,8.76-11-9.48-14.43,11.29.65,5.88-3.9,13.77-6.32,19.67,21.14,10.48,3,11.07,11.27,6.69,4.47,2.69,40.3-11.39L989.38,996l1.71-11.88Zm-3.18,15.36-1.6,11.79.4,14.93-18.11,3.64-8.7-3.67-5.12-8.61-5.83-10-15.45-.24-3.3-3.8,2.37-2.5,6.78-8.82-1.18-3,18.7,4.93,7.2-16.54-.41-.64,7.94-5,5.47,3.08-1,7.51,8,11.53,5,2.78Z" transform="translate(-76.52 -135.12)" style="fill:#3f3f3f;opacity:0.5"/><path d="M1008.09,973.81l10.81,18.45,3.54,16.06,23.25-.51,4.15-3.49,6-.32,10.5-6.76,2.85-21.2,8.58-21.58L1062,937.12l-10-12-13,1.71-9.93,12.42-14.44,4.85-.79,19.23Zm19.06-22.6,6.6,3.89,3.57,5.25,17.94-2.48,1-6.62,9.79,5.92-5.91,9.55-3.74,7.61,1.24,14-10.36,4.35-10.47,6.71-5.67.49-.77-3.77,2.51-4.83-3.08-6.38-9.8-8.73,2.46-3.59,5-10.44-4.16-8.7Z" transform="translate(-76.52 -135.12)" style="fill:#3f3f3f;opacity:0.5"/><path d="M995.49,924.47l18.16-1.51,6.8-20.91,5.33-11.35-.67-8.73-11.19-14.06-.09-20.16L1004.74,837l-14.52,0L974,846.88l-19.61,7.29-3.65,25.67-7.57,18.76,22.48,13.86,2.27,9,23.58,6.83Zm1.63-68.84,0,.08h0l0-.09Zm-.08.43v0h0l0,0h0v-.51l.07.44-.07.07v0l.06-.09v.06h0l-.06.05h0l-.06.08-.06,0,.11-.13h0v0h0v0l-.12.16Zm-18.26,60-.74-4.51-3-11.19-17.79-2.2-3-4.89,3.12-2.72,6.78-8.81L963,862.56l11.43-2.43,8.81-3.59,1.21-3.39-.43,3.68,3.89,5.6,9.69,5.07,3.34-.44.58,4.41,9.19,10.23,3.28,4.52-2,5.26-4.1,14.69-1.58,7-2.77,2.48L993.61,918l-5.34-1.19Z" transform="translate(-76.52 -135.12)" style="fill:#3f3f3f;opacity:0.5"/><polygon points="724.77 549.73 674.47 450.08 619.51 414.52 548.51 412.35 498.54 358.09 407.75 337.27 351.1 365.07 308.12 432.98 215.29 413.83 136.24 462.81 98.97 563.49 108.86 645.36 40.29 673.5 0 750.25 13.1 855.07 41.04 897.41 41.87 955.09 60.97 1008.78 131.07 1071.9 185.18 1077.05 252.4 1032.96 298.75 1063.33 351.84 1068.11 411.64 1033.37 479.82 1044.93 532.61 1017.53 569.11 952.6 629.78 957.97 712.26 899.52 733.95 845.17 722.02 725.98 698.66 685.65 726.84 607.71 724.77 549.73 724.77 549.73" style="fill:#f2ebe4"/><polygon points="732.33 849.23 733.95 845.17 722.02 725.98 698.66 685.65 726.84 607.71 724.77 549.73 674.47 450.08 619.51 414.52 548.51 412.35 498.54 358.09 407.75 337.27 351.1 365.07 308.12 432.98 215.29 413.83 136.24 462.81 98.97 563.49 108.86 645.36 40.29 673.5 8.78 733.53 98.48 714.88 174.48 593.88 286.48 595.88 356.48 481.88 471.48 475.88 563.48 504.88 582.48 569.88 698.48 680.88 663.48 809.88 732.33 849.23" style="fill:#f9f1ea"/><polygon points="468.88 505.7 586.49 523.13 663.16 617.22 663.16 721.77 569.07 815.86 492.4 815.86 388.72 718.28 388.72 610.25 468.88 505.7" style="fill:#3f3f3f"/><circle cx="435.01" cy="627.59" r="27.53" style="fill:#fff"/><circle cx="445.79" cy="620.64" r="7.51" style="fill:#324915"/><circle cx="628.95" cy="632.75" r="27.53" style="fill:#fff"/><circle cx="642.1" cy="624.62" r="7.51" style="fill:#324915"/><polygon points="468.88 505.7 332.97 545.78 315.54 573.22 332.97 591.08 438.38 591.08 468.88 505.7" style="fill:#3f3f3f"/><polygon points="586.49 523.13 704.98 584.99 708.29 604.26 678.84 611.99 640.94 599.8 616.98 591.08 586.49 523.13" style="fill:#3f3f3f"/><polygon points="434.86 1115.14 368.65 1115.14 368.65 955.71 401.75 963.55 434.86 955.71 434.86 1115.14" style="fill:#3f3f3f"/><polygon points="165.26 1106.62 99.05 1107.16 98.38 1026.17 131.52 1029.83 164.59 1025.62 165.26 1106.62" style="fill:#3f3f3f"/><rect x="827.41" y="773.08" width="176.01" height="7.07" transform="translate(-240.01 1167.91) rotate(-66.32)" style="fill:#331800"/><polygon points="918.9 386.41 927.38 377.93 893.22 346.06 918.38 318.74 909.9 310.25 883.23 339.2 847.54 320.89 844.35 332.47 875.05 348.08 836.98 389.41 845.47 397.89 885.08 354.88 918.9 386.41" style="fill:#3f3f3f;opacity:0.6000000000000001"/><path d="M1350.31,642.55l21.08-3.61,16.27,2.34,7.72-21.94-1.8-5.11,1.8-5.68-2.63-12.21-18.84-10.13-17.17-15.65L1335,579.17l-14.77,5.11-3,12.77,8.13,13.67-.55,15.22,17.72,7.52Zm-14.43-25.8,6-4.8,6.17-1.5,4-17.66-5.85-3.27,9-7.06,6.85,8.89,5.81,6.19,13.53,3.76.42,11.23,2.59,12.16-1.54,5.48-3.8-.6-3.64-4.06-7.05.64-11.62,6.09-2.5-3.57-8-8.38-9.61.83Z" transform="translate(-76.52 -135.12)" style="fill:#3f3f3f;opacity:0.5"/><polygon points="713 989.94 648.36 1135.57 673.01 1146.52 742.34 990.3 713 989.94" style="fill:#5e6646"/><path d="M1346.6,552.11l15.24-10-4-21.62-.73-12.52-4.76-7.36-16.54-7-9.7-17.67L1313,470.8l-12.75,7-9.57,16.43L1276.9,510l9,24.3,2.3,20.1,26.37,1.45,6.32,6.87,24-5.25Zm-31.42-61.28.07.05h0l-.08-.07Zm.13.42,0,0h0l0,0h0l-.24-.44.27.35,0,.09,0,0v-.11l0,.06h0l0,.07h0v.1l0,.07,0-.17h0l0,.19Zm12.58,61.4-2.81-3.61-8-8.38-16.69,6.55-5-2.85,1.45-3.89,1.75-11-10.14-16.27,8.88-7.59,6-7.35-.57-3.56,1.39,3.43,6.09,3.07,10.93-.17,2.73-2,2.61,3.6,13,4.61,5,2.4.79,5.56,3.41,14.86,1.94,6.9-1.25,3.5-7.61,6.77-5.26,1.51Z" transform="translate(-76.52 -135.12)" style="fill:#3f3f3f;opacity:0.5"/><rect x="1005.15" y="1125" width="26.85" height="123.06" transform="translate(1960.62 2237.94) rotate(-180)" style="fill:#5e6646"/></svg>