<svg xmlns="http://www.w3.org/2000/svg" viewBox="0 0 1488.82 1182.26"><title>prototyper</title><g style="isolation:isolate"><circle cx="810.4" cy="590.4" r="590.4" style="fill:#7ab5ea"/><polygon points="1391.11 354.26 1337.11 332.26 1337.11 344.26 1391.11 370.59 1391.11 354.26" style="fill:#3b3b49"/><polygon points="1327.96 409.25 1343.32 449.37 1341.51 486.43 1328.98 521.98 1313.82 542.4 1280.83 563.61 1243.12 562.43 1201.88 547.12 1201.88 501.16 1211.3 459.92 1251.37 419.86 1298.5 409.25 1327.96 409.25" style="fill:#ed926e"/><polygon points="1323.24 445.78 1312.64 459.92 1296.14 464.63 1267.86 445.78 1284.36 430.46 1296.14 438.71 1318.53 430.46 1323.24 445.78" style="fill:#c94218"/><polygon points="1227.21 525.91 1326.19 526.5 1328.55 521.78 1227.21 523.55 1227.21 525.91" style="fill:#c94218"/><polygon points="1088.18 209.53 1191.88 187.14 1262.58 201.28 1319.14 246.05 1342.7 326.18 1341.53 429.87 1317.37 409.84 1270.83 585.41 1217.8 696.17 1137.67 723.28 1115.29 637.26 772.98 645.51 749.42 435.76 777.7 303.79 834.25 200.1 975.07 356.82 1013.95 270.8 1088.18 209.53" style="fill:#e0522b"/><polygon points="1447.66 607.21 1394.81 478.18 1317.04 393.34 1232.2 332.07 1088.44 332.07 916.4 372.13 805.64 459.33 805.64 730.35 1126.15 804.58 1447.66 607.21" style="fill:#e0522b"/><polygon points="1221.92 608.77 1189.83 616.76 1203.44 598.84 1170.94 604.51 1168.31 589.42 1141.61 594.08 1135.74 560.42 1121.71 576.02 1115.84 542.36 1106.26 555.99 1101.4 528.13 1089.49 542.17 1081.8 498.06 1072.82 515.18 1063.61 476.12 1050.95 492.68 1044.67 456.69 1024.74 458.98 1029.31 423.49 994.25 448.75 974.49 500.04 967.19 533.61 963.78 568.89 959.37 625.88 971.25 659.69 1010.03 690 1161.19 850.22 1244.31 929.02 1312.07 693.52 1281.43 558.31 1262.58 580.7 1244.9 612.51 1221.92 608.77" style="fill:#cc3a27"/><polygon points="1429.57 631.96 1423.67 687.34 1419.8 713.16 1416.6 734.47 1410.44 763.23 1406 783.96 1393.04 802.81 1371.83 852.3 1342.37 899.44 1325.87 938.32 1319.98 965.42 1282.28 998.41 1132.63 1003.13 1104.35 997.24 1066.64 1003.13 1028.93 1014.91 991.23 1024.34 955.88 1024.34 925.24 1010.2 908.75 981.92 908.75 947.75 896.96 968.96 896.96 925.36 885.18 947.75 873.4 871.16 863.97 894.72 851.01 820.49 841.58 835.81 828.62 748.61 815.66 762.75 815.66 680.27 800.34 693.23 899.91 730.35 1003.6 580.7 1023.04 568.33 1052.5 558.9 1086.67 558.9 1114.95 577.75 1126.74 614.28 1138.52 654.34 1155.61 748.02 1166.21 878.82 1152.07 936.55 1133.81 926.54 1177.4 836.98 1192.72 743.9 1233.96 631.96 1270.49 586 1317.63 538.87 1369.47 524.73 1400.11 536.51 1424.85 568.33 1429.57 631.96" style="fill:#dd3e19"/><polygon points="1214.52 915.34 1241.62 832.86 1280.51 739.77 1307.61 700.89 1282.86 724.45 1254.58 768.05 1207.45 898.85 1214.52 915.34" style="fill:#b73513"/><polygon points="1280.97 928.19 1342.23 943.37 1383.46 962.65 1398.58 985.35 1388.8 1011.37 1365.49 1019.35 1344.44 1011.55 1335.14 1029.13 1310.13 1031.26 1296.9 1016.79 1276.79 1034.1 1258.32 1028.47 1257.31 1016.56 1232.5 1021.07 1231.27 1006.63 1189 1003.18 1186.47 973.41 1212.08 922.06 1217.38 942 1232.15 932.35 1243.19 949.4 1263.11 929.71 1261.16 949.07 1280.97 928.19" style="fill:#e2896a"/><rect x="1383.66" y="551.11" width="128" height="12.28" transform="translate(316.91 1619.16) rotate(-64.26)" style="fill:#484859"/><polygon points="1488.82 646.47 1479.23 592.79 1414.04 564.03 1369.94 596.62 1369.94 636.88 1391.99 671.39 1429.38 684.82 1488.82 646.47" style="fill:#ed926e"/><polygon points="1467.03 611.11 1218.97 611.11 1166.21 878.51 1398.77 878.51 1467.03 611.11" style="fill:#9898a5"/><polygon points="1467.03 611.11 1480.63 632.64 1480.63 666.63 1459.1 706.29 1446.07 734.62 1418.88 802.6 1411.51 844.52 1418.88 868.31 1182.64 868.31 1176.97 839.99 1179.99 808.65 1201.62 778.8 1224.56 726.68 1244.39 685.89 1244.96 653.04 1244.39 622.45 1218.9 611.11 1467.03 611.11" style="fill:#e4e4ef"/><polygon points="805.64 459.33 737.3 580.7 772.65 560.67 737.3 671.43 763.22 662 737.3 712.67 770.29 697.35 770.29 768.05 798.57 730.35 798.57 809.29 824.5 786.9 824.5 832.86 895.2 817.54 881.05 855.25 954.11 832.86 935.26 868.21 1001.24 832.86 1001.24 857.61 1038.95 811.65 1038.95 844.64 1086.08 817.54 1096.69 878.82 1132.04 878.82 1128.5 844.64 1140.29 894.13 1176.82 894.13 1176.82 868.21 1198.79 882.35 1228.66 859.96 1221.59 828.15 1234.55 844.64 1255.76 809.29 1234.55 746.84 1166.21 730.35 1074.3 712.67 977.68 676.14 916.4 633.72 911.69 564.2 925.83 497.04 890.48 407.48 805.64 459.33" style="fill:#d85623"/><polygon points="1112.98 720.11 1136.75 723.28 1115.54 729.17 1126.15 739.77 1100.22 739.77 1122.61 753.91 1096.69 746.84 1114.95 768.05 1096.69 768.05 1104.94 783.37 1082.55 783.37 1097.28 801.04 1082.55 794.48 1095.51 816.36 1086.08 816.36 1096.69 878.82 1132.04 878.82 1130.27 850.53 1140.29 894.13 1176.82 894.13 1176.82 868.21 1199.2 882.35 1231.02 859.96 1221.59 830.5 1234.55 844.64 1255.76 806.94 1234.55 744.49 1112.98 720.11" style="fill:#ed926e"/><polygon points="1099.71 1013.76 1077.29 1015.52 1049.65 1017.11 1022.92 1023.94 984.48 1029.62 949.3 1026.15 920.2 1009.07 908.9 979.54 910.06 967.81 935.59 949.02 966.07 940.19 973.32 926.69 983.9 951.42 1008.5 930.16 1015.56 954.54 1031.26 939.51 1050.5 948.52 1052.58 927.41 1075.35 948.6 1095.04 941.07 1116.62 944.38 1151.47 969.14 1175.75 975.09 1201.72 974 1208.72 988.99 1198.08 1012.81 1179.93 1028.78 1144.63 1026.48 1127.27 1022.4 1099.71 1013.76" style="fill:#ed926e"/><polygon points="1327.96 409.25 1343.32 449.37 1334.44 484.08 1313.82 530.62 1280.83 554.19 1243.12 562.43 1201.88 547.12 1201.88 501.16 1211.3 459.92 1251.37 419.86 1298.5 409.25 1327.96 409.25" style="fill:#ed926e"/><polygon points="1323.24 445.78 1312.64 459.92 1296.14 464.63 1267.86 445.78 1284.36 430.46 1296.14 438.71 1318.53 430.46 1323.24 445.78" style="fill:#c94218"/><polygon points="1227.21 525.91 1315.59 526.5 1317.94 521.78 1227.21 523.55 1227.21 525.91" style="fill:#c94218"/><polygon points="1358.11 334.7 1326 341.67 1290.27 367.82 1271.51 376.54 1224.62 375.67 1156.8 375.67 1142.37 359.98 1168.34 342.55 1201.53 347.78 1251.93 346.03 1282.37 335.57 1306.86 312.91 1343.47 313.78 1358.11 317.27 1358.11 334.7" style="fill:#ed926e"/><circle cx="1332.02" cy="389.6" r="24.36" style="fill:#fff"/><circle cx="1317.79" cy="396.88" r="6.64" style="fill:#324915"/><circle cx="1207.09" cy="397.74" r="27.63" style="fill:#fff"/><circle cx="1190.95" cy="407.71" r="7.53" style="fill:#324915"/><polygon points="1351.03 423.49 1343.28 447.55 1335.03 484.08 1312.64 531.21 1300.86 550.06 1307.93 546.53 1300.86 568.33 1327.96 539.46 1379.81 525.32 1410.44 537.1 1434.85 568.33 1443.43 572.45 1404.55 478.18 1351.03 417.3 1351.03 423.49" style="fill:#c63b1a"/><path d="M1155.18,381.77l2.19,35.57,30.17,23.92,56.78-4.49,28.58-34.9-1.56-25.36,16.18-1.29,1.94,31.44L1316.6,431l48.25-8.06,25.26-34.84.71-33.21-68.45,5.43-35.59,2.81-16.19,1.29L1246,366.4l-79.74,6.32-136-67.58-22.18,19.12,18.61-7.59ZM1299,374.31l24.08-1.9,57-4.52-1.73,16.64-19.45,26.82-38.3,7.27-19.93-17.91Zm-132.1,10.47,79.84-6.33,13.06-1,1.26,20.42-22.33,27.26-47.63,3.77L1168.54,411Z" style="fill:#484859"/><polygon points="1041.5 316.88 1020.96 314.86 999.87 325.07 983.32 345.53 972.04 375.35 975.32 398.71 1002.58 409.73 1027.33 399.32 1038.02 378.9 1041.11 340.44 1041.5 316.88" style="fill:#ed926e"/><polygon points="1026.29 328.48 1005.2 338.68 985.77 362.7 987.57 385.01 1003.11 396.09 1019.09 386.44 1022.28 355.07 1028.67 340.63 1026.29 328.48" style="fill:#c94218"/><polygon points="223.29 928.3 216.22 822.25 189.12 707.96 205.62 481.72 172.63 269.62 197.37 256.66 216.22 452.26 223.29 502.93 205.62 725.63 231.54 822.25 240.97 956.58 223.29 928.3" style="fill:#7f3729"/><polygon points="459.55 273.74 433.62 258.43 412.41 265.5 404.17 283.17 404.17 300.85 412.41 319.7 431.86 332.07 459.55 273.74" style="fill:#d6365c"/><polygon points="698.16 209.53 537.91 209.53 469.56 242.52 441.28 294.37 413 390.99 413 423.98 467.21 471.11 448.35 680.86 526.12 888.24 625.1 991.93 761.79 1020.21 1011.59 706.78 1035.16 497.04 1006.88 365.06 938.54 249.59 856.05 197.74 768.86 197.74 698.16 209.53" style="fill:#aa1744"/><polygon points="592.11 608.98 625.1 611.34 608.61 596.02 641.6 596.02 641.6 580.7 668.7 580.7 668.7 546.53 685.2 559.49 685.2 525.32 696.98 537.1 696.98 508.82 711.12 520.6 711.12 475.83 722.9 491.15 725.26 451.08 740.58 465.22 740.58 428.69 760.61 427.52 750 393.34 788.89 412.2 817.17 459.33 830.13 491.15 839.56 525.32 853.7 580.7 847.81 616.05 814.81 652.58 693.45 836.39 625.1 928.3 517.88 707.96 478.99 608.98 498.43 610.75 553.22 623.12 592.11 608.98" style="fill:#8e1043"/><polygon points="388.85 703.83 394.74 759.22 398.61 785.04 401.81 806.35 407.97 835.11 412.41 855.84 425.38 874.69 446.59 924.18 476.04 971.31 492.54 1010.2 498.43 1037.3 536.14 1070.29 685.79 1075.01 714.07 1069.12 751.77 1075.01 789.48 1086.79 827.18 1096.22 862.53 1096.22 893.17 1082.08 909.67 1053.8 909.67 1019.63 921.45 1040.84 921.45 997.24 933.24 1019.63 945.02 943.03 954.45 966.6 967.41 892.37 976.83 907.68 989.79 820.49 1002.76 834.63 1002.76 752.14 1018.07 765.11 1018.07 660.83 814.81 652.58 795.37 640.2 765.91 630.78 731.74 630.78 703.46 649.63 691.68 686.16 691.68 726.22 696.39 776.89 712.89 917.11 725.85 984.27 684.61 998.41 641.01 908.86 625.69 815.77 584.45 703.83 547.92 657.88 498.43 610.75 448.94 596.61 418.31 608.39 393.56 640.2 388.85 703.83" style="fill:#991143"/><polygon points="906.72 1041.42 883.16 1020.21 853.7 1008.43 847.81 994.29 834.84 1017.86 812.46 994.29 803.03 1017.86 788.89 1001.36 768.86 1008.43 768.86 987.22 744.11 1006.07 725.26 996.65 703.46 997.83 702.87 1076.77 713.48 1068.53 735.62 1072.48 762.97 1076.77 788.89 1086.2 826.6 1095.63 861.95 1095.63 892.58 1081.49 906.72 1053.21 906.72 1041.42" style="fill:#c42a56"/><polygon points="526.91 1076.76 549.33 1078.52 576.97 1080.11 603.69 1086.94 642.14 1092.62 677.32 1089.15 706.42 1072.07 717.72 1042.54 716.56 1030.81 691.02 1012.02 660.55 1003.19 653.3 989.69 642.72 1014.42 618.12 993.16 611.05 1017.54 595.36 1002.51 576.12 1011.52 574.04 990.41 551.26 1011.6 531.58 1004.07 510 1007.38 475.14 1032.14 450.87 1038.09 424.9 1037 417.9 1051.99 428.54 1075.81 446.69 1091.78 481.99 1089.48 499.34 1085.4 526.91 1076.76" style="fill:#c42a56"/><polygon points="431.27 435.18 404.17 483.49 360.57 525.91 312.26 553.01 266.3 562.43 193.25 570.68 193.25 651.99 252.16 694.41 306.37 717.97 304.01 703.83 328.75 717.97 327.57 699.12 353.5 726.22 353.5 702.65 368.82 726.22 388.85 703.83 391.2 716.79 424.2 692.05 431.27 709.73 459.55 677.91 492.54 470.52 431.27 435.18" style="fill:#aa1744"/><polygon points="466.62 470.52 460.14 545.35 480.76 591.89 513.75 615.46 551.46 623.71 592.7 608.39 592.7 562.43 566.77 521.19 519.64 481.13 496.08 470.52 466.62 470.52" style="fill:#d6365c"/><polygon points="615.09 375.08 625.69 352.69 646.9 339.73 674 339.73 705.82 352.69 723.49 375.08 716.42 411.61 692.86 428.11 669.29 422.21 635.12 393.93 615.09 375.08" style="fill:#d6365c"/><polygon points="471.33 507.05 481.94 521.19 498.43 525.91 526.71 507.05 510.21 491.74 498.43 499.98 476.04 491.74 471.33 507.05" style="fill:#ad1245"/><polygon points="147.29 535.33 216.81 525.91 253.34 535.33 266.3 562.43 259.23 580.11 271.01 593.07 271.01 616.64 256.88 623.71 263.94 640.2 259.23 654.34 242.74 670.84 238.61 690.28 215.63 696.76 147.29 669.66 131.97 657.88 131.97 640.2 131.97 610.75 124.9 595.43 133.15 570.68 142.58 561.26 147.29 535.33" style="fill:#d6365c"/><polygon points="637.48 827.56 609.2 882.94 592.7 928.89 537.32 986.63 510.21 1033.77 510.21 1049.08 536.14 1070.29 565.6 1092.68 567.95 1069.12 557.35 1052.62 573.85 1026.69 564.42 1106.82 573.85 1122.14 615.09 1122.14 615.09 1105.64 625.69 1122.14 668.11 1122.14 668.11 1102.11 678.72 1122.14 716.42 1113.89 716.42 1087.97 703.46 1077.36 702.28 1038.48 708.17 979.56 708.17 946.57 742.35 884.12 783.59 872.33 764.73 866.44 841.33 834.63 818.94 833.45 914.38 788.67 899.06 788.67 957.98 753.32 957.98 739.18 978.01 739.18 966.23 726.22 1016.9 726.22 993.33 712.08 1034.57 712.08 1023.97 696.76 1047.53 703.83 1047.53 683.8 1068.74 688.51 1052.25 616.64 1068.74 629.6 1044 561.26 1058.14 570.68 1034.57 496.45 1020.43 463.45 1040.46 483.49 1016.31 405.13 980.37 383.33 864.89 455.21 855.47 508.23 868.43 502.34 861.36 534.15 874.32 525.91 868.43 554.19 882.57 547.12 881.39 580.11 848.39 616.64 789.48 673.2 741.17 726.22 669.29 789.85 637.48 827.56" style="fill:#aa1744"/><polygon points="633.35 372.13 654.56 359.17 686.38 359.17 704.05 379.2 704.05 403.95 686.38 412.2 658.1 389.81 642.13 384.47 633.35 372.13" style="fill:#b72043"/><path d="M418.73,454c-7-13.2-6-26.56,7.25-33.55,7.63-4.05,10.32,2.93,17.65,6.19,5.34,2.37,19.95,3.48,22.9,9,7,13.2,2,22.56-11.24,29.55A27,27,0,0,1,418.73,454Z" style="fill:#fff"/><circle cx="436.63" cy="457.77" r="7.38" style="fill:#324915"/><circle cx="561.96" cy="457.72" r="27.04" style="fill:#fff"/><circle cx="550.93" cy="472.51" r="7.38" style="fill:#324915"/><polygon points="412.41 428.11 453.92 445.19 473.54 451.08 522.58 450.49 593.51 450.49 608.61 439.89 581.44 428.11 546.73 419.86 510.51 428.11 472.78 435.18 436.56 419.86 413.17 407.48 412.41 428.11" style="fill:#d6365c"/><polygon points="592.11 928.3 565.01 845.82 526.12 752.73 499.02 713.85 523.77 737.42 552.05 781.01 599.18 911.81 592.11 928.3" style="fill:#a30a45"/><polygon points="625.28 851.71 608.61 882.35 633.35 867.03 614.5 898.85 633.35 887.06 625.1 928.3 646.31 889.42 646.31 936.55 668.7 907.1 668.7 928.3 693.45 914.16 693.45 943.62 712.3 916.52 715.86 932.52 725.26 983.69 703.46 1016.68 702.87 1076.77 715.83 1087.38 715.83 1113.3 678.13 1121.55 668.7 1101.52 668.7 1121.55 625.1 1121.55 614.5 1105.05 614.5 1121.55 573.26 1121.55 563.83 1106.23 563.83 1092.09 509.63 1048.49 509.63 1033.18 536.73 986.04 547.33 977.21 625.28 851.71" style="fill:#d6365c"/><polygon points="567.36 587.18 478.99 587.77 476.63 583.05 567.36 584.82 567.36 587.18" style="fill:#8e1043"/><polygon points="0 1084.43 75.41 990.17 159.07 933.61 209.74 902.97 232.13 917.11 299.23 891.19 345.19 931.25 386.43 987.81 431.2 1030.23 463.02 1084.43 487.76 1131.57 315.79 1152.78 223.88 1152.78 96.62 1152.78 35.35 1110.36 0 1084.43" style="fill:#b26047"/><g style="opacity:0.15;mix-blend-mode:luminosity"><path d="M1488.82,646.47l-9.59-53.68-34.54-15.24,36.3-75.28-11.07-5.33-36.46,75.61,0-.11h0l-2.25-5.47-36.37-88.8-6.25-6.81-41.41-47.1,7.7-1.29,25.26-34.84.38-17.85.62.3V354.26l-38.55-15.7v-.65L1358,334.7V317.27l-15.32-3.49-3.67-.08-19.89-67.65-56.56-44.77-70.7-14.14-103.7,22.39L1014,270.8l-25.11,55.55L986,329.83l-47.48-80.24-82.49-51.85H768.86l-70.7,11.79H537.91l-68.35,33-15.32,28.09-20.62-12.18-21.21,7.07-8.24,17.67v17.68l8.24,18.85,18.09,11.51L413,391v21l-.59,16.11,10.13,4.16,7,6.06-25.33,45.16-43.6,42.42L312.26,553l-46,9.42-13-27.1-32-8.25,1.91-24.15-7.07-50.67-18.85-195.6-24.75,13,33,212.1-3.37,46.16-55,7.45-4.71,25.93-9.43,9.42-8.25,24.75L132,610.75v47.13l15.32,11.78,43.37,17.2L189.12,708l27.1,114.3,5.9,88.53L209.74,903l-50.67,30.64L75.41,990.17,0,1084.43l35.35,25.93,61.27,42.42H315.79l172-21.21L463,1084.43l-31.82-54.2-44.77-42.42-41.24-56.56-46-40.06-61.41,20.48-6.28-89.41-25.92-96.63,2.52-31.84,7.49,3,23-6.48,1-4.88,12.51,9L306.37,718,304,703.83,328.75,718l-1.17-18.85,25.92,27.1V702.66l15.32,23.56,20-22.39,5.89,55.38L398.61,785l3.2,21.31L408,835.11l4.44,20.73,13,18.85,21.21,49.49L476,971.31l16.5,38.89,1.81,8.3-19.21,13.64-24.27,5.94-26-1.08-7,15,10.64,23.82,18.15,16,35.3-2.3,17.35-4.08,27.57-8.64,19.78,1.56.14.09,17,13.68v14.14l9.43,15.32h.22l.36.59h41.25V1106l10,15.58h.21l.38.59h42.42v-.59h.59v-18.33l7.21,13.62,2.22,4.71.25,0,.34.64,37.7-8.25V1088l-.59-.48v-.11l-12.37-10.13,0-.91,8.8-6.84,1.84-.38,21.55,3.36h0l16.22,2.55,37.64,11.76,37.71,9.43h35.35l30.63-14.14,16.5-28.28v-34.18l11.78,21.21v-31l9.58,5.62,2.2,4.19.41-2.66,15.66,9.19,35.17,3.47,38.45-5.68,26.73-6.83,27.64-1.59,22.42-1.76,27.56,8.64,17.36,4.08,35.3,2.3,18.15-16,3.83-8.57,29.36,2.39,1.23,14.44,24.8-4.51,1,11.91,18.47,5.63,20.12-17.31,13.22,14.47,25-2.13,9.3-17.58,21,7.8,23.31-8,9.78-26-15.12-22.7-41.23-19.28-16.56-4.1.2-.95,16.5-38.88,13.08-20.93h43.31l2.61-10.2h17.51l-7.37-23.79,7.37-41.92,27.19-68,13-28.33,21.53-39.66V651.75ZM1368.33,384.53l-19.45,26.82-7.16,1.36.48-42.61,27.86-2.21Zm-14.88-27.43-11.11.88.07-6.26Z" style="fill:#fff"/></g><rect x="75.11" y="1041.26" width="6" height="6" style="fill:#960f33"/><rect x="117.11" y="1073.26" width="6" height="6" style="fill:#960f33"/><rect x="163.11" y="963.26" width="5" height="5" style="fill:#960f33"/><rect x="238.11" y="974.26" width="6" height="6" style="fill:#960f33"/><rect x="197.11" y="1044.26" width="7" height="7" style="fill:#960f33"/><rect x="313.11" y="996.26" width="6" height="6" style="fill:#960f33"/><rect x="375.11" y="1024.26" width="6" height="6" style="fill:#960f33"/><rect x="305.11" y="915.26" width="8" height="8" style="fill:#960f33"/><rect x="214.11" y="854.26" width="6" height="6" style="fill:#960f33"/><rect x="217.11" y="785.26" width="8" height="8" style="fill:#960f33"/><rect x="207.11" y="915.26" width="4" height="4" style="fill:#960f33"/><rect x="248.11" y="925.26" width="8" height="8" style="fill:#960f33"/><rect x="273.11" y="912.26" width="7" height="7" style="fill:#960f33"/><rect x="194.11" y="937.26" width="5" height="5" style="fill:#960f33"/><rect x="223.11" y="925.26" width="7" height="7" style="fill:#960f33"/><rect x="221.11" y="894.26" width="5" height="5" style="fill:#960f33"/><rect x="232.11" y="877.26" width="7" height="7" style="fill:#960f33"/><rect x="232.11" y="846.26" width="6" height="6" style="fill:#960f33"/><rect x="214.11" y="818.26" width="5" height="5" style="fill:#960f33"/><rect x="230.11" y="828.26" width="4" height="4" style="fill:#960f33"/><rect x="284.11" y="945.26" width="5" height="5" style="fill:#960f33"/><rect x="163.11" y="933.26" width="3" height="3" style="fill:#960f33"/><rect x="179.11" y="915.26" width="5" height="5" style="fill:#960f33"/><rect x="287.11" y="891.26" width="5" height="5" style="fill:#960f33"/><rect x="254.11" y="905.26" width="5" height="5" style="fill:#960f33"/><rect x="207.11" y="793.26" width="7" height="7" style="fill:#960f33"/><rect x="223.11" y="867.26" width="7" height="7" style="fill:#960f33"/><rect x="191.11" y="989.26" width="8" height="8" style="fill:#960f33"/><rect x="120.11" y="986.26" width="9" height="9" style="fill:#960f33"/><rect x="339.11" y="1079.26" width="8" height="8" style="fill:#960f33"/><rect x="402.11" y="1164.26" width="7" height="7" style="fill:#960f33"/><rect x="226.11" y="1176.26" width="6" height="6" style="fill:#960f33"/><rect x="258.11" y="1121.26" width="5" height="5" style="fill:#960f33"/><g style="opacity:0.8;mix-blend-mode:hue"><path d="M1488.82,646.47l-3.2-17.89-6.39-35.79-34.54-15.24,36.3-75.28-10.8-5.21-.27-.12-31.06,64.42-34.31-83.18-47.4-53.91,7.7-1.29,25.26-34.84.38-17.85.62.3V354.26l-42.8-17.43,9.8-2.13V317.27l-14.64-3.49-4.44-.1-12.31-41.84-7.58-25.79-56.56-44.77-9.43-1.89-61.27-12.25-40.53,8.75-63.17,13.64-37.8,31.2L1014,270.8l-25.11,55.55L986,329.83l-47.48-80.24-23.07-14.5-59.42-37.35H768.86l-70.7,11.79H537.91l-68.35,33h0l-6.45,11.84-8.87,16.25-5.11-3-15.51-9.16h0l-21.21,7.07-8.24,17.67v17.68h0l1,2.28,7.24,16.57,10.17,6.47,7.92,5-4.38,15L413,391v21l-.33,9-.26,7.1,10.13,4.16,7,6.06L424,448.21l-19.78,35.28L382.07,505l-21.5,20.92L312.26,553l-46,9.42-13-27.1-22.45-5.79-9.51-2.46,1.5-18.94.41-5.21h0l-.64-4.61-6.43-46.06L206.17,348l-8.8-91.31h0l-12.72,6.66-12,6.3h0l33,212.1-.86,11.72-2.51,34.44-40.33,5.47-14.63,2-4.71,25.93-9.43,9.42-4.26,12.77-4,12L132,610.75V640.2h0v17.68l15.32,11.78,32.8,13,10.57,4.19-.63,8.59L189.12,708l20.23,85.3h-2.24v7H211l4.27,18h-1.17v5h2.18l2.07,31h-4.25v6h4.65l2.35,35.36v3.64h.25l.76,11.53-11.86-7.49-.52-.33-19.31,11.68-6.32,3.82v-3.21h-5v5h2l-22.07,13.35L75.41,990.17,61,1008.22,0,1084.43H0l16,11.76,19.32,14.17,61.27,42.42H315.79l172-21.21h0L473.4,1104.2l-7.19-13.69,4.78-.31,11-.72,11.51-2.71,5.84-1.37,6.87-2.15,20.7-6.49,17.88,1.41,1.9.15h0l.11.08,7.44,6,9.56,7.68v14.14l9.43,15.32h.22l.36.59h41.25V1106l7.35,11.44,2.66,4.14h.21l.38.59h42.42v-.59h.59v-18.33l2,3.86,5.17,9.76,1.1,2.34,1.12,2.37.24,0h0l.34.64,37.7-8.25V1088l-.22-.19-.37-.29v-.11l-4.55-3.73-7.82-6.4,0-.48v-.43l8.65-6.73.15-.11,1.84-.38,9.55,1.49,12,1.87h0l13.11,2.06,3.11.49,37.64,11.76,37.71,9.43h35.35l25.53-11.79,5.1-2.35h0l16-27.43.5-.85v-34.17l11.78,21.2h0v-31l7.1,4.16,2.48,1.46,2.2,4.19h0l.41-2.66,11.45,6.72,4.21,2.47h0l3.18.31,32,3.16,38.45-5.68,16.18-4.14,10.55-2.69,13.44-.77,14.2-.82,6.88-.54,15.54-1.22,22.25,7,5.31,1.67,4.58,1.08,12.78,3,11.22.73,24.08,1.57,18.15-16,3.83-8.57,29.36,2.39.52,6.09.71,8.35h0l24.8-4.51.36,4.14.66,7.77,12.62,3.85,5.85,1.78,10-8.58,10.16-8.73,13.22,14.47h0l1.84-.16,23.17-2h0l9.3-17.58,16.85,6.25,4.2,1.55h0l23.31-8,9.78-26-15.12-22.7h0l-41.23-19.28-16.56-4.1.12-.56.08-.39,6.78-16,9.72-22.91,7.16-11.46,5.92-9.47h43.31l2.61-10.2h17.51l-2.62-8.46-4.75-15.33,3.55-20.21,3.82-21.71,13.18-33,14-35,7.07-15.37,6-13,8.41-15.49,13.12-24.17V651.75l3.57-2.3ZM475.14,1032.14l-6,1.46-18.28,4.48-15.43-.64-4.24-7.21-44.77-42.42-41.24-56.56L321,910.17l-21.78-19h0l-7.12,2.37v-2.3h-5v4l-30.08,10h-2.92v1l-16.29,5.43-1.93-27.41h3.22v-7H235.4l-.82-11.76-.93-13.24h4.46v-6h-4.88l-1-14h1.87v-4H232l-.42-6-7.78-29h1.35v-8h-3.49l-15.17-56.52-.83-3.11L206,721l2.16-27.24,7.49,3h0l23-6.48h0l.29-1.37.75-3.51,2.63,1.89,9.88,7.12L306.37,718,304,703.83l14.43,8.25L328.75,718h0l-.52-8.35-.65-10.5,25.92,27.1h0V702.66l15.32,23.56h0l.84-.94,19.19-21.45,5.89,55.38,2.08,13.85,1.79,12,3.2,21.31L408,835.11l.9,4.19,3.54,16.54,13,18.85,15.9,37.12,5.31,12.37L476,971.31l16.5,38.89,1.81,8.3-11.72,8.32ZM1342.34,358l.07-6.26,11,5.38Zm26,26.55-19.45,26.82-7.16,1.36.08-6.84a19,19,0,0,0,.37-32.32l0-2.66,27.78-2.2Zm67.05,184.05-1.92,4,0-.11h0l-2.25-5.47-2.89-7.05,6.56,8.4ZM1349.8,427.29l-1.37-1.57,2-.33Z" style="fill:#960f33"/><rect x="402.11" y="1164.26" width="7" height="7" style="fill:#960f33"/><rect x="226.11" y="1176.26" width="6" height="6" style="fill:#960f33"/></g><g style="opacity:0.2;mix-blend-mode:hue"><path d="M1488.82,646.47l-3.2-17.89-6.39-35.79-34.54-15.24,36.3-75.28-10.8-5.21-.27-.12-31.06,64.42-34.31-83.18-47.4-53.91,7.7-1.29,25.26-34.84.38-17.85.62.3V354.26l-42.8-17.43,9.8-2.13V317.27l-14.64-3.49-4.44-.1-12.31-41.84-7.58-25.79-56.56-44.77-9.43-1.89-61.27-12.25-40.53,8.75-63.17,13.64-37.8,31.2L1014,270.8l-25.11,55.55L986,329.83l-47.48-80.24-23.07-14.5-59.42-37.35H768.86l-70.7,11.79H537.91l-68.35,33h0l-6.45,11.84-8.87,16.25-5.11-3-15.51-9.16h0l-21.21,7.07-8.24,17.67v17.68h0l1,2.28,7.24,16.57,10.17,6.47,7.92,5-4.38,15L413,391v21l-.33,9-.26,7.1,10.13,4.16,7,6.06L424,448.21l-19.78,35.28L382.07,505l-21.5,20.92L312.26,553l-46,9.42-13-27.1-22.45-5.79-9.51-2.46,1.5-18.94.41-5.21h0l-.64-4.61-6.43-46.06L206.17,348l-8.8-91.31h0l-12.72,6.66-12,6.3h0l33,212.1-.86,11.72-2.51,34.44-40.33,5.47-14.63,2-4.71,25.93-9.43,9.42-4.26,12.77-4,12L132,610.75V640.2h0v17.68l15.32,11.78,32.8,13,10.57,4.19-.63,8.59L189.12,708l20.23,85.3h-2.24v7H211l4.27,18h-1.17v5h2.18l2.07,31h-4.25v6h4.65l2.35,35.36v3.64h.25l.76,11.53-11.86-7.49-.52-.33-19.31,11.68-6.32,3.82v-3.21h-5v5h2l-22.07,13.35L75.41,990.17,61,1008.22,0,1084.43H0l16,11.76,19.32,14.17,61.27,42.42H315.79l172-21.21h0L473.4,1104.2l-7.19-13.69,4.78-.31,11-.72,11.51-2.71,5.84-1.37,6.87-2.15,20.7-6.49,17.88,1.41,1.9.15h0l.11.08,7.44,6,9.56,7.68v14.14l9.43,15.32h.22l.36.59h41.25V1106l7.35,11.44,2.66,4.14h.21l.38.59h42.42v-.59h.59v-18.33l2,3.86,5.17,9.76,1.1,2.34,1.12,2.37.24,0h0l.34.64,37.7-8.25V1088l-.22-.19-.37-.29v-.11l-4.55-3.73-7.82-6.4,0-.48v-.43l8.65-6.73.15-.11,1.84-.38,9.55,1.49,12,1.87h0l13.11,2.06,3.11.49,37.64,11.76,37.71,9.43h35.35l25.53-11.79,5.1-2.35h0l16-27.43.5-.85v-34.17l11.78,21.2h0v-31l7.1,4.16,2.48,1.46,2.2,4.19h0l.41-2.66,11.45,6.72,4.21,2.47h0l3.18.31,32,3.16,38.45-5.68,16.18-4.14,10.55-2.69,13.44-.77,14.2-.82,6.88-.54,15.54-1.22,22.25,7,5.31,1.67,4.58,1.08,12.78,3,11.22.73,24.08,1.57,18.15-16,3.83-8.57,29.36,2.39.52,6.09.71,8.35h0l24.8-4.51.36,4.14.66,7.77,12.62,3.85,5.85,1.78,10-8.58,10.16-8.73,13.22,14.47h0l1.84-.16,23.17-2h0l9.3-17.58,16.85,6.25,4.2,1.55h0l23.31-8,9.78-26-15.12-22.7h0l-41.23-19.28-16.56-4.1.12-.56.08-.39,6.78-16,9.72-22.91,7.16-11.46,5.92-9.47h43.31l2.61-10.2h17.51l-2.62-8.46-4.75-15.33,3.55-20.21,3.82-21.71,13.18-33,14-35,7.07-15.37,6-13,8.41-15.49,13.12-24.17V651.75l3.57-2.3ZM475.14,1032.14l-6,1.46-18.28,4.48-15.43-.64-4.24-7.21-44.77-42.42-41.24-56.56L321,910.17l-21.78-19h0l-7.12,2.37v-2.3h-5v4l-30.08,10h-2.92v1l-16.29,5.43-1.93-27.41h3.22v-7H235.4l-.82-11.76-.93-13.24h4.46v-6h-4.88l-1-14h1.87v-4H232l-.42-6-7.78-29h1.35v-8h-3.49l-15.17-56.52-.83-3.11L206,721l2.16-27.24,7.49,3h0l23-6.48h0l.29-1.37.75-3.51,2.63,1.89,9.88,7.12L306.37,718,304,703.83l14.43,8.25L328.75,718h0l-.52-8.35-.65-10.5,25.92,27.1h0V702.66l15.32,23.56h0l.84-.94,19.19-21.45,5.89,55.38,2.08,13.85,1.79,12,3.2,21.31L408,835.11l.9,4.19,3.54,16.54,13,18.85,15.9,37.12,5.31,12.37L476,971.31l16.5,38.89,1.81,8.3-11.72,8.32ZM1342.34,358l.07-6.26,11,5.38Zm26,26.55-19.45,26.82-7.16,1.36.08-6.84a19,19,0,0,0,.37-32.32l0-2.66,27.78-2.2Zm67.05,184.05-1.92,4,0-.11h0l-2.25-5.47-2.89-7.05,6.56,8.4ZM1349.8,427.29l-1.37-1.57,2-.33Z" style="fill:#fff"/><rect x="402.11" y="1164.26" width="7" height="7" style="fill:#fff"/><rect x="226.11" y="1176.26" width="6" height="6" style="fill:#fff"/></g></g></svg>