<svg xmlns="http://www.w3.org/2000/svg" viewBox="0 0 1384 1293.34"><title>team-player</title><circle cx="707.02" cy="699.6" r="593.74" style="fill:#f4f0a4"/><polygon points="1384 709 827.36 628.69 573.24 330.02 665.65 56.1 1082.58 0 1384 203.51 1384 709" style="fill:#c1d1ea"/><polygon points="720.65 82.51 941.77 203.69 1233.96 431.27 1366.28 677.82 1225.96 440.4 931.14 212.91 720.65 82.51" style="fill:#afc1db"/><polygon points="786.56 149.12 629.94 310.71 792.94 157.63 786.56 149.12" style="fill:#afc1db"/><polygon points="922.63 267.48 764.59 508.44 931.14 272.44 922.63 267.48" style="fill:#afc1db"/><polygon points="1091.31 373.78 1012.64 636 1101.94 379.45 1091.31 373.78" style="fill:#afc1db"/><polygon points="858.85 115.11 1058 25.81 867.36 123.61 858.85 115.11" style="fill:#afc1db"/><polygon points="1019.73 203.69 1233.76 123.61 1019.73 215.03 1019.73 203.69" style="fill:#afc1db"/><polygon points="1148 302.2 1362.03 215.03 1152.25 314.96 1148 302.2" style="fill:#afc1db"/><polygon points="665.37 56.28 581.75 37.86 545.6 56.28 573.24 71.88 665.37 56.28" style="fill:#c1d1ea"/><polygon points="784 983 652 695 632.57 744.65 472 1155 652 751 764 977 784 983" style="fill:#7791af"/><polygon points="682 950 320 818 0 1264 330 840 662 962 682 950" style="fill:#7791af"/><polygon points="828 899 934 645 1384 1005 942 681 828 899" style="fill:#7791af"/><polygon points="1252 592 1156 592 1092 640 1048 702 1048 767 988 744 900 767 828 847 784 937 784 975 728 937 652 912 548 912 432 943 348 1025 320 1107 352 1183 440 1215 552 1215 660 1175 756 1115 784 1063 784 1009 828 1063 932 1063 1032 1033 1096 963 1092 879 1068 800 1156 827 1244 800 1312 732 1312 631 1252 592" style="fill:#6f8ab2"/><circle cx="1126.91" cy="644.84" r="45.37" style="fill:#fff"/><circle cx="1107.54" cy="625.72" r="12.37" style="fill:#324915"/><polygon points="784 975 492 815 112 1267 488 851 784 975 784 975" style="fill:#9ebadd"/><polygon points="784 983 760 695 912 1170 784 818 784 983" style="fill:#9ebadd"/><polygon points="784 983 862 702 1106 1234 869 754 784 983 784 983" style="fill:#9ebadd"/><polygon points="1278 638 1300.76 592 1344 592 1312 626 1311 665.15 1278 638" style="fill:#8aa4ce"/></svg>