<?xml version="1.0" encoding="utf-8"?>
<!-- Generator: Adobe Illustrator 21.1.0, SVG Export Plug-In . SVG Version: 6.00 Build 0)  -->
<svg version="1.1" id="Layer_1" xmlns="http://www.w3.org/2000/svg" xmlns:xlink="http://www.w3.org/1999/xlink" x="0px" y="0px"
	 viewBox="0 0 54 54" style="enable-background:new 0 0 54 54;" xml:space="preserve">
<style type="text/css">
	.st0{fill:none;}
</style>
<g>
	<rect x="-0.2" y="0.1" class="st0" width="53.8" height="53.4"/>
	<path style="fill:#9740B0" d="M48.1,12.9v26.8c0,2.2-0.8,4.1-2.4,5.7c-1.6,1.6-3.5,2.4-5.7,2.4H13.3c-2.2,0-4.1-0.8-5.7-2.4c-1.6-1.6-2.4-3.5-2.4-5.7
		V12.9c0-2.2,0.8-4.1,2.4-5.7c1.6-1.6,3.5-2.4,5.7-2.4H40c2.2,0,4.1,0.8,5.7,2.4C47.3,8.8,48.1,10.7,48.1,12.9z M40.9,18.3
		c-1,0.5-2.2,0.8-3.4,0.9c1.3-0.7,2.1-1.8,2.6-3.3c-1.2,0.7-2.5,1.2-3.7,1.4c-1.1-1.2-2.6-1.8-4.3-1.8c-1.6,0-3,0.6-4.1,1.7
		s-1.7,2.5-1.7,4.1c0,0.5,0,1,0.1,1.3c-2.4-0.1-4.7-0.7-6.8-1.8c-2.1-1.1-3.9-2.5-5.4-4.3c-0.5,0.9-0.8,1.9-0.8,3
		c0,2.1,0.8,3.7,2.5,4.9c-0.9,0-1.8-0.3-2.8-0.7v0.1c0,1.4,0.5,2.6,1.4,3.7c0.9,1.1,2.1,1.8,3.4,2c-0.5,0.1-1,0.2-1.4,0.2
		c-0.2,0-0.6,0-1.1-0.1c0.4,1.2,1.1,2.1,2.1,2.9s2.1,1.2,3.4,1.2c-2.2,1.7-4.6,2.5-7.3,2.5c-0.5,0-0.9,0-1.4-0.1
		c2.8,1.7,5.7,2.6,9,2.6c2.1,0,4-0.3,5.9-1c1.8-0.7,3.4-1.5,4.7-2.7c1.3-1.1,2.4-2.4,3.4-3.8c0.9-1.4,1.6-2.9,2.1-4.5
		c0.5-1.6,0.7-3.1,0.7-4.7c0-0.3,0-0.6,0-0.8C39.2,20.5,40.1,19.5,40.9,18.3z"/>
</g>
</svg>
