<svg xmlns="http://www.w3.org/2000/svg" viewBox="0 0 1678.71 1423.24"><title>the-lookout</title><g style="isolation:isolate"><polygon points="541.1 850.55 483.58 930.19 512.61 975.97 533.73 1050.01 510.67 1047 537.18 1079.83 539.14 1170.82 522.59 1189.63 521.35 1205.2 535.5 1216.49 547.1 1192.83 602.76 1223.37 615.75 1218.77 594.39 1178.03 623.22 1181.79 586.17 1153.36 572.72 1133.24 544.48 938.9 588.52 862.08 541.1 850.55" style="fill:#a89699;opacity:0.7000000000000001"/><polygon points="693.1 861.71 638.65 931.91 663.95 974.85 681.33 1043.23 660.38 1039.53 683.71 1070.55 683.2 1153.58 667.63 1170.04 678.88 1195.14 689.89 1173.97 760.51 1199.43 733.38 1162.44 759.56 1167.07 726.5 1139.61 714.76 1120.72 693.94 942.38 736.04 874.18 693.1 861.71" style="fill:#a89699;opacity:0.7000000000000001"/><polygon points="916.34 797.15 973.86 876.78 944.83 922.57 923.71 996.61 946.77 993.6 920.26 1026.43 918.29 1117.41 934.84 1136.23 936.08 1151.8 921.93 1163.09 910.34 1139.43 854.67 1169.97 841.68 1165.37 863.04 1124.63 834.22 1128.39 871.27 1099.95 884.71 1079.84 912.96 885.5 868.91 808.67 916.34 797.15" style="fill:#a89699;opacity:0.7000000000000001"/><polygon points="1064.82 836.41 1010.37 906.62 1035.67 949.56 1053.05 1017.93 1032.1 1014.23 1055.43 1045.26 1054.92 1128.28 1039.35 1144.75 1050.6 1169.85 1061.61 1148.68 1132.23 1174.13 1105.1 1137.15 1131.28 1141.77 1098.22 1114.31 1086.48 1095.42 1065.66 917.09 1107.76 848.88 1064.82 836.41" style="fill:#a89699;opacity:0.7000000000000001"/><polygon points="459.56 1006.24 375.86 1096.82 418.1 1148.89 448.83 1233.1 415.28 1229.68 453.85 1267.01 456.71 1370.49 432.63 1391.9 430.82 1409.61 451.41 1422.44 468.28 1395.54 582 1423.24 600.9 1418.01 537.1 1378.7 579.04 1382.98 525.13 1350.64 505.57 1327.76 464.47 1106.73 528.56 1019.35 459.56 1006.24" style="fill:#a89699"/><polygon points="596.89 942.51 517.66 1022.37 554.47 1071.2 579.76 1148.97 549.28 1144.76 583.23 1180.05 582.48 1274.47 559.83 1293.2 576.2 1321.75 592.22 1297.67 694.98 1326.62 655.5 1284.56 693.59 1289.82 645.5 1258.59 628.4 1237.1 598.11 1034.27 659.37 956.7 596.89 942.51" style="fill:#a89699"/><polygon points="1375.85 981.65 1459.55 1072.22 1417.31 1124.29 1386.58 1208.51 1420.13 1205.08 1381.56 1242.42 1378.7 1345.9 1402.78 1367.3 1404.59 1385.01 1384 1397.85 1367.13 1370.94 1253.41 1398.65 1234.51 1393.42 1298.31 1354.1 1256.36 1358.38 1310.28 1326.04 1329.84 1303.17 1370.94 1082.13 1306.85 994.75 1375.85 981.65" style="fill:#a89699"/><polygon points="1238.52 917.92 1317.75 997.77 1280.94 1046.61 1255.65 1124.37 1286.13 1120.16 1252.18 1155.45 1252.93 1249.88 1275.58 1268.61 1259.21 1297.15 1243.19 1273.08 1140.43 1302.03 1179.91 1259.96 1141.82 1265.23 1189.91 1233.99 1207.01 1212.51 1237.3 1009.68 1176.04 932.11 1238.52 917.92" style="fill:#a89699"/><polygon points="785.6 807.38 735.71 714.63 744.14 653.5 839 590.25 838.3 618.36 875.54 569.17 923.33 565.66 895.92 616.25 929.65 578.31 957.76 557.23 959.16 581.12 1047 541.77 1101.11 550.9 1071.59 557.23 1173.48 581.12 1140.45 589.55 1165.05 608.52 1189.64 627.5 1198.08 651.39 1161.54 651.39 1204.4 674.58 1223.37 692.14 1189.64 732.9 1071.59 877.65 929.65 891.71 785.6 807.38" style="fill:#d6b9bc"/><polygon points="905.06 557.93 918.41 378.04 917 143.35 898.73 118.05 892.73 66.42 910.68 10.54 954.24 0 1032.94 14.76 1049.11 42.16 1130.82 75.93 1126.25 87.46 1053.32 114.54 1001.32 184.1 1000.62 387.18 1000.62 480.64 1000.62 581.12 1003.43 641.55 981.65 664.04 965.49 633.82 952.14 678.79 924.73 595.88 923.33 653.5 905.06 605.71 892.41 633.82 905.06 557.93" style="fill:#ffe7e9"/><circle cx="990.72" cy="35.02" r="31.88" style="fill:#fff"/><circle cx="1015.05" cy="34.94" r="8.7" style="fill:#324915"/><polygon points="953.54 938.78 972.2 846.73 996.68 799.65 1094.03 695.66 1212.36 647.87 1191.38 671.77 1295.16 651.8 1315.54 647.87 1296.31 673.87 1402.4 661.23 1373.84 682.31 1551.05 695.66 1510.83 706.9 1641.99 838.3 1612.26 830.57 1678.71 909.98 1498.59 836.19 1587.77 899.43 1470.6 893.81 1614.01 996.4 1474.1 950.03 1510.83 988.68 1417.56 988.68 1431.55 1024.51 1339.44 1008.35 1356.93 1032.24 1286.98 1034.35 1296.31 1051.21 1205.95 1045.59 1212.36 1068.78 1129.01 1025.92 1141.25 1051.21 1069.55 1023.11 1073.63 1051.21 994.93 1001.32 961.7 1001.32 964.62 976.03 953.54 938.78" style="fill:#baa0a4"/><polygon points="943.75 916.4 937.32 823.1 920.87 773.94 846.43 661.19 747.41 602.31 763.3 628.08 674.07 598.24 656.55 592.38 670.66 620.08 578.61 597.3 601.47 621 443.96 617.22 478.16 632.27 348.39 750.28 375.41 745.45 308.26 817.99 474.9 761.98 389.49 816.26 493.29 821.95 355.86 910.14 484.1 877.49 447.56 912.38 529.7 921.35 513.49 955.63 596.35 948.43 578.36 970.49 639.73 979.32 629.69 995.19 709.87 998.29 701.7 1020.73 779.76 986.13 766.24 1010.1 832.43 989.06 825.79 1016.61 900.51 974.58 929.77 977.78 929.95 952.35 943.75 916.4" style="fill:#baa0a4"/><polygon points="923.61 915.35 912.77 1080.23 913.91 1237.38 921.59 1414.68 876.1 1413.8 843.22 1381.65 845.5 1212.91 846.07 1071.86 846.07 986.2 846.07 894.1 843.79 838.71 861.46 818.1 874.58 845.79 885.41 804.57 907.64 880.57 908.78 827.76 923.61 871.55 933.87 845.79 923.61 915.35" style="fill:#edd6d9"/><polygon points="794.06 930.39 810.49 1097.14 840.06 1253.58 875.64 1415.02 831.7 1414.44 780.17 1398.79 752.68 1244.1 728.07 1103.35 712.71 1017.95 696.19 926.12 683.49 871.4 701.23 846.99 722.11 871.74 727.86 828.28 768.46 899.2 760.37 846.3 786.2 886.73 794.03 858.8 794.06 930.39" style="fill:#ffe7e9"/><polygon points="800.95 864.65 719.02 763 717.33 795.23 609.87 724.78 588.58 710.82 601.26 747.8 442.07 701.98 397.89 701.98 355.81 701.98 395.77 724.49 175.05 820.96 228.33 820.15 0 931.89 216.91 872.4 148.41 915.01 237.84 896.52 152.22 950.38 312.05 935.11 263.21 963.25 340.59 958.42 273.99 1009.07 348.2 1026.75 315.85 1043.63 374.84 1047.65 352 1074.98 417.97 1054.89 409.09 1089.45 555.6 1059.71 539.74 1081.42 634.88 1068.55 637.13 1103.21 693.86 1046.05 690.06 1089.45 742.29 1006.71 754.75 1036.4 787.1 972.89 800.95 864.65" style="fill:#d6b9bc"/><polygon points="1071.46 1001.81 1037.46 1143.2 1019.04 1279.99 1012.02 1409.31 961.11 1415.06 914.63 1413.96 938.68 1246.62 957.16 1124.13 967.96 1049.67 979.57 969.62 983.76 921.08 1007.92 906.29 1020.42 932.68 1038.83 898.77 1056.37 968.76 1064.42 923.06 1076.98 963.75 1092.75 943.17 1071.46 1001.81" style="fill:#ffe7e9"/><polygon points="1049.11 43.57 1019.59 70.27 1015.38 108.21 1053.32 114.54 1126.4 87.13 1130.62 75.89 1049.11 43.57" style="fill:#f2dadd"/><polygon points="945.81 13.2 1030.13 16.86 1024.86 0 963.88 0.34 945.81 13.2" style="fill:#ffe7e9"/><circle cx="897.97" cy="821.85" r="593.74" style="fill:#94ead9"/><polygon points="541.1 850.55 483.58 930.19 512.61 975.97 533.73 1050.01 510.67 1047 537.18 1079.83 539.14 1170.82 522.59 1189.63 521.35 1205.2 535.5 1216.49 547.1 1192.83 602.76 1223.37 615.75 1218.77 594.39 1178.03 623.22 1181.79 586.17 1153.36 572.72 1133.24 544.48 938.9 588.52 862.08 541.1 850.55" style="fill:#a89699;opacity:0.7000000000000001"/><polygon points="693.1 861.71 638.65 931.91 663.95 974.85 681.33 1043.23 660.38 1039.53 683.71 1070.55 683.2 1153.58 667.63 1170.04 678.88 1195.14 689.89 1173.97 760.51 1199.43 733.38 1162.44 759.56 1167.07 726.5 1139.61 714.76 1120.72 693.94 942.38 736.04 874.18 693.1 861.71" style="fill:#a89699;opacity:0.7000000000000001"/><polygon points="916.34 797.15 973.86 876.78 944.83 922.57 923.71 996.61 946.77 993.6 920.26 1026.43 918.29 1117.41 934.84 1136.23 936.08 1151.8 921.93 1163.09 910.34 1139.43 854.67 1169.97 841.68 1165.37 863.04 1124.63 834.22 1128.39 871.27 1099.95 884.71 1079.84 912.96 885.5 868.91 808.67 916.34 797.15" style="fill:#a89699;opacity:0.7000000000000001"/><polygon points="1064.82 836.41 1010.37 906.62 1035.67 949.56 1053.05 1017.93 1032.1 1014.23 1055.43 1045.26 1054.92 1128.28 1039.35 1144.75 1050.6 1169.85 1061.61 1148.68 1132.23 1174.13 1105.1 1137.15 1131.28 1141.77 1098.22 1114.31 1086.48 1095.42 1065.66 917.09 1107.76 848.88 1064.82 836.41" style="fill:#a89699;opacity:0.7000000000000001"/><polygon points="459.56 1006.24 375.86 1096.82 418.1 1148.89 448.83 1233.1 415.28 1229.68 453.85 1267.01 456.71 1370.49 432.63 1391.9 430.82 1409.61 451.41 1422.44 468.28 1395.54 582 1423.24 600.9 1418.01 537.1 1378.7 579.04 1382.98 525.13 1350.64 505.57 1327.76 464.47 1106.73 528.56 1019.35 459.56 1006.24" style="fill:#a89699"/><polygon points="596.89 942.51 517.66 1022.37 554.47 1071.2 579.76 1148.97 549.28 1144.76 583.23 1180.05 582.48 1274.47 559.83 1293.2 576.2 1321.75 592.22 1297.67 694.98 1326.62 655.5 1284.56 693.59 1289.82 645.5 1258.59 628.4 1237.1 598.11 1034.27 659.37 956.7 596.89 942.51" style="fill:#a89699"/><polygon points="1375.85 981.65 1459.55 1072.22 1417.31 1124.29 1386.58 1208.51 1420.13 1205.08 1381.56 1242.42 1378.7 1345.9 1402.78 1367.3 1404.59 1385.01 1384 1397.85 1367.13 1370.94 1253.41 1398.65 1234.51 1393.42 1298.31 1354.1 1256.36 1358.38 1310.28 1326.04 1329.84 1303.17 1370.94 1082.13 1306.85 994.75 1375.85 981.65" style="fill:#a89699"/><polygon points="1238.52 917.92 1317.75 997.77 1280.94 1046.61 1255.65 1124.37 1286.13 1120.16 1252.18 1155.45 1252.93 1249.88 1275.58 1268.61 1259.21 1297.15 1243.19 1273.08 1140.43 1302.03 1179.91 1259.96 1141.82 1265.23 1189.91 1233.99 1207.01 1212.51 1237.3 1009.68 1176.04 932.11 1238.52 917.92" style="fill:#a89699"/><polygon points="785.6 807.38 735.71 714.63 744.14 653.5 839 590.25 838.3 618.36 875.54 569.17 923.33 565.66 895.92 616.25 929.65 578.31 957.76 557.23 959.16 581.12 1047 541.77 1101.11 550.9 1071.59 557.23 1173.48 581.12 1140.45 589.55 1165.05 608.52 1189.64 627.5 1198.08 651.39 1161.54 651.39 1204.4 674.58 1223.37 692.14 1189.64 732.9 1071.59 877.65 929.65 891.71 785.6 807.38" style="fill:#d6b9bc"/><polygon points="905.06 557.93 918.41 378.04 917 143.35 898.73 118.05 892.73 66.42 910.68 10.54 954.24 0 1032.94 14.76 1049.11 42.16 1130.82 75.93 1126.25 87.46 1053.32 114.54 1001.32 184.1 1000.62 387.18 1000.62 480.64 1000.62 581.12 1003.43 641.55 981.65 664.04 965.49 633.82 952.14 678.79 924.73 595.88 923.33 653.5 905.06 605.71 892.41 633.82 905.06 557.93" style="fill:#ffe7e9"/><circle cx="990.72" cy="35.02" r="31.88" style="fill:#fff"/><circle cx="1015.05" cy="34.94" r="8.7" style="fill:#324915"/><polygon points="953.54 938.78 972.2 846.73 996.68 799.65 1094.03 695.66 1212.36 647.87 1191.38 671.77 1295.16 651.8 1315.54 647.87 1296.31 673.87 1402.4 661.23 1373.84 682.31 1551.05 695.66 1510.83 706.9 1641.99 838.3 1612.26 830.57 1678.71 909.98 1498.59 836.19 1587.77 899.43 1470.6 893.81 1614.01 996.4 1474.1 950.03 1510.83 988.68 1417.56 988.68 1431.55 1024.51 1339.44 1008.35 1356.93 1032.24 1286.98 1034.35 1296.31 1051.21 1205.95 1045.59 1212.36 1068.78 1129.01 1025.92 1141.25 1051.21 1069.55 1023.11 1073.63 1051.21 994.93 1001.32 961.7 1001.32 964.62 976.03 953.54 938.78" style="fill:#baa0a4"/><polygon points="943.75 916.4 937.32 823.1 920.87 773.94 846.43 661.19 747.41 602.31 763.3 628.08 674.07 598.24 656.55 592.38 670.66 620.08 578.61 597.3 601.47 621 443.96 617.22 478.16 632.27 348.39 750.28 375.41 745.45 308.26 817.99 474.9 761.98 389.49 816.26 493.29 821.95 355.86 910.14 484.1 877.49 447.56 912.38 529.7 921.35 513.49 955.63 596.35 948.43 578.36 970.49 639.73 979.32 629.69 995.19 709.87 998.29 701.7 1020.73 779.76 986.13 766.24 1010.1 832.43 989.06 825.79 1016.61 900.51 974.58 929.77 977.78 929.95 952.35 943.75 916.4" style="fill:#baa0a4"/><polygon points="923.61 915.35 912.77 1080.23 913.91 1237.38 921.59 1414.68 876.1 1413.8 843.22 1381.65 845.5 1212.91 846.07 1071.86 846.07 986.2 846.07 894.1 843.79 838.71 861.46 818.1 874.58 845.79 885.41 804.57 907.64 880.57 908.78 827.76 923.61 871.55 933.87 845.79 923.61 915.35" style="fill:#edd6d9"/><polygon points="794.06 930.39 810.49 1097.14 840.06 1253.58 875.64 1415.02 831.7 1414.44 780.17 1398.79 752.68 1244.1 728.07 1103.35 712.71 1017.95 696.19 926.12 683.49 871.4 701.23 846.99 722.11 871.74 727.86 828.28 768.46 899.2 760.37 846.3 786.2 886.73 794.03 858.8 794.06 930.39" style="fill:#ffe7e9"/><polygon points="800.95 864.65 719.02 763 717.33 795.23 609.87 724.78 588.58 710.82 601.26 747.8 442.07 701.98 397.89 701.98 355.81 701.98 395.77 724.49 175.05 820.96 228.33 820.15 0 931.89 216.91 872.4 148.41 915.01 237.84 896.52 152.22 950.38 312.05 935.11 263.21 963.25 340.59 958.42 273.99 1009.07 348.2 1026.75 315.85 1043.63 374.84 1047.65 352 1074.98 417.97 1054.89 409.09 1089.45 555.6 1059.71 539.74 1081.42 634.88 1068.55 637.13 1103.21 693.86 1046.05 690.06 1089.45 742.29 1006.71 754.75 1036.4 787.1 972.89 800.95 864.65" style="fill:#d6b9bc"/><polygon points="1071.46 1001.81 1037.46 1143.2 1019.04 1279.99 1012.02 1409.31 961.11 1415.06 914.63 1413.96 938.68 1246.62 957.16 1124.13 967.96 1049.67 979.57 969.62 983.76 921.08 1007.92 906.29 1020.42 932.68 1038.83 898.77 1056.37 968.76 1064.42 923.06 1076.98 963.75 1092.75 943.17 1071.46 1001.81" style="fill:#ffe7e9"/><polygon points="1049.11 43.57 1019.59 70.27 1015.38 108.21 1053.32 114.54 1126.4 87.13 1130.62 75.89 1049.11 43.57" style="fill:#f2dadd"/><polygon points="945.81 13.2 1030.13 16.86 1024.86 0 963.88 0.34 945.81 13.2" style="fill:#ffe7e9"/><path d="M1470.6,893.81l117.17,5.62-89.19-63.24L1678.71,910l-66.45-79.41L1642,838.3,1510.83,706.9l40.22-11.24-177.21-13.35,28.56-21.08-106.09,12.64,19.23-26-20.38,3.93-98,18.85-3.25-1.75,18.46-21-32.82,13.26-18-9.74h36.54l-8.44-23.89-24.59-19-24.59-19,33-8.43-101.89-23.89,29.52-6.33L1047,541.77l-46.38,20.78V387.18l.7-203.08,52-69.56,72.93-27.08.12-.32h0l.42-1.11,4-10.09-81.71-33.77-16.17-27.4-3.68-.69L1024.86,0l-61,.34L962.25,1.5l-8-1.5L910.68,10.54,892.73,66.42l6,51.63L917,143.35,918.41,378,905.06,557.93l-1.53,9.19-28,2L838.3,618.36l.7-28.11-52.73,35.16-38.86-23.1,15.89,25.77-89.23-29.84-17.52-5.86,14.11,27.7-92-22.78L601.47,621,444,617.22l34.2,15L401.5,702H355.81L384,717.87,359.15,740.5,175.05,821l53.28-.81L0,931.89l216.91-59.48L148.41,915l89.43-18.49-85.62,53.86,159.83-15.27-48.84,28.13,77.38-4.82L274,1009.07l74.21,17.68-32.35,16.88,59,4L352,1075l61.29-18.68-37.43,40.51,42.24,52.07,30.73,84.21-33.55-3.42L453.85,1267l2.86,103.49-24.08,21.4-1.81,17.71,20.59,12.83,16.87-26.91L582,1423.24l18.9-5.23-63.8-39.31,41.95,4.28-53.92-32.34-19.56-22.88-41.1-221,24.58-33.51,36.76-7.46,11.37,14.07,2,91-16.55,18.81-1.24,15.58,14.15,11.28,11.6-23.66L583,1212.51l-.49,62-22.65,18.73,16.37,28.55,16-24.08L695,1326.62l-39.48-42.06,38.09,5.26-48.09-31.23-17.1-21.49-8.32-55.72,3.14.41-3.47-2.66-15.89-106.38,31-4.2,2.25,34.66,40.47-40.78,6.11,8.12-.51,83L667.63,1170l11.25,25.1,11-21.16,53.93,19.43,8.86,50.69,27.49,154.68,51.53,15.66,43.95.58-.47-2.12.92.9,45.49.88,0-.55,39.54.93,50.91-5.75,7-129.31,18.42-136.8,17.82-74.1-.36,59.18-15.57,16.47,11.25,25.1,11-21.17,70.62,25.45-27.13-37,26.18,4.62-33.06-27.46-11.74-18.89-8-68.82,62.81,24.61L1129,1025.92l83.36,42.86-6.41-23.19,25.74,1.6L1207,1212.51,1189.91,1234l-48.09,31.24,38.09-5.27L1140.43,1302l102.76-29,16,24.07,16.37-28.54-22.65-18.73-.75-94.43,34-35.29-30.48,4.21,24.13-74.18,16.53,1-8-14.41,1.93-2.55,44.57-1.34,36.11,49.22-41.1,221L1310.28,1326l-53.92,32.34,42-4.28-63.8,39.32,18.9,5.23,113.72-27.71,16.87,26.91,20.59-12.84-1.81-17.71-24.08-21.4,2.86-103.48,38.57-37.34-33.55,3.43,30.73-84.22,42.24-52.07-47.2-51.08,19.2,3.37-14-35.83h93.27L1474.1,950,1614,996.41ZM572.72,1133.24l-1.55-10.68,5.29,16.28ZM905.06,605.71l.07.19-.31.35Zm-190.3,515-6.94-59.41,9.88-15.64,10.37,57.68,7.68,43.94-9.25-7.68Zm18.62,41.72,5.18.92,1.41,8.07Zm106.68,91.14-29.57-156.44-9.66-98,31.6-10.05-6.64,27.55,20.28-11.41v66.66l-.19,47.58-11.66,9,11.63-1.52-.13,30.8-4,7.7,4,1.42-.19,46.12-.83,61.59Zm117.1-129.45-18.48,122.49L920,1376.9l-6-139.52-.66-92,8.68,17.73,14.15-11.29-1.24-15.57-16.55-18.82,2-91,26.51-32.83-23.06,3,5.39-18.9.67.07,0-2.48,15-52.73,17.63-27.82-8.92,44L964.62,976l-2.92,25.29H975l-7,48.35Z" style="fill:#00b410;mix-blend-mode:saturation"/></g></svg>