<svg xmlns="http://www.w3.org/2000/svg" xmlns:xlink="http://www.w3.org/1999/xlink" viewBox="0 0 1220.98 1526.73"><defs><clipPath id="a"><circle cx="593.74" cy="741.85" r="593.74" style="fill:none"/></clipPath></defs><title>visionary</title><g style="isolation:isolate"><circle cx="593.74" cy="741.85" r="593.74" style="fill:#f9b66b"/><g style="clip-path:url(#a)"><path d="M403.54,1348.54c27.77,4.38,55.54,8.81,83.37,12.72,23.43,3,46.76,5.2,70.48,4.73,47.62-1,94.84-7.69,142.11-12.91,28.87-3.18,58-5.91,87.08-6l4.8-70,1.79-26.17L771.1,1005.66,373.74,1160.19l20,126.49Z" style="fill:#bfefe9"/><path d="M513.84,1364.23c8,.73,16.07,1.28,24.14,1.57L575.19,1312l30.34-43.88,47.83-7.36,20.14,41.4,24,49.36,9.23-56.35,14.07-85.91-278.39-71.14L489,1324.53Z" style="fill:#84cec2"/><path d="M876.54,799.7l17.31,164,8.35,217-13.35,177.11.23,6.65c3.26-8.87,7.17-17.55,10.94-26.17,1.68-3.84,3.47-7.62,5.49-11.29a141.36,141.36,0,0,1,11.62-17.51c13.62-17.81,26.89-34.12,44.07-48.48,30.83-25.79,64.11-47.43,98.5-68,25.11-15.06,50.53-29.84,74.26-47,5.57-4.63,11-9.45,16.11-14.56a84,84,0,0,1,24.5-17l0-2.27,10.37-168.34,4.58-155.22-25-47.94L1101,678l.94-26.6,18.92-33.08,88.41-39.51L1221,549.89l-54-31.2-16.68-30.77L1028.91,457l-52.19,19.47-35.07,37.84,7.45,90.83L944,700.85Z" style="fill:#bfefe9"/><polygon points="1184.7 555.28 1097.52 601.49 1100.2 651.3 1120.9 618.29 1211.08 578.85 1184.7 555.28" style="fill:#9ce2d8"/><polygon points="1167.03 518.69 1150.35 487.92 1028.91 457 976.72 476.47 954.44 504.1 1007.07 547.69 1081.8 518.35 1090.07 535.52 1078.2 544.87 1099.14 555.37 1167.03 518.69" style="fill:#85ccc0"/><polygon points="1202.81 539.39 1220.98 549.89 1211.08 578.85 1184.79 569.04 1184.87 550.67 1202.81 539.39" style="fill:#59998e"/><polygon points="988.33 499.97 969.28 485.98 948.01 491.89 942.5 515.22 952.75 551.99 974.67 559.87 987.04 536.33 988.33 499.97" style="fill:#d0f4ee"/><polygon points="987.95 510.54 973.79 499.45 957.93 504.19 953.78 522.74 961.6 544.88 977.92 551.1 986.94 539.42 987.95 510.54" style="fill:#70b7ad"/><path d="M962.77,1225.39l-8.15,41.33q3.2-2.94,6.58-5.77c30.83-25.79,64.11-47.43,98.5-68,25.11-15.06,50.53-29.84,74.26-47q5.24-4.35,10.24-9l9.87-99.23-12.75-116.76L1128.25,813l-65.43-58.25-46.12-1.62-38.28,28-37.6,109.67,27.3,183Z" style="fill:#84cec2"/><polygon points="1192.68 789.54 1159.7 938.57 1114.87 1028.77 1088.41 1101.13 1063.33 1150.2 1033.57 1161.95 1045.24 1065.52 1066.71 965.76 1113.27 875.93 1128.95 803.06 1192.68 789.54" style="fill:#bfefe9"/><polygon points="1089.16 1097.66 1075.74 1128.36 1063.33 1150.2 1054.4 1153.72 1033.57 1161.95 1043.38 1074.2 1046.94 1104.01 1058.07 1069.19 1053.19 1117.15 1073.43 1077.94 1064.47 1119.58 1089.16 1097.66" style="fill:#67a59b"/><polygon points="994.93 853.44 990.5 906.2 1009.65 961.18 1020.4 1041.42 1032.84 1116.61 1018.3 1166.02 1007.12 1199.7 986.91 1192.99 980.66 1127.34 957.58 1067.31 955.28 1023.54 911.96 928.74 916.32 819.86 986.4 760.85 994.93 853.44" style="fill:#bfefe9"/><polygon points="1026.69 1140.75 1007.12 1199.7 986.91 1192.99 981.22 1125.65 987.41 1143.61 991.02 1110.21 996.96 1154.26 1010.95 1112.15 1011.83 1148.91 1030.35 1125.06 1026.69 1140.75" style="fill:#67a59b"/><circle cx="1067.83" cy="526.32" r="20.62" style="fill:#fff"/><circle cx="1083.98" cy="525.95" r="5.61" style="fill:#324915"/><polygon points="1117.9 577.34 1099.48 545.62 1034.75 543.34 997.59 564.82 1117.9 577.34" style="fill:#bfefe9"/><polygon points="1129.53 499.55 1102.46 486.19 1032.82 471.39 1016.63 503.69 1080.48 505.87 1129.53 499.55" style="fill:#d0f4ee"/><polygon points="1167.03 518.69 1105.06 475.67 1150.35 487.92 1167.03 518.69" style="fill:#59998e"/><path d="M876.54,799.7l17.31,164,8.35,217-13.35,177.11.23,6.65c3.26-8.87,7.17-17.55,10.94-26.17,1.68-3.84,3.47-7.62,5.49-11.29a141.36,141.36,0,0,1,11.62-17.51c13.62-17.81,26.89-34.12,44.07-48.48,30.83-25.79,64.11-47.43,98.5-68,25.11-15.06,50.53-29.84,74.26-47,5.57-4.63,11-9.45,16.11-14.56a84,84,0,0,1,24.5-17l0-2.27,10.37-168.34,4-137.43,3.72-16.78-3.24.69,0-1.7-25-47.94L1101,678l.94-26.6,18.92-33.08,90.18-39.44,9.9-29-18.17-10.5L1167,518.69l-16.68-30.77-45.29-12.25,1.63,1.13L1028.91,457l-52.19,19.47-9.29,10L948,491.89l-4.92,20.86-1.44,1.56,7.45,90.83L944,700.85Z" style="fill:#cbf4f7;opacity:0.7000000000000001;mix-blend-mode:multiply"/><g style="opacity:0.8"><path d="M.06,786.25,16.69,943.8l4.41,114.88,16.35,12.63c36.24,33.15,64.17,74.35,93.67,113.44,14.1,17.68,29,34.36,46.24,49,18.54,13.26,38.19,24.88,57.59,36.86,17.46,10.79,34.66,22.22,51.08,34.64l2.42-36.23-2.1-182.63,10-161.74,4.4-149.13-24-46.06-61-60.15.9-25.56L234.82,612l84.94-38L331,546.25l-51.83-30-16-29.57L146.44,457,96.3,475.71,62.61,512.06l7.16,87.26-5,92Z" style="fill:#bfefe9"/><path d="M202.77,1526.73,223,1494.16c-1.11-.59-2.21-1.19-3.31-1.82l-7.39-5.72c-6.76,1.27-13.47,2.76-20.08,4.62A87.21,87.21,0,0,1,202.77,1526.73Z" style="fill:#bfefe9"/><polygon points="296.12 551.42 212.35 595.81 214.94 643.68 234.82 611.96 321.46 574.06 296.12 551.42" style="fill:#9ce2d8"/><polygon points="279.14 516.27 263.12 486.7 146.44 457 96.3 475.71 74.89 502.25 125.46 544.13 197.25 515.95 205.2 532.43 193.8 541.42 213.92 551.51 279.14 516.27" style="fill:#85ccc0"/><polygon points="313.52 536.15 330.97 546.25 321.46 574.06 296.2 564.64 296.27 547 313.52 536.15" style="fill:#59998e"/><polygon points="107.45 498.28 89.16 484.84 68.72 490.52 63.43 512.94 73.27 548.26 94.33 555.83 106.22 533.21 107.45 498.28" style="fill:#d0f4ee"/><polygon points="107.09 508.43 93.48 497.79 78.25 502.33 74.26 520.16 81.78 541.43 97.46 547.41 106.12 536.19 107.09 508.43" style="fill:#70b7ad"/><path d="M85.41,1124c15.72,19.87,30.51,40.57,45.71,60.71,14.1,17.68,29,34.36,46.24,49,18.54,13.26,38.19,24.88,57.59,36.86,2.81,1.74,5.62,3.51,8.43,5.28l6.72-32.11,3.39-96.28,13.2-132.61L254.44,902.69,241.88,799l-62.86-56-44.31-1.56L97.94,768.37,61.81,873.73,88,1049.53Z" style="fill:#84cec2"/><polygon points="303.78 776.49 272.1 919.66 229.03 1006.32 203.61 1075.85 179.51 1122.99 150.92 1134.28 162.13 1041.63 182.76 945.79 227.49 859.49 242.56 789.47 303.78 776.49" style="fill:#bfefe9"/><polygon points="204.32 1072.51 191.44 1102.01 179.51 1122.99 170.93 1126.37 150.92 1134.28 160.34 1049.97 163.77 1078.61 174.46 1045.16 169.77 1091.24 189.22 1053.57 180.61 1093.57 204.32 1072.51" style="fill:#67a59b"/><path d="M77.91,1043.36,100.08,1101l4.59,48.18q7.14,9.55,14.21,19.15l6.63,2.2,10.74-32.36,14-47.47-11.95-72.24-10.34-77.09-18.39-52.82,4.26-50.69-8.2-89-67.33,56.7L34.08,910.23,75.7,1001.3Z" style="fill:#bfefe9"/><path d="M118.88,1168.35l6.63,2.2,18.8-56.64,3.52-15.07L130,1121.75l-.85-35.32-13.43,40.46L110,1084.57l-3.47,32.08-5.95-17.24,4.23,50Q111.9,1158.88,118.88,1168.35Z" style="fill:#67a59b"/><circle cx="183.83" cy="523.6" r="19.81" style="fill:#fff"/><circle cx="199.35" cy="523.24" r="5.39" style="fill:#324915"/><polygon points="231.94 572.62 214.25 542.14 152.05 539.95 116.35 560.58 231.94 572.62" style="fill:#bfefe9"/><polygon points="243.11 497.88 217.1 485.05 150.2 470.83 134.64 501.86 195.99 503.95 243.11 497.88" style="fill:#d0f4ee"/><polygon points="279.14 516.27 219.6 474.93 263.12 486.7 279.14 516.27" style="fill:#59998e"/><path d="M.06,786.25,16.69,943.8l4.41,114.88,16.35,12.63c36.24,33.15,64.17,74.35,93.67,113.44,14.1,17.68,29,34.36,46.24,49,18.54,13.26,38.19,24.88,57.59,36.86,17.46,10.79,34.66,22.22,51.08,34.64l2.42-36.23-2.1-182.63,10-161.74,3.89-132,3.57-16.11-3.11.66.05-1.64-24-46.06-61-60.15.9-25.56L234.82,612l86.64-37.9L331,546.25l-17.45-10.1-34.38-19.88-16-29.57L219.6,474.93l1.57,1.09-74.73-19L96.3,475.71l-8.92,9.62-18.66,5.19-4.73,20-1.38,1.5,7.16,87.26-5,92Z" style="fill:#cbf4f7;opacity:0.7000000000000001;mix-blend-mode:multiply"/><path d="M202.77,1526.73,223,1494.16c-1.11-.59-2.21-1.19-3.31-1.82l-7.39-5.72c-6.76,1.27-13.47,2.76-20.08,4.62A87.21,87.21,0,0,1,202.77,1526.73Z" style="fill:#cbf4f7;opacity:0.7000000000000001;mix-blend-mode:multiply"/></g></g><polyline points="771.1 1005.66 793.17 706.41 837.32 480.75 749.02 340.94 746.57 208.49 761.29 83.4 714.68 29.43 643.55 0 474.31 36.79 449.78 78.49 373.74 118.96 388.46 159.43 508.64 218.3 533.17 264.91 533.17 301.7 442.42 385.09 405.63 450.09 404.4 664.72 386 897.74 373.74 1160.19" style="fill:#bfefe9"/><polygon points="423.58 128.16 541.76 196.23 535.63 264.91 508.64 218.3 386 159.43 423.58 128.16" style="fill:#9ce2d8"/><polygon points="449.78 78.49 474.31 36.79 643.55 0 714.68 29.43 744.12 68.68 669.3 126.32 567.51 82.17 555.25 105.47 571.19 118.96 541.76 132.45 449.78 78.49" style="fill:#85ccc0"/><polygon points="399.34 105.33 373.74 118.96 386 159.43 422.8 147.17 423.58 121.79 399.34 105.33" style="fill:#59998e"/><polygon points="697.51 61.32 724.49 42.92 753.59 52.12 760.06 84.62 744.12 134.91 713.46 144.72 697.51 111.6 697.51 61.32" style="fill:#d0f4ee"/><polygon points="697.51 75.94 717.62 61.32 739.29 68.63 744.12 94.45 732.24 124.66 709.39 132.45 697.51 115.89 697.51 75.94" style="fill:#70b7ad"/><polyline points="720.82 1209.24 697.51 1064.53 697.51 854.81 744.12 603.4 697.51 450.09 646 409.62 582.23 409.62 489.02 486.89 465.72 635.28 442.42 795.94 442.42 999.53 442.42 1138.11" style="fill:#84cec2"/><polygon points="406.85 450.09 408.08 661.04 442.42 795.94 457.13 901.41 476.76 975 513.55 999.53 525.82 865.85 525.82 724.81 489.02 589.91 489.02 486.89 406.85 450.09" style="fill:#bfefe9"/><polygon points="722.04 497.93 704.87 569.06 655.82 632.83 606.76 733.4 557.7 826.6 555.25 897.74 555.25 946.79 584.68 946.79 621.48 863.4 677.89 794.72 699.97 738.3 798.08 632.83 839.78 488.11 773.55 380.19 722.04 497.93" style="fill:#bfefe9"/><polygon points="457.13 896.51 466.33 941.89 476.76 975 487.8 982.36 513.55 999.53 525.82 878.11 512.32 917.36 507.42 867.08 500.06 933.3 484.12 874.43 484.12 933.3 457.13 896.51" style="fill:#67a59b"/><polygon points="555.25 860.94 555.25 946.79 584.68 946.79 621.48 860.94 605.53 881.79 615.34 836.41 588.36 891.6 588.36 830.28 571.19 878.11 557.28 838.77 555.25 860.94" style="fill:#67a59b"/><circle cx="586.42" cy="93.85" r="28.5" style="fill:#fff"/><circle cx="564.14" cy="92.55" r="7.75" style="fill:#324915"/><polygon points="514.78 149.62 541.76 106.7 631.29 106.7 681.57 138.18 514.78 149.62" style="fill:#bfefe9"/><polygon points="502.51 91.98 540.53 50.28 637.42 33.11 658.27 78.49 569.97 78.49 502.51 91.98" style="fill:#d0f4ee"/><polygon points="449.78 78.49 537.47 22.07 474.31 36.79 449.78 78.49" style="fill:#59998e"/><polyline points="943.96 700.85 949.11 605.14 941.65 514.3 976.72 476.47 1028.91 457 1150.35 487.92 1167.03 518.69 1220.98 549.89 1209.31 578.78 1120.9 618.29 1101.97 651.37 1101.04 677.97" style="fill:#bfefe9"/><polygon points="1184.7 555.28 1097.52 601.49 1100.2 651.3 1120.9 618.29 1211.08 578.85 1184.7 555.28" style="fill:#9ce2d8"/><polygon points="1167.03 518.69 1150.35 487.92 1028.91 457 976.72 476.47 954.44 504.1 1007.07 547.69 1081.8 518.35 1090.07 535.52 1078.2 544.87 1099.14 555.37 1167.03 518.69" style="fill:#85ccc0"/><polygon points="1202.81 539.39 1220.98 549.89 1211.08 578.85 1184.79 569.04 1184.87 550.67 1202.81 539.39" style="fill:#59998e"/><polygon points="988.33 499.97 969.28 485.98 948.01 491.89 942.5 515.22 952.75 551.99 974.67 559.87 987.04 536.33 988.33 499.97" style="fill:#d0f4ee"/><polygon points="987.95 510.54 973.79 499.45 957.93 504.19 953.78 522.74 961.6 544.88 977.92 551.1 986.94 539.42 987.95 510.54" style="fill:#70b7ad"/><circle cx="1067.83" cy="526.32" r="20.62" style="fill:#fff"/><circle cx="1083.98" cy="525.95" r="5.61" style="fill:#324915"/><polygon points="1117.9 577.34 1099.48 545.62 1034.75 543.34 997.59 564.82 1117.9 577.34" style="fill:#bfefe9"/><polygon points="1129.53 499.55 1102.46 486.19 1032.82 471.39 1016.63 503.69 1080.48 505.87 1129.53 499.55" style="fill:#d0f4ee"/><polygon points="1167.03 518.69 1105.06 475.67 1150.35 487.92 1167.03 518.69" style="fill:#59998e"/><polyline points="1101.04 677.97 1101.97 651.37 1120.9 618.29 1211.08 578.85 1220.98 549.89 1202.81 539.39 1202.81 539.39 1167.03 518.69 1150.35 487.92 1105.06 475.67 1106.69 476.8 1028.91 457 976.72 476.47 967.43 486.49 948.01 491.89 943.09 512.75 941.65 514.31 949.11 605.14 943.96 700.85" style="fill:#cbf4f7;opacity:0.7000000000000001;mix-blend-mode:multiply"/><path d="M827.65,530.2l12.13-42.09-2.95-4.81.49-2.55L749,340.94l-2.45-132.45L761.29,83.4l-1.92-2.22-5.78-29.06L727,43.72,714.68,29.43,643.55,0,535.15,23.57l2.32-1.49L474.31,36.79l-24.53,41.7-76,40.47L386,159.43,508.64,218.3l24.53,46.61V301.7l-90.75,83.39-36.79,65L404.4,664.72l-18.4,233-12.26,262.45h0l20,126.49,2.42,15.24a596.43,596.43,0,0,0,393.46.58l1.75-25.39,1.79-26.17L771.1,1005.66h0l22.07-299.24Z" style="fill:#a0eae6;opacity:0.5;mix-blend-mode:color"/></g></svg>