<svg xmlns="http://www.w3.org/2000/svg" viewBox="0 0 1678.5 1186.89"><title>workshop-warrior</title><g style="isolation:isolate"><circle cx="1005.64" cy="596.49" r="590.4" style="fill:#ffe2a9"/><rect x="539.26" y="202.16" width="6.77" height="46.89" style="fill:#e5b557"/><rect x="512.69" y="202.16" width="6.77" height="46.89" style="fill:#e5b557"/><rect x="1213.98" y="178.71" width="6.77" height="46.89" style="fill:#e5b557"/><rect x="1187.41" y="168.29" width="6.77" height="46.89" style="fill:#e5b557"/><rect x="921.17" y="186.53" width="6.25" height="62.52" style="fill:#e5b557"/><polygon points="721.62 138.59 698.69 116.71 675.76 116.71 655.97 116.71 650.76 127.65 601.78 127.65 648.67 149.01 654.92 165.16 642.42 179.23 642.42 207.37 653.88 229.25 735.16 240.71 790.39 229.25 768.51 195.9 738.29 168.29 720.57 155.26 721.62 138.59" style="fill:#eaba65"/><polygon points="1293.7 730.47 1327.04 784.66 1339.55 945.13 1293.7 1051.42 1229.09 1091.02 1229.09 1118.11 1372.89 1118.11 1383.31 1061.84 1433.33 988.9 1483.35 976.39 1466.68 924.29 1483.35 763.45 1356.22 511.64 1293.7 730.47" style="fill:#7fb29e"/><polygon points="341.27 386.6 305.84 328.24 305.84 278.23 257.91 313.65 257.91 357.42 299.59 419.94 341.27 386.6" style="fill:#7fb29e"/><polygon points="778.93 830.51 778.93 959.72 766.42 1047.25 795.6 1084.77 795.6 1118.11 741.41 1136.87 678.89 1055.59 778.93 830.51" style="fill:#7baf9b"/><polygon points="251.65 409.52 207.89 549.16 157.87 630.44 59.92 722.14 59.92 790.91 45.33 911.79 80.76 930.54 99.52 930.54 193.3 943.05 241.23 915.96 328.76 909.7 391.29 805.5 447.04 734.12 493.41 715.88 553.85 763.82 616.37 857.6 628.87 978.48 643.46 1066.01 595.53 1155.63 643.46 1182.72 726.83 1170.21 766.42 1161.88 766.42 1116.03 741.41 1057.67 766.42 922.21 806.02 832.59 806.02 796.12 960.24 815.92 1135.31 796.12 1293.7 730.47 1335.38 653.36 1370.81 557.49 1399.99 642.94 1464.59 736.73 1506.27 796.12 1525.03 926.38 1525.03 1049.34 1470.85 1091.02 1464.59 1126.45 1620.9 1122.28 1620.9 1086.85 1608.39 1049.34 1620.9 972.23 1662.58 926.38 1631.32 849.27 1650.08 647.11 1662.58 482.47 1510.44 238.63 1335.38 201.11 1156.15 186.53 968.58 240.71 697.65 207.37 541.34 240.71 407.96 249.05 360.03 324.08 251.65 409.52" style="fill:#78ddb6"/><polygon points="395.46 384.51 439.69 310.33 495.49 267.81 498.62 360.03 453.29 413.17 395.46 384.51" style="fill:#7fb29e"/><polygon points="113.96 753.4 42.73 682.17 0 553.97 0 386.6 56.98 525.48 149.57 614.51 188.74 682.17 163.81 728.47 113.96 753.4" style="fill:#90fcd2"/><polygon points="220.47 610.32 173.64 610.32 173.64 540.08 197.06 493.26 238.86 531.99 254.29 551.79 254.29 585.61 220.47 610.32" style="fill:#90fcd2"/><polygon points="184.38 811.43 202.35 772.48 229.31 784.46 220.33 811.43 184.38 811.43" style="fill:#7baf9b"/><polygon points="435.99 404.38 453.29 357.42 498.52 315.28 498.62 360.03 453.55 413.17 435.99 404.38" style="fill:#bfefdc"/><polygon points="553.85 763.82 603.86 709.63 714.32 709.63 822.69 772.68 688.27 740.89 614.28 740.89 570.52 791.95 553.85 763.82" style="fill:#a0e8ce"/><polygon points="498.62 709.63 512.69 499.14 580.42 315.22 553.85 478.3 512.89 732.56 498.62 709.63" style="fill:#a0e8ce"/><circle cx="429.01" cy="530.6" r="35.45" style="fill:#fff"/><circle cx="405.15" cy="533.98" r="9.67" style="fill:#324915"/><polygon points="899.8 91.7 863.33 127.13 828.95 201.11 807.06 267.81 853.43 262.6 899.8 232.25 953.99 179.75 975.87 139.63 975.87 111.5 962.33 91.7 975.87 67.73 1016.51 45.85 967.54 45.85 957.12 18.76 895.64 0 911.79 20.84 882.09 19.8 899.8 28.14 877.92 35.43 890.43 39.6 878.96 51.06 900.85 56.27 897.72 68.78 907.1 81.28 899.8 91.7" style="fill:#cea151"/><polygon points="1352.53 204.79 1367.68 161.52 1397.9 133.9 1416.66 127.13 1429.16 107.33 1455.21 101.08 1475.01 112.54 1483.35 121.92 1539.62 143.8 1477.1 145.89 1483.35 171.94 1475.01 204.76 1459.38 214.66 1416.66 229.25 1390.61 229.25 1373.93 218.83 1352.53 204.79" style="fill:#d3ac67"/><polygon points="982.13 101.08 1004.01 87.53 1030.06 101.08 1050.9 87.53 1077.99 87.53 1051.94 101.08 1036.31 119.83 1045.69 145.89 1048.82 176.1 1047.78 194.86 1039.44 213.62 1024.85 229.25 982.13 249.05 945.65 249.05 945.65 229.25 945.65 209.45 960.24 144.84 982.13 101.08" style="fill:#e5b557"/><polygon points="519.46 82.32 499.66 82.32 479.86 101.08 459.02 116.71 478.82 116.71 465.27 128.17 481.94 128.17 474.65 157.35 475.69 186.53 490.28 204.24 519.46 214.66 572.08 214.66 593.44 194.86 612.2 186.53 648.67 186.53 593.44 148.49 578.86 133.9 562.18 121.92 545.51 121.92 546.55 101.08 538.22 87.53 519.46 82.32" style="fill:#e5b557"/><polygon points="802.25 381.98 828.96 466.39 855.09 613.33 855.09 772.68 941.01 791.95 1066.14 791.95 1182.22 763.82 1291.26 716.51 1343.5 606.47 1394.76 419.94 1383.72 340.23 1337.49 294.38 1280.2 278.23 1161.11 267.81 1042.02 294.38 903.33 315.22 823.93 315.22 772.68 331.89 772.68 349.08 802.25 381.98" style="fill:#98f4ca"/><polygon points="381.91 174.02 389.2 153.18 404.83 138.59 421.51 138.59 436.1 148.49 467.36 148.49 441.31 162.56 447.56 178.71 453.81 196.95 447.56 214.66 447.04 240.71 428.8 255.3 360.03 324.08 360.03 260.51 369.4 219.87 367.32 193.82 381.91 174.02" style="fill:#ce9d46"/><polygon points="1165.53 15.63 1140.52 15.63 1125.93 32.3 1094.67 45.85 1130.1 45.85 1130.1 82.32 1141.56 135.47 1173.86 172.98 1208.25 180.27 1247.85 180.27 1266.6 162.56 1346.84 196.95 1280.15 132.34 1247.85 95.87 1203.04 61.48 1181.16 41.68 1165.53 15.63" style="fill:#e5b557"/><polygon points="576.53 341.56 512.69 499.14 513.16 690.35 513.16 761.84 548.91 772.68 615.52 723.39 688.64 723.39 812.12 759.14 844.62 728.26 828.37 583.66 800.21 440.68 752.01 357.27 696.76 332.36 638.27 306.36 598.74 315.57 576.53 341.56" style="fill:#95efc9"/><polygon points="1354.94 558.68 1381.52 674.22 1445.64 779.93 1492.43 844.06 1561.75 844.06 1620.68 818.64 1655.35 762.72 1665.75 688.19 1678.44 461.14 1561.76 282.62 1479.72 249.05 1421.38 290.06 1382.95 334.02 1405.78 406.18 1354.94 558.68" style="fill:#95efc9"/><polyline points="1273.38 734.12 1351.53 537.17 1384.88 452.77 1390.09 341.79 1415.1 424.63 1394.26 524.15 1292.13 734.12" style="fill:#8eceb6"/><polygon points="601.78 830.51 662.22 801.33 762.25 801.33 807.06 830.51 772.68 922.21 737.25 1057.67 648.67 1066.01 601.78 830.51" style="fill:#95efc9"/><polygon points="1503.55 868.1 1552.14 845.84 1630.8 849.27 1664.98 875.13 1634.61 950.42 1601.83 1062.16 1531.88 1066.08 1503.55 868.1" style="fill:#95efc9"/><g style="mix-blend-mode:color"><g style="opacity:0.6000000000000001;mix-blend-mode:color"><path d="M1636.44,793.43l18.83-30.34,10.44-74.52,12.79-227.05L1561.9,283l-32.05-13.13-19.25-30.89-74.49-16,23.44-8,15.64-9.89,8.35-32.82-6.24-26,62.52-2.06-56.26-21.91-8.33-9.38-19.79-11.47-26.06,6.24-12.51,19.79-18.76,6.77-30.23,27.6L1352.71,205l-17.15-3.68L1220.94,192V180.45H1248l18.77-17.71L1347,197.18l-66.66-64.64-32.29-36.49-44.79-34.4-21.87-19.81-15.62-26.06h-25l-14.6,16.66L1094.92,46h35.42V82.45l11.44,53.15,32.28,37.53L1187.6,176v13.22l-31.26-2.56-125.19,36.1,8.47-9.06L1048,195l1-18.76L1045.89,146l-9.36-26.06,15.64-18.74,26-13.54h-27.09l-20.85,13.54-26-13.56-21.89,13.53-6.26,12.51v-2.09l-13.54-19.8,13.56-24,40.65-21.86-49,0-10.41-27.1L895.91,0l16.14,20.84-29.7-1.05,17.71,8.34-21.89,7.29,12.51,4.17L879.21,51.08l21.88,5.22L898,68.8l9.37,12.51L900,91.73l-36.49,35.41-34.42,74-7.07,21.54-39-4.81-14.4-22-30.21-27.63-17.71-13,1.05-16.67-22.91-21.9H656.18L651,127.56l-49,0,46.88,21.39,6.25,16.15-12.51,14.06v3l-49-33.75-14.59-14.6-16.66-12H545.72l1-20.84-8.33-13.56-18.75-5.21h-19.8l-19.81,18.75-20.84,15.62H479L465.48,128h16.68l-7.31,29.17,1,29.18,14.58,17.72,22.4,8,0,30.26-73.64,4.57,8-6.39.53-26.05L454,196.77l-6.24-18.24-6.25-16.15,26.06-14.06H436.3l-14.59-9.91H405L389.4,153l-7.3,20.83-14.6,19.8,2.07,26-9.39,40.63,0,63.57-38.37,30.22L306,328l0-50-48,35.41,0,43.77,20.6,30.93-26.87,21.17L219.06,513.33,197.1,493l-23.43,46.82,0,64.72-15.31,24.86-8.77-15.16L57,525.13.09,386.22,0,553.59,42.69,681.81l28.94,29-11.77,11,0,68.78L45.18,911.43,80.6,930.2H99.36l93.78,12.55,48-27.08,87.53-6.21L391.19,805.3,447,733.94l46.38-18.21,18,14.27,1.5,2.41.17-1.08.1.07v30.3l35.74,10.84,7.08-5.23,14.52,24.52,1.17-1.37,31.55,47.37,23,115.78,2.55,24.77,14.55,87.54-48,89.6,47.92,27.11,83.37-12.47,39.6-8.31,0-33.67,29.18-10.09,0-33.34-29.16-37.53,12.54-87.52,0-54.19,28.17-75-1-.67,0-33.71L960.14,816l175.07-19.71,149.62-61.94h7.24l1.68-3.46,33.21,54,12.43,160.48-45.9,106.27-64.63,39.57v27.09l143.8.07,10.45-56.27,50.05-72.92,50-12.48-16.64-52.11,10.53-101.16,15.26,20.93h20.74l2.65,18.42-12.28,5.62,21.41,150.14,0,31.11-54.2,41.66-6.27,35.42,156.31-4.09v-35.43l-12.48-37.52,3.47-21.37,19.87-67.61,30.9-34-9.15-22.6,11.57-28.65-33.42-25.31-.23-.56ZM1194.18,177.29l14.07,3H1214v11l-19.8-1.61ZM945.66,209.45v28.44l-18.24-2.24V205.5l24.48-23.73Zm-45.86,22.8,21.37-20.7v23.33l-21.37-2.63ZM572.08,214.66l21.36-19.8,18.76-8.33h30.22v20.84L648,218,546,239.71V214.66Zm-52.62,0h19.8v26.18l-19.8,1.24Z" style="fill:#af599e"/></g></g><g style="mix-blend-mode:color"><g style="opacity:0.6000000000000001;mix-blend-mode:color"><path d="M1636.44,793.43l18.83-30.34,10.44-74.52,12.79-227.05L1561.9,283l-32.05-13.13-19.25-30.89-74.49-16,23.44-8,15.64-9.89,8.35-32.82-6.24-26,62.52-2.06-56.26-21.91-8.33-9.38-19.79-11.47-26.06,6.24-12.51,19.79-18.76,6.77-30.23,27.6L1352.71,205l-17.15-3.68L1220.94,192V180.45H1248l18.77-17.71L1347,197.18l-66.66-64.64-32.29-36.49-44.79-34.4-21.87-19.81-15.62-26.06h-25l-14.6,16.66L1094.92,46h35.42V82.45l11.44,53.15,32.28,37.53L1187.6,176v13.22l-31.26-2.56-125.19,36.1,8.47-9.06L1048,195l1-18.76L1045.89,146l-9.36-26.06,15.64-18.74,26-13.54h-27.09l-20.85,13.54-26-13.56-21.89,13.53-6.26,12.51v-2.09l-13.54-19.8,13.56-24,40.65-21.86-49,0-10.41-27.1L895.91,0l16.14,20.84-29.7-1.05,17.71,8.34-21.89,7.29,12.51,4.17L879.21,51.08l21.88,5.22L898,68.8l9.37,12.51L900,91.73l-36.49,35.41-34.42,74-7.07,21.54-39-4.81-14.4-22-30.21-27.63-17.71-13,1.05-16.67-22.91-21.9H656.18L651,127.56l-49,0,46.88,21.39,6.25,16.15-12.51,14.06v3l-49-33.75-14.59-14.6-16.66-12H545.72l1-20.84-8.33-13.56-18.75-5.21h-19.8l-19.81,18.75-20.84,15.62H479L465.48,128h16.68l-7.31,29.17,1,29.18,14.58,17.72,22.4,8,0,30.26-73.64,4.57,8-6.39.53-26.05L454,196.77l-6.24-18.24-6.25-16.15,26.06-14.06H436.3l-14.59-9.91H405L389.4,153l-7.3,20.83-14.6,19.8,2.07,26-9.39,40.63,0,63.57-38.37,30.22L306,328l0-50-48,35.41,0,43.77,20.6,30.93-26.87,21.17L219.06,513.33,197.1,493l-23.43,46.82,0,64.72-15.31,24.86-8.77-15.16L57,525.13.09,386.22,0,553.59,42.69,681.81l28.94,29-11.77,11,0,68.78L45.18,911.43,80.6,930.2H99.36l93.78,12.55,48-27.08,87.53-6.21L391.19,805.3,447,733.94l46.38-18.21,18,14.27,1.5,2.41.17-1.08.1.07v30.3l35.74,10.84,7.08-5.23,14.52,24.52,1.17-1.37,31.55,47.37,23,115.78,2.55,24.77,14.55,87.54-48,89.6,47.92,27.11,83.37-12.47,39.6-8.31,0-33.67,29.18-10.09,0-33.34-29.16-37.53,12.54-87.52,0-54.19,28.17-75-1-.67,0-33.71L960.14,816l175.07-19.71,149.62-61.94h7.24l1.68-3.46,33.21,54,12.43,160.48-45.9,106.27-64.63,39.57v27.09l143.8.07,10.45-56.27,50.05-72.92,50-12.48-16.64-52.11,10.53-101.16,15.26,20.93h20.74l2.65,18.42-12.28,5.62,21.41,150.14,0,31.11-54.2,41.66-6.27,35.42,156.31-4.09v-35.43l-12.48-37.52,3.47-21.37,19.87-67.61,30.9-34-9.15-22.6,11.57-28.65-33.42-25.31-.23-.56ZM1194.18,177.29l14.07,3H1214v11l-19.8-1.61ZM945.66,209.45v28.44l-18.24-2.24V205.5l24.48-23.73Zm-45.86,22.8,21.37-20.7v23.33l-21.37-2.63ZM572.08,214.66l21.36-19.8,18.76-8.33h30.22v20.84L648,218,546,239.71V214.66Zm-52.62,0h19.8v26.18l-19.8,1.24Z" style="fill:#8e3c8a"/></g></g><g style="opacity:0.8;mix-blend-mode:color"><rect x="1213.98" y="178.71" width="6.77" height="46.89" style="fill:#e04805"/><rect x="1187.41" y="168.29" width="6.77" height="46.89" style="fill:#e04805"/><rect x="921.17" y="186.53" width="6.25" height="62.52" style="fill:#e04805"/><polygon points="721.62 138.59 698.69 116.71 675.76 116.71 655.97 116.71 650.76 127.65 601.78 127.65 648.67 149.01 654.92 165.16 642.42 179.23 642.42 207.37 653.88 229.25 735.16 240.71 790.39 229.25 768.51 195.9 738.29 168.29 720.57 155.26 721.62 138.59" style="fill:#e04805"/><polygon points="899.8 91.7 863.33 127.13 828.95 201.11 807.06 267.81 853.43 262.6 899.8 232.25 953.99 179.75 975.87 139.63 975.87 111.5 962.33 91.7 975.87 67.73 1016.51 45.85 967.54 45.85 957.12 18.76 895.64 0 911.79 20.84 882.09 19.8 899.8 28.14 877.92 35.43 890.43 39.6 878.96 51.06 900.85 56.27 897.72 68.78 907.1 81.28 899.8 91.7" style="fill:#e04805"/><polygon points="1352.53 204.79 1367.68 161.52 1397.9 133.9 1416.66 127.13 1429.16 107.33 1455.21 101.08 1475.01 112.54 1483.35 121.92 1539.62 143.8 1477.1 145.89 1483.35 171.94 1475.01 204.76 1459.38 214.66 1416.66 229.25 1390.61 229.25 1373.93 218.83 1352.53 204.79" style="fill:#e04805"/><polygon points="982.13 101.08 1004.01 87.53 1030.06 101.08 1050.9 87.53 1077.99 87.53 1051.94 101.08 1036.31 119.83 1045.69 145.89 1048.82 176.1 1047.78 194.86 1039.44 213.62 1024.85 229.25 982.13 249.05 945.65 249.05 945.65 229.25 945.65 209.45 960.24 144.84 982.13 101.08" style="fill:#e04805"/><polygon points="519.46 82.32 499.66 82.32 479.86 101.08 459.02 116.71 478.82 116.71 465.27 128.17 481.94 128.17 474.65 157.35 475.69 186.53 490.28 204.24 519.46 214.66 572.08 214.66 593.44 194.86 612.2 186.53 648.67 186.53 593.44 148.49 578.86 133.9 562.18 121.92 545.51 121.92 546.55 101.08 538.22 87.53 519.46 82.32" style="fill:#e04805"/><polygon points="381.91 174.02 389.2 153.18 404.83 138.59 421.51 138.59 436.1 148.49 467.36 148.49 441.31 162.56 447.56 178.71 453.81 196.95 447.56 214.66 447.04 240.71 428.8 255.3 360.03 324.08 360.03 260.51 369.4 219.87 367.32 193.82 381.91 174.02" style="fill:#e04805"/><polygon points="1165.53 15.63 1140.52 15.63 1125.93 32.3 1094.67 45.85 1130.1 45.85 1130.1 82.32 1141.56 135.47 1173.86 172.98 1208.25 180.27 1247.85 180.27 1266.6 162.56 1346.84 196.95 1280.15 132.34 1247.85 95.87 1203.04 61.48 1181.16 41.68 1165.53 15.63" style="fill:#e04805"/></g></g></svg>